Georama-ThinItalic.ufo
<glyph name="exclam" format="2">
  <advance width="197.8"/>
  <unicode hex="0021"/>
  <outline>
    <contour>
      <point x="88.0" y="264.0" type="line"/>
      <point x="106.0" y="264.0" type="line"/>
      <point x="181.0" y="740.0" type="line"/>
      <point x="163.0" y="740.0" type="line"/>
    </contour>
    <contour>
      <point x="42.2" y="10.0" type="curve" smooth="yes"/>
      <point x="41.2" y="1.6"/>
      <point x="43.400000000000006" y="0.0"/>
      <point x="54.0" y="0.0" type="curve" smooth="yes"/>
      <point x="70.80000000000001" y="0.0"/>
      <point x="71.2" y="1.0"/>
      <point x="74.2" y="24.0" type="curve" smooth="yes"/>
      <point x="75.2" y="33.0"/>
      <point x="71.80000000000001" y="34.0"/>
      <point x="61.800000000000004" y="34.0" type="curve" smooth="yes"/>
      <point x="46.2" y="34.0"/>
      <point x="45.2" y="33.0"/>
    </contour>
  </outline>
</glyph>
<glyph name="numbersign" format="2">
  <advance width="563.6"/>
  <unicode hex="0023"/>
  <outline>
    <contour>
      <point x="138.8" y="481.4" type="line"/>
      <point x="240.4" y="481.4" type="line"/>
      <point x="154.2" y="213.4" type="line"/>
      <point x="60.2" y="213.4" type="line"/>
      <point x="57.0" y="195.8" type="line"/>
      <point x="148.4" y="195.8" type="line"/>
      <point x="85.2" y="0.0" type="line"/>
      <point x="105.80000000000001" y="0.0" type="line"/>
      <point x="168.0" y="195.8" type="line"/>
      <point x="322.6" y="195.8" type="line"/>
      <point x="260.4" y="0.0" type="line"/>
      <point x="280.4" y="0.0" type="line"/>
      <point x="342.6" y="195.8" type="line"/>
      <point x="445.6" y="195.8" type="line"/>
      <point x="448.20000000000005" y="213.4" type="line"/>
      <point x="348.8" y="213.4" type="line"/>
      <point x="434.6" y="481.4" type="line"/>
      <point x="526.8" y="481.4" type="line"/>
      <point x="529.8" y="499.0" type="line"/>
      <point x="440.8" y="499.0" type="line"/>
      <point x="506.20000000000005" y="700.0" type="line"/>
      <point x="486.20000000000005" y="700.0" type="line"/>
      <point x="420.8" y="499.0" type="line"/>
      <point x="266.2" y="499.0" type="line"/>
      <point x="331.6" y="700.0" type="line"/>
      <point x="311.6" y="700.0" type="line"/>
      <point x="246.2" y="499.0" type="line"/>
      <point x="141.8" y="499.0" type="line"/>
    </contour>
    <contour>
      <point x="260.4" y="481.4" type="line"/>
      <point x="415.0" y="481.4" type="line"/>
      <point x="328.8" y="213.4" type="line"/>
      <point x="174.2" y="213.4" type="line"/>
    </contour>
  </outline>
</glyph>
<glyph name="dollar" format="2">
  <advance width="563.6"/>
  <unicode hex="0024"/>
  <outline>
    <contour>
      <point x="517.4000000000001" y="682.0" type="line"/>
      <point x="494.20000000000005" y="691.4"/>
      <point x="442.0" y="708.6"/>
      <point x="371.20000000000005" y="710.0" type="curve"/>
      <point x="386.6" y="805.0" type="line"/>
      <point x="368.6" y="805.0" type="line"/>
      <point x="353.0" y="709.4" type="line"/>
      <point x="238.4" y="704.8"/>
      <point x="126.80000000000001" y="630.8"/>
      <point x="126.80000000000001" y="518.4" type="curve" smooth="yes"/>
      <point x="126.80000000000001" y="340.4"/>
      <point x="450.6" y="343.6"/>
      <point x="450.6" y="178.2" type="curve" smooth="yes"/>
      <point x="450.6" y="68.0"/>
      <point x="323.0" y="9.6"/>
      <point x="227.60000000000002" y="9.6" type="curve" smooth="yes"/>
      <point x="151.4" y="9.6"/>
      <point x="65.2" y="33.0"/>
      <point x="37.0" y="45.6" type="curve"/>
      <point x="27.200000000000003" y="26.8" type="line"/>
      <point x="61.8" y="14.0"/>
      <point x="137.8" y="-8.6"/>
      <point x="221.0" y="-10.0" type="curve"/>
      <point x="206.0" y="-105.0" type="line"/>
      <point x="224.0" y="-105.0" type="line"/>
      <point x="239.0" y="-9.4" type="line"/>
      <point x="358.20000000000005" y="-4.800000000000001"/>
      <point x="470.6" y="66.0"/>
      <point x="470.6" y="182.4" type="curve" smooth="yes"/>
      <point x="470.6" y="358.2"/>
      <point x="146.4" y="354.6"/>
      <point x="146.4" y="521.2" type="curve" smooth="yes"/>
      <point x="146.4" y="627.4"/>
      <point x="268.0" y="691.6"/>
      <point x="358.20000000000005" y="691.6" type="curve" smooth="yes"/>
      <point x="431.4" y="691.6"/>
      <point x="475.6" y="677.6"/>
      <point x="508.2" y="664.4" type="curve"/>
    </contour>
  </outline>
</glyph>
<glyph name="ampersand" format="2">
  <advance width="613.4000000000001"/>
  <unicode hex="0026"/>
  <outline>
    <contour>
      <point x="225.8" y="-10.0" type="curve" smooth="yes"/>
      <point x="358.20000000000005" y="-10.0"/>
      <point x="480.4" y="114.0"/>
      <point x="498.0" y="288.0" type="curve"/>
      <point x="480.0" y="293.2" type="line"/>
      <point x="464.6" y="132.6"/>
      <point x="348.8" y="8.4"/>
      <point x="227.0" y="8.4" type="curve" smooth="yes"/>
      <point x="116.6" y="8.4"/>
      <point x="59.2" y="62.0"/>
      <point x="59.2" y="142.6" type="curve" smooth="yes"/>
      <point x="59.2" y="296.2"/>
      <point x="197.8" y="380.0"/>
      <point x="340.6" y="380.0" type="curve" smooth="yes"/>
      <point x="349.0" y="380.0" type="line"/>
      <point x="350.8" y="398.8" type="line"/>
      <point x="344.0" y="398.8" type="line" smooth="yes"/>
      <point x="247.8" y="398.8"/>
      <point x="182.6" y="449.0"/>
      <point x="182.6" y="540.8" type="curve" smooth="yes"/>
      <point x="182.6" y="620.0"/>
      <point x="238.4" y="693.2"/>
      <point x="337.8" y="693.2" type="curve" smooth="yes"/>
      <point x="391.4" y="693.2"/>
      <point x="443.8" y="673.0"/>
      <point x="478.6" y="639.0" type="curve"/>
      <point x="489.20000000000005" y="654.2" type="line"/>
      <point x="455.8" y="688.0"/>
      <point x="396.4" y="710.0"/>
      <point x="339.2" y="710.0" type="curve" smooth="yes"/>
      <point x="225.8" y="710.0"/>
      <point x="163.2" y="629.8"/>
      <point x="163.2" y="539.6" type="curve" smooth="yes"/>
      <point x="163.2" y="459.8"/>
      <point x="214.4" y="405.6"/>
      <point x="284.6" y="392.0" type="curve"/>
      <point x="145.4" y="374.8"/>
      <point x="39.8" y="282.2"/>
      <point x="39.8" y="142.0" type="curve" smooth="yes"/>
      <point x="39.8" y="51.4"/>
      <point x="100.2" y="-10.0"/>
    </contour>
    <contour>
      <point x="339.6" y="249.8" type="line"/>
      <point x="343.8" y="287.6"/>
      <point x="371.20000000000005" y="306.4"/>
      <point x="402.4" y="306.4" type="curve" smooth="yes"/>
      <point x="460.4" y="306.4"/>
      <point x="482.4" y="275.6"/>
      <point x="546.2" y="275.6" type="curve" smooth="yes"/>
      <point x="593.0" y="275.6"/>
      <point x="623.4000000000001" y="305.6"/>
      <point x="628.8" y="347.2" type="curve"/>
      <point x="611.6" y="352.6" type="line"/>
      <point x="607.4000000000001" y="318.0"/>
      <point x="582.6" y="293.4"/>
      <point x="544.8" y="293.4" type="curve" smooth="yes"/>
      <point x="491.20000000000005" y="293.4"/>
      <point x="458.8" y="324.2"/>
      <point x="401.6" y="324.2" type="curve" smooth="yes"/>
      <point x="362.6" y="324.2"/>
      <point x="329.6" y="300.4"/>
      <point x="323.0" y="257.8" type="curve"/>
    </contour>
  </outline>
</glyph>
<glyph name="quotesingle" format="2">
  <advance width="139.0"/>
  <unicode hex="0027"/>
  <outline>
    <contour>
      <point x="87.0" y="427.0" type="line"/>
      <point x="100.0" y="427.0" type="line"/>
      <point x="147.0" y="700.0" type="line"/>
      <point x="126.0" y="700.0" type="line"/>
    </contour>
  </outline>
</glyph>
<glyph name="parenleft" format="2">
  <advance width="281.2"/>
  <unicode hex="0028"/>
  <outline>
    <contour>
      <point x="70.6" y="37.2" type="curve" smooth="yes"/>
      <point x="70.6" y="-91.4"/>
      <point x="103.2" y="-192.8"/>
      <point x="177.2" y="-220.0" type="curve"/>
      <point x="186.2" y="-203.2" type="line"/>
      <point x="126.0" y="-183.8"/>
      <point x="89.0" y="-89.6"/>
      <point x="89.0" y="43.0" type="curve" smooth="yes"/>
      <point x="89.0" y="271.8"/>
      <point x="192.4" y="675.4"/>
      <point x="332.0" y="730.8" type="curve"/>
      <point x="329.0" y="749.4" type="line"/>
      <point x="153.0" y="679.2"/>
      <point x="70.6" y="261.6"/>
    </contour>
  </outline>
</glyph>
<glyph name="parenright" format="2">
  <advance width="281.2"/>
  <unicode hex="0029"/>
  <outline>
    <contour>
      <point x="208.2" y="492.0" type="curve" smooth="yes"/>
      <point x="208.2" y="623.0"/>
      <point x="175.4" y="722.8"/>
      <point x="101.0" y="750.0" type="curve"/>
      <point x="93.2" y="730.6" type="line"/>
      <point x="158.6" y="706.8"/>
      <point x="189.8" y="614.0"/>
      <point x="189.8" y="494.0" type="curve" smooth="yes"/>
      <point x="189.8" y="268.0"/>
      <point x="88.6" y="-144.0"/>
      <point x="-54.6" y="-201.2" type="curve"/>
      <point x="-51.0" y="-220.0" type="line"/>
      <point x="109.0" y="-149.0"/>
      <point x="208.2" y="249.2"/>
    </contour>
  </outline>
</glyph>
<glyph name="asterisk" format="2">
  <advance width="289.6"/>
  <unicode hex="002A"/>
  <outline>
    <contour>
      <point x="87.4" y="362.6" type="line"/>
      <point x="178.2" y="484.0" type="line"/>
      <point x="229.0" y="363.2" type="line"/>
      <point x="243.2" y="372.4" type="line"/>
      <point x="192.2" y="499.0" type="line"/>
      <point x="315.4" y="549.8" type="line"/>
      <point x="311.8" y="565.4" type="line"/>
      <point x="191.6" y="517.8" type="line"/>
      <point x="215.4" y="669.4" type="line"/>
      <point x="198.6" y="669.4" type="line"/>
      <point x="174.8" y="518.4" type="line"/>
      <point x="68.6" y="566.0" type="line"/>
      <point x="61.4" y="551.0" type="line"/>
      <point x="167.8" y="500.2" type="line"/>
      <point x="74.8" y="373.2" type="line"/>
    </contour>
  </outline>
</glyph>
<glyph name="plus" format="2">
  <advance width="408.8"/>
  <unicode hex="002B"/>
  <outline>
    <contour>
      <point x="163.8" y="72.0" type="line"/>
      <point x="182.4" y="72.0" type="line"/>
      <point x="215.0" y="279.4" type="line"/>
      <point x="361.2" y="279.4" type="line"/>
      <point x="364.2" y="298.0" type="line"/>
      <point x="218.0" y="298.0" type="line"/>
      <point x="251.0" y="506.0" type="line"/>
      <point x="232.4" y="506.0" type="line"/>
      <point x="199.4" y="298.0" type="line"/>
      <point x="52.6" y="298.0" type="line"/>
      <point x="49.6" y="279.4" type="line"/>
      <point x="196.4" y="279.4" type="line"/>
    </contour>
  </outline>
</glyph>
<glyph name="comma" format="2">
  <advance width="140.0"/>
  <unicode hex="002C"/>
  <outline>
    <contour>
      <point x="22.8" y="31.6" type="line"/>
      <point x="25.0" y="20.0"/>
      <point x="25.8" y="7.3999999999999995"/>
      <point x="25.8" y="-4.6000000000000005" type="curve" smooth="yes"/>
      <point x="25.8" y="-69.0"/>
      <point x="-13.399999999999999" y="-154.4"/>
      <point x="-69.4" y="-186.0" type="curve"/>
      <point x="-63.4" y="-201.8" type="line"/>
      <point x="13.400000000000002" y="-158.6"/>
      <point x="45.6" y="-53.400000000000006"/>
      <point x="45.6" y="0.0" type="curve" smooth="yes"/>
      <point x="45.6" y="13.4"/>
      <point x="44.400000000000006" y="25.8"/>
      <point x="41.2" y="39.4" type="curve"/>
    </contour>
  </outline>
</glyph>
<glyph name="hyphen" format="2">
  <advance width="290.2"/>
  <unicode hex="002D"/>
  <outline>
    <contour>
      <point x="38.2" y="253.8" type="line"/>
      <point x="245.4" y="253.8" type="line"/>
      <point x="249.0" y="272.8" type="line"/>
      <point x="41.8" y="272.8" type="line"/>
    </contour>
  </outline>
</glyph>
<glyph name="period" format="2">
  <advance width="140.0"/>
  <unicode hex="002E"/>
  <outline>
    <contour>
      <point x="13.0" y="10.0" type="curve" smooth="yes"/>
      <point x="12.0" y="1.6"/>
      <point x="14.200000000000003" y="0.0"/>
      <point x="24.8" y="0.0" type="curve" smooth="yes"/>
      <point x="41.6" y="0.0"/>
      <point x="42.0" y="1.0"/>
      <point x="45.0" y="24.0" type="curve" smooth="yes"/>
      <point x="46.0" y="33.0"/>
      <point x="42.6" y="34.0"/>
      <point x="32.6" y="34.0" type="curve" smooth="yes"/>
      <point x="17.0" y="34.0"/>
      <point x="16.0" y="33.0"/>
    </contour>
  </outline>
</glyph>
<glyph name="slash" format="2">
  <advance width="287.6"/>
  <unicode hex="002F"/>
  <outline>
    <contour>
      <point x="-66.4" y="-210.0" type="line"/>
      <point x="-46.8" y="-210.0" type="line"/>
      <point x="351.0" y="740.0" type="line"/>
      <point x="331.4" y="740.0" type="line"/>
    </contour>
  </outline>
</glyph>
<glyph name="zero" format="2">
  <advance width="563.6"/>
  <unicode hex="0030"/>
  <outline>
    <contour>
      <point x="251.20000000000002" y="-10.0" type="curve" smooth="yes"/>
      <point x="443.20000000000005" y="-10.0"/>
      <point x="548.0" y="285.6"/>
      <point x="548.0" y="491.0" type="curve" smooth="yes"/>
      <point x="548.0" y="642.8"/>
      <point x="473.8" y="710.0"/>
      <point x="334.8" y="710.0" type="curve" smooth="yes"/>
      <point x="142.4" y="710.0"/>
      <point x="38.400000000000006" y="415.2"/>
      <point x="38.400000000000006" y="209.8" type="curve" smooth="yes"/>
      <point x="38.400000000000006" y="58.0"/>
      <point x="113.0" y="-10.0"/>
    </contour>
    <contour>
      <point x="251.20000000000002" y="9.0" type="curve" smooth="yes"/>
      <point x="124.80000000000001" y="9.0"/>
      <point x="56.8" y="71.0"/>
      <point x="57.400000000000006" y="209.2" type="curve" smooth="yes"/>
      <point x="58.6" y="418.2"/>
      <point x="159.2" y="691.0"/>
      <point x="334.8" y="691.0" type="curve" smooth="yes"/>
      <point x="462.0" y="691.0"/>
      <point x="529.6" y="629.8"/>
      <point x="529.0" y="491.6" type="curve" smooth="yes"/>
      <point x="527.8" y="283.0"/>
      <point x="426.4" y="9.0"/>
    </contour>
  </outline>
</glyph>
<glyph name="one" format="2">
  <advance width="563.6"/>
  <unicode hex="0031"/>
  <outline>
    <contour>
      <point x="29.400000000000006" y="0.0" type="line"/>
      <point x="486.8" y="0.0" type="line"/>
      <point x="489.8" y="19.6" type="line"/>
      <point x="287.20000000000005" y="19.6" type="line"/>
      <point x="396.0" y="704.0" type="line"/>
      <point x="385.0" y="704.0" type="line"/>
      <point x="104.0" y="547.6" type="line"/>
      <point x="111.6" y="532.0" type="line"/>
      <point x="372.20000000000005" y="673.0" type="line"/>
      <point x="268.6" y="19.6" type="line"/>
      <point x="32.400000000000006" y="19.6" type="line"/>
    </contour>
  </outline>
</glyph>
<glyph name="two" format="2">
  <advance width="563.6"/>
  <unicode hex="0032"/>
  <outline>
    <contour>
      <point x="42.800000000000004" y="17.0" type="curve"/>
      <point x="44.0" y="0.0" type="line"/>
      <point x="466.40000000000003" y="0.0" type="line"/>
      <point x="468.2" y="19.0" type="line"/>
      <point x="75.2" y="19.0" type="line"/>
      <point x="347.8" y="216.8"/>
      <point x="468.4" y="395.8"/>
      <point x="468.4" y="565.6" type="curve" smooth="yes"/>
      <point x="468.4" y="662.4"/>
      <point x="400.20000000000005" y="710.0"/>
      <point x="305.4" y="710.0" type="curve" smooth="yes"/>
      <point x="245.60000000000002" y="710.0"/>
      <point x="181.4" y="689.6"/>
      <point x="132.4" y="652.2" type="curve"/>
      <point x="140.4" y="637.2" type="line"/>
      <point x="191.2" y="673.2"/>
      <point x="247.4" y="691.8"/>
      <point x="302.8" y="691.8" type="curve" smooth="yes"/>
      <point x="386.6" y="691.8"/>
      <point x="449.4" y="649.0"/>
      <point x="449.4" y="559.8" type="curve" smooth="yes"/>
      <point x="448.8" y="407.2"/>
      <point x="332.4" y="231.0"/>
    </contour>
  </outline>
</glyph>
<glyph name="four" format="2">
  <advance width="564"/>
  <unicode hex="0034"/>
  <outline>
    <contour>
      <point x="40" y="197" type="line"/>
      <point x="374" y="197" type="line"/>
      <point x="342" y="-3" type="line"/>
      <point x="361" y="-3" type="line"/>
      <point x="392" y="197" type="line"/>
      <point x="509" y="197" type="line"/>
      <point x="512" y="217" type="line"/>
      <point x="395" y="217" type="line"/>
      <point x="471" y="697" type="line"/>
      <point x="459" y="704" type="line"/>
      <point x="38" y="214" type="line"/>
    </contour>
    <contour>
      <point x="64" y="217" type="line"/>
      <point x="449" y="666" type="line"/>
      <point x="377" y="217" type="line"/>
    </contour>
  </outline>
</glyph>
<glyph name="five" format="2">
  <advance width="563.6"/>
  <unicode hex="0035"/>
  <outline>
    <contour>
      <point x="21.200000000000003" y="57.6" type="line"/>
      <point x="68.4" y="15.0"/>
      <point x="128.8" y="-10.0"/>
      <point x="222.4" y="-10.0" type="curve" smooth="yes"/>
      <point x="419.4" y="-10.0"/>
      <point x="488.6" y="135.0"/>
      <point x="488.6" y="247.2" type="curve" smooth="yes"/>
      <point x="488.6" y="340.8"/>
      <point x="435.4" y="392.6"/>
      <point x="323.20000000000005" y="392.6" type="curve" smooth="yes"/>
      <point x="127.0" y="392.6" type="line"/>
      <point x="199.0" y="680.4" type="line"/>
      <point x="518.0" y="680.4" type="line"/>
      <point x="521.4000000000001" y="700.0" type="line"/>
      <point x="184.8" y="700.0" type="line"/>
      <point x="105.2" y="383.6" type="line"/>
      <point x="113.4" y="373.0" type="line"/>
      <point x="315.6" y="373.0" type="line" smooth="yes"/>
      <point x="423.20000000000005" y="373.0"/>
      <point x="468.8" y="329.2"/>
      <point x="468.8" y="243.0" type="curve" smooth="yes"/>
      <point x="468.8" y="141.2"/>
      <point x="389.0" y="9.0"/>
      <point x="226.4" y="9.0" type="curve" smooth="yes"/>
      <point x="135.0" y="9.0"/>
      <point x="79.60000000000001" y="36.2"/>
      <point x="35.800000000000004" y="72.0" type="curve"/>
    </contour>
  </outline>
</glyph>
<glyph name="six" format="2">
  <advance width="564"/>
  <unicode hex="0036"/>
  <note>
14
</note>
  <outline>
    <contour>
      <point x="290" y="-10" type="curve" smooth="yes"/>
      <point x="431" y="-10"/>
      <point x="519" y="87"/>
      <point x="519" y="229" type="curve" smooth="yes"/>
      <point x="519" y="359"/>
      <point x="448" y="414"/>
      <point x="321" y="414" type="curve" smooth="yes"/>
      <point x="236" y="414"/>
      <point x="134" y="383"/>
      <point x="74" y="311" type="curve"/>
      <point x="70" y="280" type="line"/>
      <point x="128" y="356"/>
      <point x="224" y="395"/>
      <point x="321" y="395" type="curve" smooth="yes"/>
      <point x="443" y="395"/>
      <point x="500" y="339"/>
      <point x="500" y="227" type="curve" smooth="yes"/>
      <point x="500" y="97"/>
      <point x="416" y="9"/>
      <point x="290" y="9" type="curve" smooth="yes"/>
      <point x="149" y="9"/>
      <point x="75" y="86"/>
      <point x="75" y="241" type="curve" smooth="yes"/>
      <point x="75" y="398"/>
      <point x="117" y="521"/>
      <point x="189" y="598" type="curve" smooth="yes"/>
      <point x="245" y="659"/>
      <point x="319" y="691"/>
      <point x="405" y="691" type="curve" smooth="yes"/>
      <point x="460" y="691"/>
      <point x="506" y="681"/>
      <point x="550" y="658" type="curve"/>
      <point x="560" y="675" type="line"/>
      <point x="515" y="699"/>
      <point x="463" y="710"/>
      <point x="406" y="710" type="curve" smooth="yes"/>
      <point x="193" y="710"/>
      <point x="56" y="534"/>
      <point x="56" y="236" type="curve" smooth="yes"/>
      <point x="56" y="75"/>
      <point x="136" y="-10"/>
    </contour>
  </outline>
</glyph>
<glyph name="seven" format="2">
  <advance width="563.6"/>
  <unicode hex="0037"/>
  <note>
9
</note>
  <outline>
    <contour>
      <point x="158.0" y="0.0" type="curve"/>
      <point x="178.60000000000002" y="0.0" type="line"/>
      <point x="199.8" y="131.6"/>
      <point x="248.6" y="233.0"/>
      <point x="376.20000000000005" y="428.6" type="curve" smooth="yes"/>
      <point x="541.6" y="682.6" type="line"/>
      <point x="544.6" y="700.0" type="line"/>
      <point x="109.6" y="700.0" type="line"/>
      <point x="106.6" y="680.0" type="line"/>
      <point x="518.2" y="680.0" type="line"/>
      <point x="363.8" y="447.0" type="line" smooth="yes"/>
      <point x="240.6" y="261.0"/>
      <point x="182.4" y="154.8"/>
    </contour>
  </outline>
</glyph>
<glyph name="less" format="2">
  <advance width="409.8"/>
  <unicode hex="003C"/>
  <outline>
    <contour>
      <point x="330.0" y="81.0" type="line"/>
      <point x="333.0" y="102.6" type="line"/>
      <point x="68.2" y="289.0" type="line"/>
      <point x="392.4" y="476.0" type="line"/>
      <point x="395.4" y="499.2" type="line"/>
      <point x="53.8" y="301.4" type="line"/>
      <point x="50.2" y="279.0" type="line"/>
    </contour>
  </outline>
</glyph>
<glyph name="equal" format="2">
  <advance width="409.4"/>
  <unicode hex="003D"/>
  <outline>
    <contour>
      <point x="348.2" y="197.0" type="line"/>
      <point x="36.6" y="197.0" type="line"/>
      <point x="33.6" y="177.8" type="line"/>
      <point x="345.2" y="177.8" type="line"/>
    </contour>
    <contour>
      <point x="380.2" y="403.2" type="line"/>
      <point x="68.6" y="403.2" type="line"/>
      <point x="65.6" y="384.0" type="line"/>
      <point x="377.2" y="384.0" type="line"/>
    </contour>
  </outline>
</glyph>
<glyph name="greater" format="2">
  <advance width="409.8"/>
  <unicode hex="003E"/>
  <outline>
    <contour>
      <point x="361.2" y="277.2" type="line"/>
      <point x="364.8" y="299.6" type="line"/>
      <point x="84.4" y="498.0" type="line"/>
      <point x="81.4" y="476.4" type="line"/>
      <point x="346.8" y="289.6" type="line"/>
      <point x="22.6" y="103.6" type="line"/>
      <point x="19.0" y="79.8" type="line"/>
    </contour>
  </outline>
</glyph>
<glyph name="question" format="2">
  <advance width="394.4"/>
  <unicode hex="003F"/>
  <outline>
    <contour>
      <point x="166.60000000000002" y="262.8" type="line"/>
      <point x="184.60000000000002" y="262.8" type="line"/>
      <point x="196.2" y="336.0" type="line"/>
      <point x="334.4" y="403.2"/>
      <point x="413.20000000000005" y="467.6"/>
      <point x="413.20000000000005" y="611.6" type="curve" smooth="yes"/>
      <point x="413.20000000000005" y="713.0"/>
      <point x="340.0" y="750.0"/>
      <point x="267.6" y="750.0" type="curve" smooth="yes"/>
      <point x="203.8" y="750.0"/>
      <point x="133.6" y="725.8"/>
      <point x="75.2" y="685.0" type="curve"/>
      <point x="83.4" y="671.2" type="line"/>
      <point x="142.2" y="710.6"/>
      <point x="207.8" y="731.8"/>
      <point x="264.6" y="731.8" type="curve" smooth="yes"/>
      <point x="333.8" y="731.8"/>
      <point x="393.4" y="694.8"/>
      <point x="393.4" y="607.8" type="curve" smooth="yes"/>
      <point x="393.4" y="496.8"/>
      <point x="339.8" y="418.4"/>
      <point x="180.2" y="347.8" type="curve"/>
    </contour>
    <contour>
      <point x="124.60000000000001" y="8.8" type="curve" smooth="yes"/>
      <point x="124.0" y="1.6"/>
      <point x="126.2" y="0.0"/>
      <point x="136.4" y="0.0" type="curve" smooth="yes"/>
      <point x="152.4" y="0.0"/>
      <point x="154.8" y="1.0"/>
      <point x="156.60000000000002" y="24.8" type="curve" smooth="yes"/>
      <point x="157.2" y="33.0"/>
      <point x="153.8" y="34.0"/>
      <point x="144.2" y="34.0" type="curve" smooth="yes"/>
      <point x="129.4" y="34.0"/>
      <point x="126.4" y="33.0"/>
    </contour>
  </outline>
</glyph>
<glyph name="B" format="2">
  <advance width="550.8"/>
  <unicode hex="0042"/>
  <outline>
    <contour>
      <point x="36.800000000000004" y="-1.5999999999999996" type="line"/>
      <point x="123.60000000000001" y="-7.4"/>
      <point x="172.8" y="-10.0"/>
      <point x="233.60000000000002" y="-10.0" type="curve" smooth="yes"/>
      <point x="373.8" y="-10.0"/>
      <point x="496.40000000000003" y="79.8"/>
      <point x="496.40000000000003" y="228.0" type="curve" smooth="yes"/>
      <point x="496.40000000000003" y="305.6"/>
      <point x="446.20000000000005" y="353.0"/>
      <point x="375.8" y="362.8" type="curve"/>
      <point x="463.0" y="387.0"/>
      <point x="520.2" y="490.4"/>
      <point x="520.2" y="582.2" type="curve" smooth="yes"/>
      <point x="520.2" y="675.2"/>
      <point x="459.8" y="710.0"/>
      <point x="332.6" y="710.0" type="curve" smooth="yes"/>
      <point x="288.6" y="710.0"/>
      <point x="239.8" y="707.2"/>
      <point x="147.6" y="700.4" type="curve"/>
    </contour>
    <contour>
      <point x="114.80000000000001" y="370.0" type="line"/>
      <point x="164.2" y="683.6" type="line"/>
      <point x="221.4" y="688.2"/>
      <point x="276.0" y="692.0"/>
      <point x="330.6" y="692.0" type="curve" smooth="yes"/>
      <point x="443.6" y="692.0"/>
      <point x="500.8" y="664.2"/>
      <point x="500.8" y="577.0" type="curve" smooth="yes"/>
      <point x="500.8" y="474.8"/>
      <point x="414.0" y="370.0"/>
      <point x="320.20000000000005" y="370.0" type="curve" smooth="yes"/>
    </contour>
    <contour>
      <point x="111.80000000000001" y="351.4" type="line"/>
      <point x="330.6" y="351.4" type="line" smooth="yes"/>
      <point x="394.8" y="351.4"/>
      <point x="477.40000000000003" y="317.4"/>
      <point x="477.40000000000003" y="225.0" type="curve" smooth="yes"/>
      <point x="477.40000000000003" y="89.19999999999999"/>
      <point x="365.4" y="9.0"/>
      <point x="236.60000000000002" y="9.0" type="curve" smooth="yes"/>
      <point x="168.8" y="9.0"/>
      <point x="127.60000000000001" y="12.8"/>
      <point x="58.800000000000004" y="16.8" type="curve"/>
    </contour>
  </outline>
</glyph>
<glyph name="C" format="2">
  <advance width="544.2"/>
  <unicode hex="0043"/>
  <anchor x="302.20000000000005" y="0.0" name="bottom"/>
  <anchor x="396.4" y="700.0" name="top"/>
  <outline>
    <contour>
      <point x="308.6" y="-10.0" type="curve" smooth="yes"/>
      <point x="377.6" y="-10.0"/>
      <point x="434.8" y="-1.3999999999999995"/>
      <point x="478.2" y="15.2" type="curve"/>
      <point x="472.8" y="32.2" type="line"/>
      <point x="429.8" y="17.0"/>
      <point x="374.20000000000005" y="9.0"/>
      <point x="310.4" y="9.0" type="curve" smooth="yes"/>
      <point x="158.0" y="9.0"/>
      <point x="72.0" y="80.4"/>
      <point x="72.0" y="224.2" type="curve" smooth="yes"/>
      <point x="72.0" y="493.0"/>
      <point x="198.0" y="691.0"/>
      <point x="392.4" y="691.0" type="curve" smooth="yes"/>
      <point x="451.20000000000005" y="691.0"/>
      <point x="498.0" y="684.0"/>
      <point x="556.0" y="667.6" type="curve"/>
      <point x="562.6" y="685.6" type="line"/>
      <point x="507.0" y="703.0"/>
      <point x="457.8" y="710.0"/>
      <point x="395.8" y="710.0" type="curve" smooth="yes"/>
      <point x="185.0" y="710.0"/>
      <point x="53.0" y="512.0"/>
      <point x="53.0" y="223.6" type="curve" smooth="yes"/>
      <point x="53.0" y="66.8"/>
      <point x="143.2" y="-10.0"/>
    </contour>
  </outline>
</glyph>
<glyph name="D" format="2">
  <advance width="599.6"/>
  <unicode hex="0044"/>
  <anchor x="235.6" y="0.0" name="bottom"/>
  <anchor x="298.8" y="350.0" name="center"/>
  <anchor x="335.6" y="700.0" name="top"/>
  <outline>
    <contour>
      <point x="208.8" y="-10.0" type="curve" smooth="yes"/>
      <point x="412.4" y="-10.0"/>
      <point x="566.4000000000001" y="160.8"/>
      <point x="566.4000000000001" y="435.4" type="curve" smooth="yes"/>
      <point x="566.4000000000001" y="650.2"/>
      <point x="442.4" y="710.0"/>
      <point x="300.20000000000005" y="710.0" type="curve" smooth="yes"/>
      <point x="245.0" y="710.0"/>
      <point x="199.60000000000002" y="708.2"/>
      <point x="147.6" y="704.2" type="curve"/>
      <point x="36.0" y="-3.5999999999999996" type="line"/>
      <point x="97.80000000000001" y="-9.0"/>
      <point x="138.60000000000002" y="-10.0"/>
    </contour>
    <contour>
      <point x="207.20000000000002" y="7.8" type="curve" smooth="yes"/>
      <point x="150.2" y="7.8"/>
      <point x="108.2" y="9.2"/>
      <point x="57.400000000000006" y="13.2" type="curve"/>
      <point x="164.2" y="686.0" type="line"/>
      <point x="196.0" y="689.0"/>
      <point x="252.2" y="691.0"/>
      <point x="300.20000000000005" y="691.0" type="curve" smooth="yes"/>
      <point x="428.4" y="691.0"/>
      <point x="547.0" y="638.8"/>
      <point x="547.0" y="433.4" type="curve" smooth="yes"/>
      <point x="547.0" y="174.2"/>
      <point x="400.6" y="7.8"/>
    </contour>
  </outline>
</glyph>
<glyph name="E" format="2">
  <advance width="495.40000000000003"/>
  <unicode hex="0045"/>
  <anchor x="231.20000000000002" y="0.0" name="bottom"/>
  <anchor x="421.20000000000005" y="0.0" name="ogonek"/>
  <anchor x="333.0" y="700.0" name="top"/>
  <anchor x="97.8" y="700.0" name="topleft"/>
  <outline>
    <contour>
      <point x="36.6" y="0.0" type="line"/>
      <point x="421.20000000000005" y="0.0" type="line"/>
      <point x="424.20000000000005" y="19.0" type="line"/>
      <point x="58.6" y="19.0" type="line"/>
      <point x="113.2" y="362.0" type="line"/>
      <point x="442.20000000000005" y="362.0" type="line"/>
      <point x="445.20000000000005" y="381.0" type="line"/>
      <point x="115.80000000000001" y="381.0" type="line"/>
      <point x="163.0" y="681.0" type="line"/>
      <point x="512.4" y="681.0" type="line"/>
      <point x="516.0" y="700.0" type="line"/>
      <point x="147.0" y="700.0" type="line"/>
    </contour>
  </outline>
</glyph>
<glyph name="F" format="2">
  <advance width="469.0"/>
  <unicode hex="0046"/>
  <outline>
    <contour>
      <point x="36.6" y="0.0" type="line"/>
      <point x="55.0" y="0.0" type="line"/>
      <point x="108.2" y="331.6" type="line"/>
      <point x="411.6" y="331.6" type="line"/>
      <point x="414.20000000000005" y="350.6" type="line"/>
      <point x="110.80000000000001" y="350.6" type="line"/>
      <point x="163.0" y="681.0" type="line"/>
      <point x="513.0" y="681.0" type="line"/>
      <point x="516.0" y="700.0" type="line"/>
      <point x="147.0" y="700.0" type="line"/>
    </contour>
  </outline>
</glyph>
<glyph name="G" format="2">
  <advance width="561.6"/>
  <unicode hex="0047"/>
  <anchor x="277.6" y="0.0" name="bottom"/>
  <anchor x="392.0" y="700.0" name="top"/>
  <outline>
    <contour>
      <point x="296.20000000000005" y="-10.0" type="curve" smooth="yes"/>
      <point x="364.20000000000005" y="-10.0"/>
      <point x="424.6" y="3.4000000000000004"/>
      <point x="463.40000000000003" y="19.0" type="curve"/>
      <point x="512.2" y="327.0" type="line"/>
      <point x="304.20000000000005" y="327.0" type="line"/>
      <point x="301.20000000000005" y="308.0" type="line"/>
      <point x="490.2" y="308.0" type="line"/>
      <point x="446.40000000000003" y="33.2" type="line"/>
      <point x="410.6" y="18.4"/>
      <point x="358.6" y="9.0"/>
      <point x="299.6" y="9.0" type="curve" smooth="yes"/>
      <point x="168.0" y="9.0"/>
      <point x="71.6" y="75.6"/>
      <point x="71.6" y="224.2" type="curve" smooth="yes"/>
      <point x="71.6" y="495.4"/>
      <point x="200.8" y="691.0"/>
      <point x="390.8" y="691.0" type="curve" smooth="yes"/>
      <point x="447.6" y="691.0"/>
      <point x="490.4" y="684.0"/>
      <point x="547.6" y="667.2" type="curve"/>
      <point x="554.2" y="684.8" type="line"/>
      <point x="509.6" y="700.2"/>
      <point x="452.6" y="710.0"/>
      <point x="394.20000000000005" y="710.0" type="curve" smooth="yes"/>
      <point x="187.2" y="710.0"/>
      <point x="52.6" y="514.8"/>
      <point x="52.6" y="221.6" type="curve" smooth="yes"/>
      <point x="52.6" y="62.8"/>
      <point x="153.2" y="-10.0"/>
    </contour>
  </outline>
</glyph>
<glyph name="H" format="2">
  <advance width="619.8"/>
  <unicode hex="0048"/>
  <anchor x="266.5776" y="0.0" name="bottom"/>
  <anchor x="322.3516" y="350.0" name="center"/>
  <anchor x="377.52520000000004" y="700.0" name="top"/>
  <anchor x="85.9252" y="700.0" name="topleft"/>
  <outline>
    <contour>
      <point x="36.6" y="0.0" type="line"/>
      <point x="56.2" y="0.0" type="line"/>
      <point x="102.2" y="291.0" type="line"/>
      <point x="522.8" y="291.0" type="line"/>
      <point x="476.8" y="0.0" type="line"/>
      <point x="495.8" y="0.0" type="line"/>
      <point x="606.8" y="700.0" type="line"/>
      <point x="587.8" y="700.0" type="line"/>
      <point x="525.8" y="310.0" type="line"/>
      <point x="104.6" y="310.0" type="line"/>
      <point x="166.6" y="700.0" type="line"/>
      <point x="147.0" y="700.0" type="line"/>
    </contour>
  </outline>
</glyph>
<glyph name="I" format="2">
  <advance width="179.60000000000002"/>
  <unicode hex="0049"/>
  <anchor x="46.177600000000005" y="0.0" name="bottom"/>
  <anchor x="55.6" y="0.0" name="ogonek"/>
  <anchor x="157.1252" y="700.0" name="top"/>
  <anchor x="97.8" y="700.0" name="topleft"/>
  <outline>
    <contour>
      <point x="36.6" y="0.0" type="line"/>
      <point x="55.6" y="0.0" type="line"/>
      <point x="166.6" y="700.0" type="line"/>
      <point x="147.0" y="700.0" type="line"/>
    </contour>
  </outline>
</glyph>
<glyph name="J" format="2">
  <advance width="410.20000000000005"/>
  <unicode hex="004A"/>
  <anchor x="131.0" y="0.0" name="bottom"/>
  <anchor x="266.6" y="700.0" name="top"/>
  <outline>
    <contour>
      <point x="-25.4" y="14.600000000000001" type="line"/>
      <point x="7.800000000000001" y="2.8000000000000007"/>
      <point x="46.400000000000006" y="-10.0"/>
      <point x="113.60000000000001" y="-10.0" type="curve" smooth="yes"/>
      <point x="232.20000000000002" y="-10.0"/>
      <point x="304.20000000000005" y="53.8"/>
      <point x="323.8" y="174.8" type="curve" smooth="yes"/>
      <point x="407.0" y="700.0" type="line"/>
      <point x="117.0" y="700.0" type="line"/>
      <point x="114.0" y="681.0" type="line"/>
      <point x="385.0" y="681.0" type="line"/>
      <point x="303.8" y="173.0" type="line" smooth="yes"/>
      <point x="285.20000000000005" y="55.8"/>
      <point x="211.0" y="9.0"/>
      <point x="116.0" y="9.0" type="curve" smooth="yes"/>
      <point x="50.400000000000006" y="9.0"/>
      <point x="11.8" y="22.8"/>
      <point x="-20.4" y="34.6" type="curve"/>
    </contour>
  </outline>
</glyph>
<glyph name="L" format="2">
  <advance width="439.4"/>
  <unicode hex="004C"/>
  <anchor x="211.0" y="0.0" name="bottom"/>
  <anchor x="224.9516" y="350.0" name="center"/>
  <anchor x="156.0" y="700.0" name="top"/>
  <anchor x="365.8" y="700.0" name="topright"/>
  <outline>
    <contour>
      <point x="36.0" y="0.0" type="line"/>
      <point x="385.0" y="0.0" type="line"/>
      <point x="388.0" y="19.0" type="line"/>
      <point x="58.0" y="19.0" type="line"/>
      <point x="166.0" y="700.0" type="line"/>
      <point x="147.0" y="700.0" type="line"/>
    </contour>
  </outline>
</glyph>
<glyph name="M" format="2">
  <advance width="691"/>
  <unicode hex="004D"/>
  <outline>
    <contour>
      <point x="36" y="0" type="line"/>
      <point x="56" y="0" type="line"/>
      <point x="160" y="670" type="line"/>
      <point x="339" y="283" type="line"/>
      <point x="354" y="283" type="line"/>
      <point x="656" y="670" type="line"/>
      <point x="548" y="0" type="line"/>
      <point x="567" y="0" type="line"/>
      <point x="678" y="700" type="line"/>
      <point x="655" y="700" type="line"/>
      <point x="350" y="306" type="line"/>
      <point x="168" y="700" type="line"/>
      <point x="147" y="700" type="line"/>
    </contour>
  </outline>
</glyph>
<glyph name="N" format="2">
  <advance width="619"/>
  <unicode hex="004E"/>
  <anchor x="267" y="0" name="bottom"/>
  <anchor x="378" y="700" name="top"/>
  <outline>
    <contour>
      <point x="37" y="0" type="line"/>
      <point x="57" y="0" type="line"/>
      <point x="162" y="672" type="line"/>
      <point x="477" y="-4" type="line"/>
      <point x="495" y="-4" type="line"/>
      <point x="606" y="700" type="line"/>
      <point x="587" y="700" type="line"/>
      <point x="482" y="29" type="line"/>
      <point x="168" y="704" type="line"/>
      <point x="148" y="704" type="line"/>
    </contour>
  </outline>
</glyph>
<glyph name="O" format="2">
  <advance width="630"/>
  <unicode hex="004F"/>
  <note>
8
</note>
  <anchor x="278" y="0" name="bottom"/>
  <anchor x="334" y="350" name="center"/>
  <anchor x="335" y="0" name="ogonek"/>
  <anchor x="384" y="700" name="top"/>
  <anchor x="96" y="700" name="topleft"/>
  <anchor x="493" y="681" name="topright"/>
  <outline>
    <contour>
      <point x="287" y="-10" type="curve" smooth="yes"/>
      <point x="476" y="-10"/>
      <point x="593" y="158"/>
      <point x="593" y="431" type="curve" smooth="yes"/>
      <point x="593" y="612"/>
      <point x="513" y="710"/>
      <point x="367" y="710" type="curve" smooth="yes"/>
      <point x="178" y="710"/>
      <point x="61" y="542"/>
      <point x="61" y="269" type="curve" smooth="yes"/>
      <point x="61" y="88"/>
      <point x="141" y="-10"/>
    </contour>
    <contour>
      <point x="286" y="8" type="curve" smooth="yes"/>
      <point x="155" y="8"/>
      <point x="80" y="105"/>
      <point x="80" y="272" type="curve" smooth="yes"/>
      <point x="80" y="529"/>
      <point x="192" y="692"/>
      <point x="368" y="692" type="curve" smooth="yes"/>
      <point x="499" y="692"/>
      <point x="574" y="595"/>
      <point x="574" y="428" type="curve" smooth="yes"/>
      <point x="574" y="171"/>
      <point x="462" y="8"/>
    </contour>
  </outline>
</glyph>
<glyph name="P" format="2">
  <advance width="537"/>
  <unicode hex="0050"/>
  <outline>
    <contour>
      <point x="37" y="0" type="line"/>
      <point x="56" y="0" type="line"/>
      <point x="100" y="277" type="line"/>
      <point x="157" y="275"/>
      <point x="194" y="274"/>
      <point x="265" y="274" type="curve" smooth="yes"/>
      <point x="442" y="274"/>
      <point x="535" y="361"/>
      <point x="536" y="530" type="curve" smooth="yes"/>
      <point x="536" y="650"/>
      <point x="467" y="710"/>
      <point x="302" y="710" type="curve" smooth="yes"/>
      <point x="273" y="710"/>
      <point x="240" y="708"/>
      <point x="148" y="702" type="curve"/>
    </contour>
    <contour>
      <point x="164" y="685" type="line"/>
      <point x="229" y="689"/>
      <point x="266" y="691"/>
      <point x="299" y="691" type="curve" smooth="yes"/>
      <point x="456" y="691"/>
      <point x="517" y="641"/>
      <point x="517" y="526" type="curve" smooth="yes"/>
      <point x="517" y="376"/>
      <point x="438" y="293"/>
      <point x="268" y="293" type="curve" smooth="yes"/>
      <point x="213" y="293"/>
      <point x="168" y="295"/>
      <point x="103" y="297" type="curve"/>
    </contour>
  </outline>
</glyph>
<glyph name="Q" format="2">
  <advance width="634.4000000000001"/>
  <unicode hex="0051"/>
  <note>
14
</note>
  <outline>
    <contour>
      <point x="435.20000000000005" y="-196.0" type="curve" smooth="yes"/>
      <point x="468.6" y="-196.0"/>
      <point x="497.6" y="-189.0"/>
      <point x="524.0" y="-175.0" type="curve"/>
      <point x="518.4000000000001" y="-158.0" type="line"/>
      <point x="491.6" y="-171.6"/>
      <point x="464.6" y="-177.6"/>
      <point x="436.0" y="-177.6" type="curve" smooth="yes"/>
      <point x="362.8" y="-177.6"/>
      <point x="301.20000000000005" y="-128.4"/>
      <point x="287.4" y="-2.0" type="curve"/>
      <point x="268.6" y="-2.8" type="line"/>
      <point x="286.4" y="-142.6"/>
      <point x="355.6" y="-196.0"/>
    </contour>
    <component base="O"/>
  </outline>
</glyph>
<glyph name="T" format="2">
  <advance width="442.8"/>
  <unicode hex="0054"/>
  <anchor x="177.4" y="0.0" name="bottom"/>
  <anchor x="233.35160000000002" y="350.0" name="center"/>
  <anchor x="288.5252" y="700.0" name="top"/>
  <outline>
    <contour>
      <point x="500.6" y="681.0" type="line"/>
      <point x="503.6" y="700.0" type="line"/>
      <point x="73.2" y="700.0" type="line"/>
      <point x="70.2" y="681.0" type="line"/>
      <point x="275.8" y="681.0" type="line"/>
      <point x="167.8" y="0.0" type="line"/>
      <point x="186.8" y="0.0" type="line"/>
      <point x="294.8" y="681.0" type="line"/>
    </contour>
  </outline>
</glyph>
<glyph name="U" format="2">
  <advance width="600.4000000000001"/>
  <unicode hex="0055"/>
  <anchor x="256.4" y="0.0" name="bottom"/>
  <anchor x="300.20000000000005" y="0.0" name="ogonek"/>
  <anchor x="364.6" y="700.0" name="top"/>
  <anchor x="597.2" y="700.0" name="topright"/>
  <outline>
    <contour>
      <point x="254.4" y="-10.0" type="curve" smooth="yes"/>
      <point x="408.6" y="-10.0"/>
      <point x="494.8" y="56.8"/>
      <point x="516.8" y="194.4" type="curve" smooth="yes"/>
      <point x="597.2" y="700.0" type="line"/>
      <point x="577.6" y="700.0" type="line"/>
      <point x="496.8" y="194.4" type="line" smooth="yes"/>
      <point x="477.40000000000003" y="71.2"/>
      <point x="398.4" y="9.0"/>
      <point x="258.6" y="9.0" type="curve" smooth="yes"/>
      <point x="126.2" y="9.0"/>
      <point x="58.2" y="71.8"/>
      <point x="76.0" y="183.60000000000002" type="curve" smooth="yes"/>
      <point x="156.6" y="700.0" type="line"/>
      <point x="137.6" y="700.0" type="line"/>
      <point x="56.400000000000006" y="183.4" type="line" smooth="yes"/>
      <point x="53.6" y="165.2"/>
      <point x="53.2" y="158.4"/>
      <point x="53.2" y="144.2" type="curve" smooth="yes"/>
      <point x="53.2" y="45.2"/>
      <point x="126.0" y="-10.0"/>
    </contour>
  </outline>
</glyph>
<glyph name="V" format="2">
  <advance width="503"/>
  <unicode hex="0056"/>
  <outline>
    <contour>
      <point x="211" y="0" type="line"/>
      <point x="495" y="510"/>
      <point x="540" y="604"/>
      <point x="540" y="668" type="curve" smooth="yes"/>
      <point x="540" y="679"/>
      <point x="539" y="689"/>
      <point x="536" y="700" type="curve"/>
      <point x="518" y="700" type="line"/>
      <point x="520" y="688"/>
      <point x="521" y="678"/>
      <point x="521" y="670" type="curve" smooth="yes"/>
      <point x="521" y="608"/>
      <point x="478" y="522"/>
      <point x="205" y="26" type="curve"/>
      <point x="94" y="704" type="line"/>
      <point x="75" y="701" type="line"/>
      <point x="189" y="0" type="line"/>
    </contour>
  </outline>
</glyph>
<glyph name="X" format="2">
  <advance width="523"/>
  <unicode hex="0058"/>
  <outline>
    <contour>
      <point x="466" y="-7" type="line"/>
      <point x="482" y="1" type="line"/>
      <point x="287" y="360" type="line"/>
      <point x="440" y="487"/>
      <point x="524" y="576"/>
      <point x="542" y="702" type="curve"/>
      <point x="525" y="705" type="line"/>
      <point x="502" y="580"/>
      <point x="436" y="510"/>
      <point x="279" y="376" type="curve"/>
      <point x="99" y="707" type="line"/>
      <point x="83" y="698" type="line"/>
      <point x="264" y="365" type="line"/>
      <point x="106" y="247"/>
      <point x="28" y="158"/>
      <point x="7" y="0" type="curve"/>
      <point x="26" y="0" type="line"/>
      <point x="47" y="145"/>
      <point x="115" y="228"/>
      <point x="273" y="349" type="curve"/>
    </contour>
  </outline>
</glyph>
<glyph name="bracketleft" format="2">
  <advance width="281.2"/>
  <unicode hex="005B"/>
  <outline>
    <contour>
      <point x="44.0" y="-192.0" type="line"/>
      <point x="189.0" y="722.4" type="line"/>
      <point x="338.4" y="722.4" type="line"/>
      <point x="341.4" y="740.0" type="line"/>
      <point x="172.4" y="740.0" type="line"/>
      <point x="22.0" y="-210.0" type="line"/>
      <point x="190.4" y="-210.0" type="line"/>
      <point x="193.4" y="-192.0" type="line"/>
    </contour>
  </outline>
</glyph>
<glyph name="backslash" format="2">
  <advance width="343.0"/>
  <unicode hex="005C"/>
  <outline>
    <contour>
      <point x="104.8" y="740.0" type="line"/>
      <point x="86.0" y="740.0" type="line"/>
      <point x="271.2" y="-210.0" type="line"/>
      <point x="290.0" y="-210.0" type="line"/>
    </contour>
  </outline>
</glyph>
<glyph name="bracketright" format="2">
  <advance width="281.2"/>
  <unicode hex="005D"/>
  <outline>
    <contour>
      <point x="-59.2" y="-192.0" type="line"/>
      <point x="-62.2" y="-210.0" type="line"/>
      <point x="105.2" y="-210.0" type="line"/>
      <point x="256.2" y="740.0" type="line"/>
      <point x="87.8" y="740.0" type="line"/>
      <point x="84.8" y="722.0" type="line"/>
      <point x="234.2" y="722.0" type="line"/>
      <point x="89.2" y="-192.0" type="line"/>
    </contour>
  </outline>
</glyph>
<glyph name="asciicircum" format="2">
  <advance width="407.8"/>
  <unicode hex="005E"/>
  <outline>
    <contour>
      <point x="44.0" y="277.8" type="line"/>
      <point x="63.8" y="277.8" type="line"/>
      <point x="268.8" y="686.8" type="line"/>
      <point x="346.0" y="277.8" type="line"/>
      <point x="365.0" y="277.8" type="line"/>
      <point x="281.4" y="710.0" type="line"/>
      <point x="262.2" y="710.0" type="line"/>
    </contour>
  </outline>
</glyph>
<glyph name="underscore" format="2">
  <advance width="739.2"/>
  <unicode hex="005F"/>
  <outline>
    <contour>
      <point x="-55.8" y="-136.0" type="line"/>
      <point x="665.0" y="-136.0" type="line"/>
      <point x="668.0" y="-116.8" type="line"/>
      <point x="-52.8" y="-116.8" type="line"/>
    </contour>
  </outline>
</glyph>
<glyph name="a" format="2">
  <advance width="467.20000000000005"/>
  <unicode hex="0061"/>
  <note>
15
</note>
  <anchor x="187.0" y="0.0" name="bottom"/>
  <anchor x="429.0" y="0.0" name="ogonek"/>
  <anchor x="283.2" y="530.0" name="top"/>
  <outline>
    <contour>
      <point x="388.6" y="-10.0" type="curve" smooth="yes"/>
      <point x="403.0" y="-10.0"/>
      <point x="417.0" y="-6.8"/>
      <point x="429.4" y="-1.2000000000000002" type="curve"/>
      <point x="425.6" y="14.0" type="line"/>
      <point x="414.4" y="9.4"/>
      <point x="404.20000000000005" y="6.8"/>
      <point x="392.6" y="6.8" type="curve" smooth="yes"/>
      <point x="367.20000000000005" y="6.8"/>
      <point x="355.6" y="21.6"/>
      <point x="355.6" y="52.0" type="curve" smooth="yes"/>
      <point x="355.6" y="59.6"/>
      <point x="372.8" y="169.8"/>
      <point x="427.8" y="512.8" type="curve"/>
      <point x="394.8" y="530.0"/>
      <point x="350.20000000000005" y="540.0"/>
      <point x="306.8" y="540.0" type="curve" smooth="yes"/>
      <point x="141.4" y="540.0"/>
      <point x="31.8" y="384.6"/>
      <point x="31.8" y="166.2" type="curve" smooth="yes"/>
      <point x="31.8" y="51.6"/>
      <point x="86.0" y="-10.0"/>
      <point x="183.4" y="-10.0" type="curve" smooth="yes"/>
      <point x="238.4" y="-10.0"/>
      <point x="297.6" y="10.8"/>
      <point x="338.6" y="40.400000000000006" type="curve"/>
      <point x="341.0" y="9.600000000000001"/>
      <point x="359.6" y="-10.0"/>
    </contour>
    <contour>
      <point x="336.0" y="58.0" type="line"/>
      <point x="294.6" y="28.4"/>
      <point x="236.0" y="8.4"/>
      <point x="184.8" y="8.4" type="curve" smooth="yes"/>
      <point x="99.6" y="8.4"/>
      <point x="51.2" y="65.2"/>
      <point x="51.2" y="168.6" type="curve" smooth="yes"/>
      <point x="51.2" y="382.0"/>
      <point x="157.8" y="522.6"/>
      <point x="301.8" y="522.6" type="curve" smooth="yes"/>
      <point x="344.20000000000005" y="522.6"/>
      <point x="379.8" y="515.6"/>
      <point x="406.0" y="502.0" type="curve"/>
    </contour>
  </outline>
</glyph>
<glyph name="b" format="2">
  <advance width="469.6"/>
  <unicode hex="0062"/>
  <note>
12
</note>
  <outline>
    <contour>
      <point x="170.8" y="740.0" type="line"/>
      <point x="151.8" y="740.0" type="line"/>
      <point x="36.6" y="10.8" type="line"/>
      <point x="77.4" y="-1.5999999999999996"/>
      <point x="118.4" y="-10.0"/>
      <point x="166.4" y="-10.0" type="curve" smooth="yes"/>
      <point x="320.20000000000005" y="-10.0"/>
      <point x="436.4" y="168.6"/>
      <point x="436.4" y="367.4" type="curve" smooth="yes"/>
      <point x="436.4" y="479.8"/>
      <point x="390.0" y="540.0"/>
      <point x="296.4" y="540.0" type="curve" smooth="yes"/>
      <point x="234.2" y="540.0"/>
      <point x="182.6" y="513.8"/>
      <point x="129.0" y="478.6" type="curve"/>
    </contour>
    <contour>
      <point x="293.20000000000005" y="521.6" type="curve" smooth="yes"/>
      <point x="380.4" y="521.6"/>
      <point x="417.4" y="456.6"/>
      <point x="417.4" y="364.4" type="curve" smooth="yes"/>
      <point x="417.4" y="175.6"/>
      <point x="307.0" y="8.4"/>
      <point x="166.0" y="8.4" type="curve" smooth="yes"/>
      <point x="122.60000000000001" y="8.4"/>
      <point x="84.0" y="16.6"/>
      <point x="58.0" y="24.6" type="curve"/>
      <point x="126.0" y="456.4" type="line"/>
      <point x="186.60000000000002" y="500.2"/>
      <point x="241.8" y="521.6"/>
    </contour>
  </outline>
</glyph>
<glyph name="c" format="2">
  <advance width="409.0"/>
  <unicode hex="0063"/>
  <note>
10
</note>
  <anchor x="213.4" y="0.0" name="bottom"/>
  <anchor x="293.0" y="530.0" name="top"/>
  <outline>
    <contour>
      <point x="209.8" y="-10.0" type="curve" smooth="yes"/>
      <point x="269.20000000000005" y="-10.0"/>
      <point x="312.20000000000005" y="-0.5999999999999996"/>
      <point x="349.0" y="11.200000000000001" type="curve"/>
      <point x="345.20000000000005" y="28.0" type="line"/>
      <point x="309.8" y="16.8"/>
      <point x="268.4" y="7.8"/>
      <point x="213.4" y="7.8" type="curve" smooth="yes"/>
      <point x="113.0" y="7.8"/>
      <point x="51.8" y="63.0"/>
      <point x="51.8" y="159.8" type="curve" smooth="yes"/>
      <point x="51.8" y="360.2"/>
      <point x="154.8" y="521.0"/>
      <point x="291.8" y="521.0" type="curve" smooth="yes"/>
      <point x="334.4" y="521.0"/>
      <point x="373.20000000000005" y="515.2"/>
      <point x="414.20000000000005" y="502.2" type="curve"/>
      <point x="420.8" y="521.0" type="line"/>
      <point x="377.0" y="534.0"/>
      <point x="337.8" y="540.0"/>
      <point x="294.8" y="540.0" type="curve" smooth="yes"/>
      <point x="142.8" y="540.0"/>
      <point x="33.400000000000006" y="377.2"/>
      <point x="33.400000000000006" y="158.2" type="curve" smooth="yes"/>
      <point x="33.400000000000006" y="53.0"/>
      <point x="99.6" y="-10.0"/>
    </contour>
  </outline>
</glyph>
<glyph name="d" format="2">
  <advance width="471.0"/>
  <unicode hex="0064"/>
  <note>
17
</note>
  <anchor x="180.4" y="0.0" name="bottom"/>
  <anchor x="238.4" y="332.0" name="center"/>
  <anchor x="305.0" y="740.0" name="top"/>
  <anchor x="549.0" y="740.0" name="topright"/>
  <outline>
    <contour>
      <point x="388.6" y="-10.0" type="curve" smooth="yes"/>
      <point x="399.8" y="-10.0"/>
      <point x="413.4" y="-7.4"/>
      <point x="427.8" y="-1.2000000000000002" type="curve"/>
      <point x="422.8" y="14.0" type="line"/>
      <point x="412.8" y="10.0"/>
      <point x="401.4" y="6.8"/>
      <point x="389.20000000000005" y="6.8" type="curve" smooth="yes"/>
      <point x="365.8" y="6.8"/>
      <point x="352.8" y="21.0"/>
      <point x="352.8" y="48.400000000000006" type="curve" smooth="yes"/>
      <point x="352.8" y="55.6"/>
      <point x="400.20000000000005" y="349.40000000000003"/>
      <point x="462.0" y="740.0" type="curve"/>
      <point x="443.0" y="740.0" type="line"/>
      <point x="408.8" y="524.8" type="line"/>
      <point x="377.6" y="532.6"/>
      <point x="344.20000000000005" y="540.0"/>
      <point x="298.4" y="540.0" type="curve" smooth="yes"/>
      <point x="141.0" y="540.0"/>
      <point x="30.6" y="373.2"/>
      <point x="30.6" y="154.8" type="curve" smooth="yes"/>
      <point x="30.6" y="45.6"/>
      <point x="88.4" y="-10.0"/>
      <point x="178.8" y="-10.0" type="curve" smooth="yes"/>
      <point x="233.0" y="-10.0"/>
      <point x="298.6" y="12.0"/>
      <point x="335.4" y="38.400000000000006" type="curve"/>
      <point x="338.8" y="7.0"/>
      <point x="357.0" y="-10.0"/>
    </contour>
    <contour>
      <point x="180.0" y="9.0" type="curve" smooth="yes"/>
      <point x="101.4" y="9.0"/>
      <point x="49.400000000000006" y="61.4"/>
      <point x="49.400000000000006" y="154.4" type="curve" smooth="yes"/>
      <point x="49.400000000000006" y="355.4"/>
      <point x="153.4" y="522.6"/>
      <point x="295.8" y="522.6" type="curve" smooth="yes"/>
      <point x="343.20000000000005" y="522.6"/>
      <point x="376.4" y="514.4"/>
      <point x="405.8" y="507.0" type="curve"/>
      <point x="334.6" y="55.400000000000006" type="line"/>
      <point x="292.4" y="27.4"/>
      <point x="234.8" y="9.0"/>
    </contour>
  </outline>
</glyph>
<glyph name="e" format="2">
  <advance width="441.0"/>
  <unicode hex="0065"/>
  <note>
14 points
</note>
  <anchor x="216.2" y="0.0" name="bottom"/>
  <anchor x="314.4" y="5.2" name="ogonek"/>
  <anchor x="297.6" y="531.2" name="top"/>
  <outline>
    <contour>
      <point x="54.6" y="270.0" type="curve"/>
      <point x="51.2" y="252.4" type="line"/>
      <point x="96.0" y="250.0"/>
      <point x="152.2" y="252.0"/>
      <point x="204.0" y="261.0" type="curve" smooth="yes"/>
      <point x="349.0" y="286.2"/>
      <point x="435.0" y="348.4"/>
      <point x="435.0" y="440.8" type="curve" smooth="yes"/>
      <point x="435.0" y="502.4"/>
      <point x="384.0" y="540.0"/>
      <point x="296.4" y="540.0" type="curve" smooth="yes"/>
      <point x="143.0" y="540.0"/>
      <point x="36.400000000000006" y="400.8"/>
      <point x="36.400000000000006" y="187.4" type="curve" smooth="yes"/>
      <point x="36.400000000000006" y="64.6"/>
      <point x="100.80000000000001" y="-10.0"/>
      <point x="212.2" y="-10.0" type="curve" smooth="yes"/>
      <point x="268.6" y="-10.0"/>
      <point x="330.0" y="3.4000000000000004"/>
      <point x="379.0" y="26.6" type="curve"/>
      <point x="373.0" y="42.8" type="line"/>
      <point x="318.20000000000005" y="19.2"/>
      <point x="265.6" y="7.8"/>
      <point x="213.2" y="7.8" type="curve" smooth="yes"/>
      <point x="115.2" y="7.8"/>
      <point x="54.8" y="78.0"/>
      <point x="54.8" y="188.0" type="curve" smooth="yes"/>
      <point x="54.8" y="384.8"/>
      <point x="157.2" y="522.2"/>
      <point x="294.2" y="522.2" type="curve" smooth="yes"/>
      <point x="370.20000000000005" y="522.2"/>
      <point x="416.6" y="492.4"/>
      <point x="416.6" y="437.2" type="curve" smooth="yes"/>
      <point x="416.6" y="359.6"/>
      <point x="336.6" y="302.8"/>
      <point x="206.4" y="280.0" type="curve" smooth="yes"/>
      <point x="154.4" y="271.0"/>
      <point x="100.80000000000001" y="267.2"/>
    </contour>
  </outline>
</glyph>
<glyph name="f" format="2">
  <advance width="280.8"/>
  <unicode hex="0066"/>
  <outline>
    <contour>
      <point x="-54.599999999999994" y="-220.0" type="curve" smooth="yes"/>
      <point x="17.0" y="-220.0"/>
      <point x="51.2" y="-163.0"/>
      <point x="71.80000000000001" y="-31.799999999999997" type="curve" smooth="yes"/>
      <point x="150.0" y="465.0" type="line"/>
      <point x="318.4" y="465.0" type="line"/>
      <point x="321.4" y="484.0" type="line"/>
      <point x="153.0" y="484.0" type="line"/>
      <point x="179.8" y="657.6"/>
      <point x="228.6" y="731.0"/>
      <point x="320.6" y="731.0" type="curve" smooth="yes"/>
      <point x="362.0" y="731.0"/>
      <point x="390.6" y="723.6"/>
      <point x="427.0" y="713.0" type="curve"/>
      <point x="433.6" y="731.0" type="line"/>
      <point x="393.2" y="744.4"/>
      <point x="360.4" y="750.0"/>
      <point x="325.6" y="750.0" type="curve" smooth="yes"/>
      <point x="219.4" y="750.0"/>
      <point x="164.4" y="674.6"/>
      <point x="133.6" y="484.0" type="curve"/>
      <point x="48.0" y="478.4" type="line"/>
      <point x="46.0" y="465.0" type="line"/>
      <point x="130.6" y="465.0" type="line"/>
      <point x="52.2" y="-33.6" type="line" smooth="yes"/>
      <point x="34.0" y="-148.0"/>
      <point x="8.399999999999999" y="-203.0"/>
      <point x="-56.8" y="-203.0" type="curve" smooth="yes"/>
      <point x="-71.2" y="-203.0"/>
      <point x="-83.8" y="-200.6"/>
      <point x="-101.0" y="-194.8" type="curve"/>
      <point x="-105.8" y="-211.8" type="line"/>
      <point x="-89.0" y="-217.6"/>
      <point x="-72.8" y="-220.0"/>
    </contour>
  </outline>
</glyph>
<glyph name="g" format="2">
  <advance width="465.8"/>
  <unicode hex="0067"/>
  <note>
16
</note>
  <anchor x="141.0" y="-214.0" name="bottom"/>
  <anchor x="280.8" y="530.0" name="top"/>
  <outline>
    <contour>
      <point x="6.200000000000001" y="-195.8" type="line"/>
      <point x="48.2" y="-211.2"/>
      <point x="99.2" y="-220.0"/>
      <point x="145.0" y="-220.0" type="curve" smooth="yes"/>
      <point x="256.6" y="-220.0"/>
      <point x="320.20000000000005" y="-154.2"/>
      <point x="341.4" y="-17.799999999999997" type="curve" smooth="yes"/>
      <point x="426.6" y="513.8" type="line"/>
      <point x="392.20000000000005" y="530.0"/>
      <point x="351.20000000000005" y="540.0"/>
      <point x="307.4" y="540.0" type="curve" smooth="yes"/>
      <point x="131.8" y="540.0"/>
      <point x="31.200000000000003" y="363.2"/>
      <point x="31.200000000000003" y="164.0" type="curve" smooth="yes"/>
      <point x="31.200000000000003" y="55.4"/>
      <point x="87.80000000000001" y="-10.0"/>
      <point x="182.0" y="-10.0" type="curve" smooth="yes"/>
      <point x="228.60000000000002" y="-10.0"/>
      <point x="286.8" y="8.4"/>
      <point x="331.6" y="38.400000000000006" type="curve"/>
      <point x="323.6" y="-14.0" type="line" smooth="yes"/>
      <point x="304.0" y="-143.4"/>
      <point x="245.8" y="-202.6"/>
      <point x="142.60000000000002" y="-202.6" type="curve" smooth="yes"/>
      <point x="99.60000000000001" y="-202.6"/>
      <point x="51.400000000000006" y="-193.4"/>
      <point x="12.200000000000001" y="-177.6" type="curve"/>
    </contour>
    <contour>
      <point x="405.6" y="502.6" type="curve"/>
      <point x="335.4" y="60.0" type="line"/>
      <point x="296.0" y="31.0"/>
      <point x="229.0" y="8.4"/>
      <point x="184.60000000000002" y="8.4" type="curve" smooth="yes"/>
      <point x="100.6" y="8.4"/>
      <point x="50.6" y="66.8"/>
      <point x="50.6" y="169.0" type="curve" smooth="yes"/>
      <point x="50.6" y="359.4"/>
      <point x="149.8" y="522.2"/>
      <point x="304.8" y="522.2" type="curve" smooth="yes"/>
      <point x="350.4" y="522.2"/>
      <point x="379.6" y="512.4"/>
    </contour>
  </outline>
</glyph>
<glyph name="h" format="2">
  <advance width="488.0"/>
  <unicode hex="0068"/>
  <note>
16
</note>
  <anchor x="210.8" y="0.0" name="bottom"/>
  <anchor x="261.2" y="370.0" name="center"/>
  <anchor x="321.6" y="740.0" name="top"/>
  <outline>
    <contour>
      <point x="376.8" y="46.2" type="curve" smooth="yes"/>
      <point x="376.8" y="85.2"/>
      <point x="432.4" y="388.6"/>
      <point x="432.4" y="435.0" type="curve" smooth="yes"/>
      <point x="432.4" y="498.8"/>
      <point x="398.4" y="540.0"/>
      <point x="321.6" y="540.0" type="curve" smooth="yes"/>
      <point x="252.60000000000002" y="540.0"/>
      <point x="191.60000000000002" y="514.0"/>
      <point x="130.2" y="483.8" type="curve"/>
      <point x="170.8" y="740.0" type="line"/>
      <point x="151.8" y="740.0" type="line"/>
      <point x="34.8" y="0.0" type="line"/>
      <point x="53.8" y="0.0" type="line"/>
      <point x="126.6" y="462.0" type="line"/>
      <point x="190.60000000000002" y="495.8"/>
      <point x="250.2" y="521.6"/>
      <point x="315.6" y="521.6" type="curve" smooth="yes"/>
      <point x="387.4" y="521.6"/>
      <point x="412.4" y="485.2"/>
      <point x="412.4" y="433.6" type="curve" smooth="yes"/>
      <point x="412.4" y="380.8"/>
      <point x="358.4" y="87.0"/>
      <point x="358.4" y="43.2" type="curve" smooth="yes"/>
      <point x="358.4" y="7.800000000000001"/>
      <point x="381.20000000000005" y="-10.0"/>
      <point x="411.20000000000005" y="-10.0" type="curve" smooth="yes"/>
      <point x="422.4" y="-10.0"/>
      <point x="436.8" y="-8.6"/>
      <point x="451.6" y="-1.6" type="curve"/>
      <point x="447.6" y="14.6" type="line"/>
      <point x="435.20000000000005" y="9.6"/>
      <point x="423.8" y="7.8"/>
      <point x="413.8" y="7.8" type="curve" smooth="yes"/>
      <point x="389.6" y="7.8"/>
      <point x="376.8" y="21.2"/>
    </contour>
  </outline>
</glyph>
<glyph name="i" format="2">
  <advance width="175.8"/>
  <unicode hex="0069"/>
  <note>
Ajuster pts sur points
8
</note>
  <anchor x="43.400000000000006" y="0.0" name="bottom"/>
  <anchor x="53.400000000000006" y="0.0" name="ogonek"/>
  <anchor x="127.8" y="530.0" name="top"/>
  <outline>
    <contour>
      <point x="35.0" y="0.0" type="line"/>
      <point x="53.400000000000006" y="0.0" type="line"/>
      <point x="137.4" y="530.0" type="line"/>
      <point x="118.4" y="530.0" type="line"/>
    </contour>
    <contour>
      <point x="157.0" y="710.0" type="curve" smooth="yes"/>
      <point x="143.4" y="710.0"/>
      <point x="141.4" y="708.8"/>
      <point x="139.2" y="684.0" type="curve" smooth="yes"/>
      <point x="138.6" y="676.4"/>
      <point x="144.0" y="676.0"/>
      <point x="149.6" y="676.0" type="curve" smooth="yes"/>
      <point x="165.2" y="676.0"/>
      <point x="165.6" y="677.2"/>
      <point x="168.2" y="702.4" type="curve" smooth="yes"/>
      <point x="168.8" y="709.6"/>
      <point x="164.6" y="710.0"/>
    </contour>
  </outline>
</glyph>
<glyph name="j" format="2">
  <advance width="182.8"/>
  <unicode hex="006A"/>
  <note>
idem /i
12
</note>
  <outline>
    <contour>
      <point x="164.0" y="710.0" type="curve" smooth="yes"/>
      <point x="150.4" y="710.0"/>
      <point x="149.2" y="708.8"/>
      <point x="147.0" y="684.0" type="curve" smooth="yes"/>
      <point x="146.4" y="676.4"/>
      <point x="151.0" y="676.0"/>
      <point x="156.6" y="676.0" type="curve" smooth="yes"/>
      <point x="171.0" y="676.0"/>
      <point x="171.8" y="677.2"/>
      <point x="174.4" y="702.4" type="curve" smooth="yes"/>
      <point x="175.0" y="709.6"/>
      <point x="171.6" y="710.0"/>
    </contour>
    <contour>
      <point x="144.4" y="530.0" type="line"/>
      <point x="125.4" y="530.0" type="line"/>
      <point x="31.400000000000002" y="-66.0" type="line" smooth="yes"/>
      <point x="18.0" y="-150.4"/>
      <point x="-6.799999999999997" y="-203.0"/>
      <point x="-66.0" y="-203.0" type="curve" smooth="yes"/>
      <point x="-81.0" y="-203.0"/>
      <point x="-96.4" y="-201.0"/>
      <point x="-116.4" y="-193.6" type="curve"/>
      <point x="-120.8" y="-210.6" type="line"/>
      <point x="-104.8" y="-217.6"/>
      <point x="-80.2" y="-220.0"/>
      <point x="-64.4" y="-220.0" type="curve" smooth="yes"/>
      <point x="1.8000000000000007" y="-220.0"/>
      <point x="34.400000000000006" y="-167.2"/>
      <point x="49.400000000000006" y="-71.0" type="curve" smooth="yes"/>
    </contour>
  </outline>
</glyph>
<glyph name="k" format="2">
  <advance width="434"/>
  <unicode hex="006B"/>
  <anchor x="190" y="0" name="bottom"/>
  <anchor x="162" y="740" name="top"/>
  <outline>
    <contour>
      <point x="35" y="0" type="line"/>
      <point x="54" y="0" type="line"/>
      <point x="171" y="740" type="line"/>
      <point x="152" y="740" type="line"/>
    </contour>
    <contour>
      <point x="387" y="-10" type="curve" smooth="yes"/>
      <point x="395" y="-10"/>
      <point x="403" y="-8"/>
      <point x="410" y="-5" type="curve"/>
      <point x="405" y="10" type="line"/>
      <point x="399" y="8"/>
      <point x="393" y="7"/>
      <point x="388" y="7" type="curve" smooth="yes"/>
      <point x="358" y="7"/>
      <point x="325" y="43"/>
      <point x="239" y="168" type="curve" smooth="yes"/>
      <point x="103" y="359" type="line"/>
      <point x="94" y="340" type="line"/>
      <point x="233" y="140" type="line" smooth="yes"/>
      <point x="315" y="23"/>
      <point x="347" y="-10"/>
    </contour>
    <contour>
      <point x="170" y="253" type="line"/>
      <point x="288" y="316"/>
      <point x="387" y="417"/>
      <point x="443" y="530" type="curve"/>
      <point x="427" y="539" type="line"/>
      <point x="362" y="419"/>
      <point x="294" y="342"/>
      <point x="160" y="269" type="curve"/>
    </contour>
  </outline>
</glyph>
<glyph name="l" format="2">
  <advance width="207.4"/>
  <unicode hex="006C"/>
  <anchor x="113.80000000000001" y="0.0" name="bottom"/>
  <anchor x="102.8" y="370.0" name="center"/>
  <anchor x="161.2" y="740.0" name="top"/>
  <anchor x="258.2" y="740.0" name="topright"/>
  <outline>
    <contour>
      <point x="151.8" y="740.0" type="line"/>
      <point x="49.6" y="95.6" type="line" smooth="yes"/>
      <point x="48.2" y="85.6"/>
      <point x="46.0" y="70.0"/>
      <point x="46.0" y="56.2" type="curve" smooth="yes"/>
      <point x="46.0" y="18.4"/>
      <point x="64.6" y="-10.0"/>
      <point x="114.2" y="-10.0" type="curve" smooth="yes"/>
      <point x="136.2" y="-10.0"/>
      <point x="158.2" y="-5.8"/>
      <point x="176.8" y="0.0" type="curve"/>
      <point x="172.4" y="16.6" type="line"/>
      <point x="152.60000000000002" y="10.8"/>
      <point x="135.2" y="7.2"/>
      <point x="117.2" y="7.2" type="curve" smooth="yes"/>
      <point x="75.2" y="7.2"/>
      <point x="64.80000000000001" y="31.0"/>
      <point x="64.80000000000001" y="54.6" type="curve" smooth="yes"/>
      <point x="64.80000000000001" y="72.4"/>
      <point x="68.2" y="90.4"/>
      <point x="71.4" y="110.0" type="curve" smooth="yes"/>
      <point x="171.2" y="740.0" type="line"/>
    </contour>
  </outline>
</glyph>
<glyph name="m" format="2">
  <advance width="736.8"/>
  <unicode hex="006D"/>
  <note>
24&gt;23 points
un point de trop dans la jointure avec 2e jambage
</note>
  <outline>
    <contour>
      <point x="660.0" y="-10.0" type="curve" smooth="yes"/>
      <point x="671.2" y="-10.0"/>
      <point x="685.6" y="-8.6"/>
      <point x="700.4000000000001" y="-1.6" type="curve"/>
      <point x="696.4000000000001" y="14.6" type="line"/>
      <point x="684.0" y="9.6"/>
      <point x="672.6" y="7.8"/>
      <point x="662.6" y="7.8" type="curve" smooth="yes"/>
      <point x="638.4000000000001" y="7.8"/>
      <point x="625.4000000000001" y="20.8"/>
      <point x="625.4000000000001" y="45.8" type="curve" smooth="yes"/>
      <point x="625.4000000000001" y="84.8"/>
      <point x="681.0" y="388.6"/>
      <point x="681.0" y="435.0" type="curve" smooth="yes"/>
      <point x="681.0" y="498.8"/>
      <point x="647.2" y="540.0"/>
      <point x="570.4000000000001" y="540.0" type="curve" smooth="yes"/>
      <point x="510.20000000000005" y="540.0"/>
      <point x="451.20000000000005" y="514.4"/>
      <point x="393.0" y="478.2" type="curve"/>
      <point x="379.8" y="515.6"/>
      <point x="346.6" y="540.0"/>
      <point x="293.0" y="540.0" type="curve" smooth="yes"/>
      <point x="236.60000000000002" y="540.0"/>
      <point x="183.0" y="515.0"/>
      <point x="129.8" y="484.0" type="curve"/>
      <point x="136.8" y="530.0" type="line"/>
      <point x="117.8" y="530.0" type="line"/>
      <point x="34.2" y="0.0" type="line"/>
      <point x="53.2" y="0.0" type="line"/>
      <point x="126.4" y="463.0" type="line"/>
      <point x="184.4" y="498.8"/>
      <point x="237.0" y="521.6"/>
      <point x="289.6" y="521.6" type="curve" smooth="yes"/>
      <point x="359.8" y="521.6"/>
      <point x="381.4" y="480.6"/>
      <point x="381.4" y="431.2" type="curve" smooth="yes"/>
      <point x="381.4" y="404.8"/>
      <point x="336.8" y="134.8"/>
      <point x="317.20000000000005" y="0.0" type="curve"/>
      <point x="336.8" y="0.0" type="line"/>
      <point x="356.4" y="133.6"/>
      <point x="401.0" y="411.6"/>
      <point x="401.0" y="437.2" type="curve" smooth="yes"/>
      <point x="401.0" y="445.4"/>
      <point x="400.0" y="453.6"/>
      <point x="398.6" y="461.2" type="curve"/>
      <point x="452.20000000000005" y="495.0"/>
      <point x="506.20000000000005" y="521.6"/>
      <point x="567.2" y="521.6" type="curve" smooth="yes"/>
      <point x="636.2" y="521.6"/>
      <point x="660.6" y="484.8"/>
      <point x="660.6" y="431.2" type="curve" smooth="yes"/>
      <point x="660.6" y="378.6"/>
      <point x="607.0" y="87.0"/>
      <point x="607.0" y="43.2" type="curve" smooth="yes"/>
      <point x="607.0" y="7.800000000000001"/>
      <point x="630.0" y="-10.0"/>
    </contour>
  </outline>
</glyph>
<glyph name="n" format="2">
  <advance width="486.8"/>
  <unicode hex="006E"/>
  <note>
16
</note>
  <anchor x="216.0" y="0.0" name="bottom"/>
  <anchor x="277.6" y="530.0" name="top"/>
  <outline>
    <contour>
      <point x="117.8" y="530.0" type="line"/>
      <point x="34.2" y="0.0" type="line"/>
      <point x="53.2" y="0.0" type="line"/>
      <point x="126.0" y="462.0" type="line"/>
      <point x="192.4" y="497.0"/>
      <point x="249.0" y="522.2"/>
      <point x="314.4" y="522.2" type="curve" smooth="yes"/>
      <point x="385.8" y="522.2"/>
      <point x="411.4" y="484.8"/>
      <point x="411.4" y="431.2" type="curve" smooth="yes"/>
      <point x="411.4" y="380.4"/>
      <point x="357.8" y="87.0"/>
      <point x="357.8" y="43.2" type="curve" smooth="yes"/>
      <point x="357.8" y="7.800000000000001"/>
      <point x="380.0" y="-10.0"/>
      <point x="410.0" y="-10.0" type="curve" smooth="yes"/>
      <point x="421.20000000000005" y="-10.0"/>
      <point x="435.6" y="-8.6"/>
      <point x="450.4" y="-1.6" type="curve"/>
      <point x="446.4" y="14.6" type="line"/>
      <point x="434.0" y="9.6"/>
      <point x="422.6" y="7.8"/>
      <point x="412.6" y="7.8" type="curve" smooth="yes"/>
      <point x="388.4" y="7.8"/>
      <point x="376.20000000000005" y="21.2"/>
      <point x="376.20000000000005" y="46.2" type="curve" smooth="yes"/>
      <point x="376.20000000000005" y="85.2"/>
      <point x="431.8" y="388.6"/>
      <point x="431.8" y="435.0" type="curve" smooth="yes"/>
      <point x="431.8" y="498.8"/>
      <point x="397.20000000000005" y="540.0"/>
      <point x="320.4" y="540.0" type="curve" smooth="yes"/>
      <point x="251.4" y="540.0"/>
      <point x="193.60000000000002" y="514.8"/>
      <point x="129.0" y="482.2" type="curve"/>
      <point x="136.8" y="530.0" type="line"/>
    </contour>
  </outline>
</glyph>
<glyph name="q" format="2">
  <advance width="465.20000000000005"/>
  <unicode hex="0071"/>
  <note>
12
</note>
  <outline>
    <contour>
      <point x="426.8" y="519.2" type="line"/>
      <point x="387.20000000000005" y="530.4"/>
      <point x="344.0" y="540.0"/>
      <point x="296.0" y="540.0" type="curve" smooth="yes"/>
      <point x="112.2" y="540.0"/>
      <point x="30.6" y="313.6"/>
      <point x="30.6" y="151.2" type="curve" smooth="yes"/>
      <point x="30.6" y="48.6"/>
      <point x="87.80000000000001" y="-10.0"/>
      <point x="172.2" y="-10.0" type="curve" smooth="yes"/>
      <point x="232.4" y="-10.0"/>
      <point x="283.0" y="11.600000000000001"/>
      <point x="333.4" y="48.800000000000004" type="curve"/>
      <point x="290.8" y="-210.0" type="line"/>
      <point x="311.0" y="-210.0" type="line"/>
    </contour>
    <contour>
      <point x="405.8" y="506.2" type="curve"/>
      <point x="336.4" y="69.6" type="line"/>
      <point x="278.20000000000005" y="25.6"/>
      <point x="226.8" y="8.4"/>
      <point x="174.8" y="8.4" type="curve" smooth="yes"/>
      <point x="97.2" y="8.4"/>
      <point x="48.8" y="68.2"/>
      <point x="48.8" y="149.6" type="curve" smooth="yes"/>
      <point x="48.8" y="328.6"/>
      <point x="136.0" y="522.2"/>
      <point x="295.4" y="522.2" type="curve" smooth="yes"/>
      <point x="337.0" y="522.2"/>
      <point x="377.0" y="513.6"/>
    </contour>
  </outline>
</glyph>
<glyph name="r" format="2">
  <advance width="335.0"/>
  <unicode hex="0072"/>
  <anchor x="43.2" y="0.0" name="bottom"/>
  <anchor x="236.8" y="530.0" name="top"/>
  <outline>
    <contour>
      <point x="136.4" y="530.0" type="line"/>
      <point x="117.8" y="530.0" type="line"/>
      <point x="34.2" y="0.0" type="line"/>
      <point x="52.8" y="0.0" type="line"/>
      <point x="121.2" y="433.6" type="line"/>
      <point x="188.0" y="497.0"/>
      <point x="245.4" y="521.6"/>
      <point x="297.2" y="521.6" type="curve" smooth="yes"/>
      <point x="320.0" y="521.6"/>
      <point x="345.4" y="517.6"/>
      <point x="365.8" y="511.2" type="curve"/>
      <point x="372.4" y="528.6" type="line"/>
      <point x="354.8" y="535.2"/>
      <point x="327.8" y="540.0"/>
      <point x="298.6" y="540.0" type="curve" smooth="yes"/>
      <point x="244.2" y="540.0"/>
      <point x="188.2" y="515.8"/>
      <point x="125.2" y="461.4" type="curve"/>
    </contour>
  </outline>
</glyph>
<glyph name="u" format="2">
  <advance width="476.4"/>
  <unicode hex="0075"/>
  <note>
15
</note>
  <anchor x="192.0" y="0.0" name="bottom"/>
  <anchor x="434.0" y="0.0" name="ogonek"/>
  <anchor x="270.6" y="530.0" name="top"/>
  <anchor x="432.6" y="530.0" name="topright"/>
  <outline>
    <contour>
      <point x="155.60000000000002" y="-10.0" type="curve" smooth="yes"/>
      <point x="222.2" y="-10.0"/>
      <point x="275.4" y="10.4"/>
      <point x="342.0" y="47.6" type="curve"/>
      <point x="343.8" y="6.2"/>
      <point x="363.0" y="-10.0"/>
      <point x="394.4" y="-10.0" type="curve" smooth="yes"/>
      <point x="402.4" y="-10.0"/>
      <point x="421.20000000000005" y="-6.4"/>
      <point x="434.0" y="0.0" type="curve"/>
      <point x="429.8" y="15.2" type="line"/>
      <point x="417.0" y="10.2"/>
      <point x="403.0" y="7.2"/>
      <point x="396.0" y="7.2" type="curve" smooth="yes"/>
      <point x="370.6" y="7.2"/>
      <point x="359.8" y="20.8"/>
      <point x="359.8" y="50.6" type="curve" smooth="yes"/>
      <point x="359.8" y="62.8"/>
      <point x="362.0" y="87.4"/>
      <point x="432.6" y="530.0" type="curve"/>
      <point x="413.20000000000005" y="530.0" type="line"/>
      <point x="341.8" y="66.0" type="line"/>
      <point x="275.6" y="28.200000000000003"/>
      <point x="223.4" y="7.8"/>
      <point x="159.60000000000002" y="7.8" type="curve" smooth="yes"/>
      <point x="99.0" y="7.8"/>
      <point x="68.6" y="41.4"/>
      <point x="68.6" y="89.6" type="curve" smooth="yes"/>
      <point x="68.6" y="103.6"/>
      <point x="69.6" y="118.4"/>
      <point x="134.2" y="530.0" type="curve"/>
      <point x="115.2" y="530.0" type="line"/>
      <point x="64.4" y="196.4"/>
      <point x="49.6" y="115.6"/>
      <point x="49.6" y="85.6" type="curve" smooth="yes"/>
      <point x="49.6" y="27.8"/>
      <point x="86.4" y="-10.0"/>
    </contour>
  </outline>
</glyph>
<glyph name="x" format="2">
  <advance width="404"/>
  <unicode hex="0078"/>
  <outline>
    <contour>
      <point x="406" y="530" type="line"/>
      <point x="387" y="452"/>
      <point x="362" y="388"/>
      <point x="215" y="284" type="curve"/>
      <point x="100" y="537" type="line"/>
      <point x="83" y="530" type="line"/>
      <point x="200" y="276" type="line"/>
      <point x="61" y="183"/>
      <point x="0" y="97"/>
      <point x="-13" y="0" type="curve"/>
      <point x="5" y="0" type="line"/>
      <point x="27" y="103"/>
      <point x="71" y="168"/>
      <point x="208" y="261" type="curve"/>
      <point x="331" y="-6" type="line"/>
      <point x="347" y="1" type="line"/>
      <point x="222" y="270" type="line"/>
      <point x="369" y="369"/>
      <point x="410" y="455"/>
      <point x="423" y="530" type="curve"/>
    </contour>
  </outline>
</glyph>
<glyph name="z" format="2">
  <advance width="425"/>
  <unicode hex="007A"/>
  <anchor x="186" y="0" name="bottom"/>
  <anchor x="208" y="275" name="center"/>
  <anchor x="252" y="530" name="top"/>
  <outline>
    <contour>
      <point x="2" y="0" type="line"/>
      <point x="369" y="0" type="line"/>
      <point x="372" y="18" type="line"/>
      <point x="27" y="18" type="line"/>
      <point x="425" y="512" type="line"/>
      <point x="428" y="530" type="line"/>
      <point x="92" y="530" type="line"/>
      <point x="89" y="512" type="line"/>
      <point x="403" y="512" type="line"/>
      <point x="4" y="18" type="line"/>
    </contour>
  </outline>
</glyph>
<glyph name="braceleft" format="2">
  <advance width="295.0"/>
  <unicode hex="007B"/>
  <outline>
    <contour>
      <point x="60.6" y="-115.0" type="curve" smooth="yes"/>
      <point x="60.6" y="-168.0"/>
      <point x="83.6" y="-210.0"/>
      <point x="150.4" y="-210.0" type="curve" smooth="yes"/>
      <point x="185.60000000000002" y="-210.0" type="line"/>
      <point x="188.60000000000002" y="-190.0" type="line"/>
      <point x="153.4" y="-190.0" type="line" smooth="yes"/>
      <point x="98.2" y="-190.0"/>
      <point x="79.4" y="-156.2"/>
      <point x="79.4" y="-112.8" type="curve" smooth="yes"/>
      <point x="79.4" y="-3.8"/>
      <point x="153.2" y="94.0"/>
      <point x="153.2" y="205.6" type="curve" smooth="yes"/>
      <point x="153.2" y="234.2"/>
      <point x="146.0" y="259.8"/>
      <point x="121.0" y="270.0" type="curve"/>
      <point x="171.2" y="276.4"/>
      <point x="187.8" y="353.6"/>
      <point x="187.8" y="419.6" type="curve" smooth="yes"/>
      <point x="187.8" y="467.2"/>
      <point x="185.0" y="500.6"/>
      <point x="185.0" y="554.4" type="curve" smooth="yes"/>
      <point x="185.0" y="629.4"/>
      <point x="205.4" y="720.0"/>
      <point x="299.6" y="720.0" type="curve" smooth="yes"/>
      <point x="332.4" y="720.0" type="line"/>
      <point x="335.4" y="740.0" type="line"/>
      <point x="303.2" y="740.0" type="line" smooth="yes"/>
      <point x="191.6" y="740.0"/>
      <point x="165.8" y="636.8"/>
      <point x="165.8" y="549.0" type="curve" smooth="yes"/>
      <point x="165.8" y="499.6"/>
      <point x="168.6" y="462.6"/>
      <point x="168.6" y="424.4" type="curve" smooth="yes"/>
      <point x="168.6" y="357.4"/>
      <point x="155.6" y="280.6"/>
      <point x="100.6" y="280.6" type="curve" smooth="yes"/>
      <point x="85.6" y="280.6" type="line"/>
      <point x="82.6" y="261.6" type="line"/>
      <point x="96.80000000000001" y="261.6" type="line" smooth="yes"/>
      <point x="125.80000000000001" y="261.6"/>
      <point x="135.4" y="236.8"/>
      <point x="135.4" y="208.2" type="curve" smooth="yes"/>
      <point x="135.4" y="88.8"/>
      <point x="60.6" y="5.199999999999999"/>
    </contour>
  </outline>
</glyph>
<glyph name="bar" format="2">
  <advance width="184.4"/>
  <unicode hex="007C"/>
  <outline>
    <contour>
      <point x="183.2" y="790.0" type="line"/>
      <point x="165.2" y="790.0" type="line"/>
      <point x="6.200000000000003" y="-210.0" type="line"/>
      <point x="24.200000000000003" y="-210.0" type="line"/>
    </contour>
  </outline>
</glyph>
<glyph name="braceright" format="2">
  <advance width="295.0"/>
  <unicode hex="007D"/>
  <outline>
    <contour>
      <point x="231.0" y="645.0" type="curve" smooth="yes"/>
      <point x="231.0" y="698.0"/>
      <point x="208.0" y="740.0"/>
      <point x="141.2" y="740.0" type="curve" smooth="yes"/>
      <point x="106.0" y="740.0" type="line"/>
      <point x="103.0" y="720.0" type="line"/>
      <point x="138.2" y="720.0" type="line" smooth="yes"/>
      <point x="193.4" y="720.0"/>
      <point x="212.2" y="686.2"/>
      <point x="212.2" y="642.8" type="curve" smooth="yes"/>
      <point x="212.2" y="533.8"/>
      <point x="138.4" y="441.4"/>
      <point x="138.4" y="329.8" type="curve" smooth="yes"/>
      <point x="138.4" y="301.2"/>
      <point x="145.6" y="275.6"/>
      <point x="170.60000000000002" y="265.4" type="curve"/>
      <point x="120.4" y="259.0"/>
      <point x="103.80000000000001" y="181.8"/>
      <point x="103.80000000000001" y="115.8" type="curve" smooth="yes"/>
      <point x="103.80000000000001" y="68.2"/>
      <point x="106.6" y="29.4"/>
      <point x="106.6" y="-24.4" type="curve" smooth="yes"/>
      <point x="106.6" y="-99.4"/>
      <point x="86.2" y="-190.0"/>
      <point x="-8.0" y="-190.0" type="curve" smooth="yes"/>
      <point x="-40.8" y="-190.0" type="line"/>
      <point x="-43.8" y="-210.0" type="line"/>
      <point x="-11.599999999999998" y="-210.0" type="line" smooth="yes"/>
      <point x="100.0" y="-210.0"/>
      <point x="125.80000000000001" y="-106.8"/>
      <point x="125.80000000000001" y="-19.0" type="curve" smooth="yes"/>
      <point x="125.80000000000001" y="30.4"/>
      <point x="123.0" y="72.8"/>
      <point x="123.0" y="111.0" type="curve" smooth="yes"/>
      <point x="123.0" y="178.0"/>
      <point x="136.0" y="254.8"/>
      <point x="191.0" y="254.8" type="curve" smooth="yes"/>
      <point x="206.0" y="254.8" type="line"/>
      <point x="209.0" y="273.8" type="line"/>
      <point x="194.8" y="273.8" type="line" smooth="yes"/>
      <point x="165.8" y="273.8"/>
      <point x="156.2" y="298.6"/>
      <point x="156.2" y="327.2" type="curve" smooth="yes"/>
      <point x="156.2" y="446.6"/>
      <point x="231.0" y="524.8"/>
    </contour>
  </outline>
</glyph>
<glyph name="asciitilde" format="2">
  <advance width="413.0"/>
  <unicode hex="007E"/>
  <outline>
    <contour>
      <point x="347.8" y="259.6" type="curve"/>
      <point x="351.8" y="284.2" type="line"/>
      <point x="330.0" y="260.6"/>
      <point x="310.0" y="243.2"/>
      <point x="283.4" y="243.2" type="curve" smooth="yes"/>
      <point x="222.4" y="243.2"/>
      <point x="204.4" y="356.6"/>
      <point x="137.8" y="356.6" type="curve" smooth="yes"/>
      <point x="112.6" y="356.6"/>
      <point x="91.2" y="342.4"/>
      <point x="70.4" y="321.0" type="curve"/>
      <point x="66.4" y="296.0" type="line"/>
      <point x="87.6" y="318.4"/>
      <point x="107.8" y="336.6"/>
      <point x="134.4" y="336.6" type="curve" smooth="yes"/>
      <point x="192.8" y="336.6"/>
      <point x="211.0" y="223.2"/>
      <point x="280.6" y="223.2" type="curve" smooth="yes"/>
      <point x="309.4" y="223.2"/>
      <point x="328.0" y="237.8"/>
    </contour>
  </outline>
</glyph>
<glyph name="cent" format="2">
  <advance width="563.6"/>
  <unicode hex="00A2"/>
  <outline>
    <contour>
      <point x="250.4" y="-105.0" type="line"/>
      <point x="268.4" y="-105.0" type="line"/>
      <point x="283.4" y="-9.6" type="line"/>
      <point x="346.20000000000005" y="-7.0"/>
      <point x="397.4" y="3.4000000000000004"/>
      <point x="423.8" y="11.200000000000001" type="curve"/>
      <point x="420.0" y="28.4" type="line"/>
      <point x="391.20000000000005" y="20.200000000000003"/>
      <point x="328.20000000000005" y="7.8"/>
      <point x="282.6" y="7.8" type="curve" smooth="yes"/>
      <point x="177.4" y="7.8"/>
      <point x="127.2" y="62.8"/>
      <point x="127.2" y="165.0" type="curve" smooth="yes"/>
      <point x="127.2" y="366.8"/>
      <point x="222.8" y="521.0"/>
      <point x="366.6" y="521.0" type="curve" smooth="yes"/>
      <point x="417.20000000000005" y="521.0"/>
      <point x="458.0" y="511.2"/>
      <point x="489.0" y="501.6" type="curve"/>
      <point x="495.6" y="520.4" type="line"/>
      <point x="459.4" y="531.0"/>
      <point x="421.20000000000005" y="538.8"/>
      <point x="374.0" y="539.4" type="curve"/>
      <point x="389.6" y="635.0" type="line"/>
      <point x="371.6" y="635.0" type="line"/>
      <point x="356.0" y="539.0" type="line"/>
      <point x="203.60000000000002" y="532.2"/>
      <point x="108.2" y="376.6"/>
      <point x="108.2" y="163.4" type="curve" smooth="yes"/>
      <point x="108.2" y="40.2"/>
      <point x="176.2" y="-5.4"/>
      <point x="264.4" y="-9.0" type="curve"/>
    </contour>
  </outline>
</glyph>
<glyph name="sterling" format="2">
  <advance width="563.6"/>
  <unicode hex="00A3"/>
  <outline>
    <contour>
      <point x="57.6" y="0.0" type="line"/>
      <point x="458.0" y="0.0" type="line"/>
      <point x="461.0" y="20.0" type="line"/>
      <point x="86.2" y="20.0" type="line"/>
      <point x="173.2" y="103.8"/>
      <point x="217.0" y="173.6"/>
      <point x="217.0" y="278.8" type="curve" smooth="yes"/>
      <point x="217.0" y="346.0"/>
      <point x="184.4" y="400.4"/>
      <point x="184.4" y="467.2" type="curve" smooth="yes"/>
      <point x="184.4" y="624.6"/>
      <point x="283.8" y="690.8"/>
      <point x="386.6" y="690.8" type="curve" smooth="yes"/>
      <point x="436.8" y="690.8"/>
      <point x="488.0" y="683.8"/>
      <point x="542.4000000000001" y="665.4" type="curve"/>
      <point x="550.8" y="683.0" type="line"/>
      <point x="498.0" y="702.6"/>
      <point x="437.0" y="710.0"/>
      <point x="393.6" y="710.0" type="curve" smooth="yes"/>
      <point x="266.0" y="710.0"/>
      <point x="166.0" y="633.4"/>
      <point x="166.0" y="469.2" type="curve" smooth="yes"/>
      <point x="166.0" y="387.6"/>
      <point x="198.0" y="349.4"/>
      <point x="198.0" y="274.4" type="curve" smooth="yes"/>
      <point x="198.0" y="167.2"/>
      <point x="138.60000000000002" y="99.2"/>
      <point x="58.800000000000004" y="20.0" type="curve"/>
    </contour>
    <contour>
      <point x="90.0" y="365.6" type="line"/>
      <point x="450.8" y="366.4" type="line"/>
      <point x="453.8" y="384.6" type="line"/>
      <point x="93.0" y="384.6" type="line"/>
    </contour>
  </outline>
</glyph>
<glyph name="currency" format="2">
  <advance width="392.0"/>
  <unicode hex="00A4"/>
  <outline>
    <contour>
      <point x="28.2" y="113.0" type="line"/>
      <point x="107.4" y="188.0" type="line"/>
      <point x="124.8" y="168.0"/>
      <point x="149.4" y="157.0"/>
      <point x="179.4" y="157.0" type="curve" smooth="yes"/>
      <point x="209.0" y="157.0"/>
      <point x="238.0" y="168.4"/>
      <point x="262.0" y="188.0" type="curve"/>
      <point x="318.0" y="113.0" type="line"/>
      <point x="333.2" y="127.0" type="line"/>
      <point x="277.0" y="202.0" type="line"/>
      <point x="303.6" y="230.4"/>
      <point x="321.6" y="270.0"/>
      <point x="321.6" y="313.4" type="curve" smooth="yes"/>
      <point x="321.6" y="337.0"/>
      <point x="315.6" y="358.4"/>
      <point x="304.6" y="376.0" type="curve"/>
      <point x="384.2" y="451.0" type="line"/>
      <point x="373.6" y="465.0" type="line"/>
      <point x="294.0" y="390.0" type="line"/>
      <point x="276.4" y="410.0"/>
      <point x="251.0" y="422.0"/>
      <point x="221.4" y="422.0" type="curve" smooth="yes"/>
      <point x="191.4" y="422.0"/>
      <point x="162.8" y="410.0"/>
      <point x="138.8" y="390.0" type="curve"/>
      <point x="83.8" y="465.0" type="line"/>
      <point x="69.8" y="451.0" type="line"/>
      <point x="123.8" y="376.6" type="line"/>
      <point x="96.8" y="348.0"/>
      <point x="79.8" y="309.0"/>
      <point x="79.8" y="266.0" type="curve" smooth="yes"/>
      <point x="79.8" y="241.0"/>
      <point x="85.8" y="219.0"/>
      <point x="96.8" y="201.0" type="curve"/>
      <point x="18.8" y="127.0" type="line"/>
    </contour>
    <contour>
      <point x="183.4" y="177.0" type="curve" smooth="yes"/>
      <point x="133.4" y="177.0"/>
      <point x="98.2" y="217.0"/>
      <point x="98.2" y="269.8" type="curve" smooth="yes"/>
      <point x="98.2" y="341.4"/>
      <point x="157.8" y="402.0"/>
      <point x="218.4" y="402.0" type="curve" smooth="yes"/>
      <point x="269.0" y="402.0"/>
      <point x="303.6" y="362.4"/>
      <point x="303.6" y="309.4" type="curve" smooth="yes"/>
      <point x="303.6" y="238.4"/>
      <point x="245.4" y="177.0"/>
    </contour>
  </outline>
</glyph>
<glyph name="brokenbar" format="2">
  <advance width="185.0"/>
  <unicode hex="00A6"/>
  <outline>
    <contour>
      <point x="119.2" y="391.0" type="line"/>
      <point x="183.2" y="790.0" type="line"/>
      <point x="165.2" y="790.0" type="line"/>
      <point x="101.2" y="391.0" type="line"/>
    </contour>
    <contour>
      <point x="70.2" y="190.0" type="line"/>
      <point x="6.800000000000004" y="-210.0" type="line"/>
      <point x="24.800000000000004" y="-210.0" type="line"/>
      <point x="88.2" y="190.0" type="line"/>
    </contour>
  </outline>
</glyph>
<glyph name="ordfeminine" format="2">
  <advance width="329.8"/>
  <unicode hex="00AA"/>
  <outline>
    <contour>
      <point x="48.0" y="291.2" type="line"/>
      <point x="282.6" y="291.2" type="line"/>
      <point x="285.6" y="308.0" type="line"/>
      <point x="51.0" y="308.0" type="line"/>
    </contour>
    <component base="a.superior" xOffset="13.2"/>
  </outline>
</glyph>
<glyph name="logicalnot" format="2">
  <advance width="408.6"/>
  <unicode hex="00AC"/>
  <outline>
    <contour>
      <point x="68.0" y="385.2" type="line"/>
      <point x="356.2" y="385.2" type="line"/>
      <point x="323.6" y="177.0" type="line"/>
      <point x="342.2" y="177.0" type="line"/>
      <point x="377.8" y="403.2" type="line"/>
      <point x="71.0" y="403.2" type="line"/>
    </contour>
  </outline>
</glyph>
<glyph name="degree" format="2">
  <advance width="220.2"/>
  <unicode hex="00B0"/>
  <outline>
    <contour>
      <point x="148.8" y="520.0" type="curve" smooth="yes"/>
      <point x="202.8" y="520.0"/>
      <point x="246.8" y="576.4"/>
      <point x="246.8" y="646.0" type="curve" smooth="yes"/>
      <point x="246.8" y="692.6"/>
      <point x="222.6" y="728.0"/>
      <point x="181.4" y="728.0" type="curve" smooth="yes"/>
      <point x="126.6" y="728.0"/>
      <point x="83.4" y="667.8"/>
      <point x="83.4" y="599.0" type="curve" smooth="yes"/>
      <point x="83.4" y="554.0"/>
      <point x="107.0" y="520.0"/>
    </contour>
    <contour>
      <point x="151.8" y="540.0" type="curve" smooth="yes"/>
      <point x="119.0" y="540.0"/>
      <point x="101.8" y="566.4"/>
      <point x="101.8" y="601.8" type="curve" smooth="yes"/>
      <point x="101.8" y="658.6"/>
      <point x="134.6" y="708.0"/>
      <point x="178.4" y="708.0" type="curve" smooth="yes"/>
      <point x="212.4" y="708.0"/>
      <point x="228.8" y="680.0"/>
      <point x="228.8" y="644.2" type="curve" smooth="yes"/>
      <point x="228.8" y="588.0"/>
      <point x="195.6" y="540.0"/>
    </contour>
  </outline>
</glyph>
<glyph name="plusminus" format="2">
  <advance width="409.8"/>
  <unicode hex="00B1"/>
  <outline>
    <contour>
      <point x="329.2" y="74.0" type="line"/>
      <point x="332.2" y="92.6" type="line"/>
      <point x="185.4" y="92.6" type="line"/>
      <point x="218.0" y="299.0" type="line"/>
      <point x="364.2" y="299.0" type="line"/>
      <point x="367.2" y="317.6" type="line"/>
      <point x="221.0" y="317.6" type="line"/>
      <point x="254.0" y="511.2" type="line"/>
      <point x="235.4" y="511.2" type="line"/>
      <point x="203.0" y="317.6" type="line"/>
      <point x="55.6" y="317.6" type="line"/>
      <point x="52.6" y="299.0" type="line"/>
      <point x="199.4" y="299.0" type="line"/>
      <point x="166.8" y="92.6" type="line"/>
      <point x="20.6" y="92.6" type="line"/>
      <point x="17.6" y="74.0" type="line"/>
    </contour>
  </outline>
</glyph>
<glyph name="uni00B2" format="2">
  <advance width="342"/>
  <unicode hex="00B2"/>
  <outline>
    <contour>
      <point x="62" y="368" type="line"/>
      <point x="308" y="368" type="line"/>
      <point x="309" y="385" type="line"/>
      <point x="89" y="385" type="line"/>
      <point x="203" y="490"/>
      <point x="310" y="586"/>
      <point x="310" y="693" type="curve" smooth="yes"/>
      <point x="310" y="744"/>
      <point x="282" y="772"/>
      <point x="229" y="772" type="curve" smooth="yes"/>
      <point x="194" y="772"/>
      <point x="156" y="759"/>
      <point x="125" y="737" type="curve"/>
      <point x="133" y="724" type="line"/>
      <point x="165" y="746"/>
      <point x="196" y="756"/>
      <point x="228" y="756" type="curve" smooth="yes"/>
      <point x="271" y="756"/>
      <point x="294" y="732"/>
      <point x="294" y="689" type="curve" smooth="yes"/>
      <point x="293" y="595"/>
      <point x="195" y="502"/>
      <point x="62" y="382" type="curve"/>
    </contour>
  </outline>
</glyph>
<glyph name="uni00B5" format="2">
  <advance width="479.0"/>
  <unicode hex="00B5"/>
  <outline>
    <contour>
      <point x="2.8000000000000007" y="-210.0" type="line"/>
      <point x="21.200000000000003" y="-210.0" type="line"/>
      <point x="61.6" y="47.400000000000006" type="line"/>
      <point x="73.80000000000001" y="10.4"/>
      <point x="106.6" y="-10.0"/>
      <point x="158.2" y="-10.0" type="curve" smooth="yes"/>
      <point x="224.8" y="-10.0"/>
      <point x="278.0" y="10.4"/>
      <point x="344.6" y="47.6" type="curve"/>
      <point x="346.4" y="6.2"/>
      <point x="365.6" y="-10.0"/>
      <point x="397.0" y="-10.0" type="curve" smooth="yes"/>
      <point x="405.0" y="-10.0"/>
      <point x="423.8" y="-6.4"/>
      <point x="436.6" y="0.0" type="curve"/>
      <point x="432.4" y="15.2" type="line"/>
      <point x="419.6" y="10.2"/>
      <point x="405.6" y="7.2"/>
      <point x="398.6" y="7.2" type="curve" smooth="yes"/>
      <point x="373.20000000000005" y="7.2"/>
      <point x="362.4" y="20.8"/>
      <point x="362.4" y="50.6" type="curve" smooth="yes"/>
      <point x="362.4" y="62.8"/>
      <point x="364.6" y="87.4"/>
      <point x="435.20000000000005" y="530.0" type="curve"/>
      <point x="415.8" y="530.0" type="line"/>
      <point x="344.4" y="66.0" type="line"/>
      <point x="278.20000000000005" y="28.200000000000003"/>
      <point x="221.2" y="7.8"/>
      <point x="161.0" y="7.8" type="curve" smooth="yes"/>
      <point x="100.4" y="7.8"/>
      <point x="70.6" y="38.4"/>
      <point x="70.6" y="86.6" type="curve" smooth="yes"/>
      <point x="70.6" y="103.0"/>
      <point x="84.8" y="200.0"/>
      <point x="136.8" y="530.0" type="curve"/>
      <point x="117.8" y="530.0" type="line"/>
    </contour>
  </outline>
</glyph>
<glyph name="paragraph" format="2">
  <advance width="501.0"/>
  <unicode hex="00B6"/>
  <outline>
    <contour>
      <point x="327.6" y="-210.0" type="line"/>
      <point x="345.6" y="-210.0" type="line"/>
      <point x="495.6" y="740.0" type="line"/>
      <point x="477.6" y="740.0" type="line"/>
    </contour>
    <contour>
      <point x="202.0" y="198.6" type="line"/>
      <point x="125.0" y="211.0"/>
      <point x="77.2" y="275.4"/>
      <point x="77.2" y="372.0" type="curve" smooth="yes"/>
      <point x="77.2" y="559.0"/>
      <point x="170.6" y="718.4"/>
      <point x="342.4" y="723.2" type="curve"/>
      <point x="195.4" y="-210.0" type="line"/>
      <point x="213.4" y="-210.0" type="line"/>
      <point x="363.4" y="740.0" type="line"/>
      <point x="350.6" y="740.0" type="line" smooth="yes"/>
      <point x="164.4" y="740.0"/>
      <point x="58.400000000000006" y="572.6"/>
      <point x="58.400000000000006" y="369.6" type="curve" smooth="yes"/>
      <point x="58.400000000000006" y="264.4"/>
      <point x="110.6" y="193.6"/>
      <point x="197.0" y="179.4" type="curve"/>
    </contour>
  </outline>
</glyph>
<glyph name="periodcentered" format="2">
  <advance width="140.0"/>
  <unicode hex="00B7"/>
  <outline>
    <contour>
      <point x="56.6" y="284.2" type="curve" smooth="yes"/>
      <point x="55.0" y="272.2"/>
      <point x="57.2" y="270.0"/>
      <point x="68.4" y="270.0" type="curve" smooth="yes"/>
      <point x="82.8" y="270.0"/>
      <point x="83.8" y="271.0"/>
      <point x="86.2" y="289.8" type="curve" smooth="yes"/>
      <point x="87.8" y="301.2"/>
      <point x="86.2" y="304.0"/>
      <point x="75.0" y="304.0" type="curve" smooth="yes"/>
      <point x="60.6" y="304.0"/>
      <point x="59.0" y="303.0"/>
    </contour>
  </outline>
</glyph>
<glyph name="uni00B9" format="2">
  <advance width="326.6"/>
  <unicode hex="00B9"/>
  <outline>
    <contour>
      <point x="43.2" y="370.0" type="line"/>
      <point x="319.0" y="370.0" type="line"/>
      <point x="321.0" y="386.6" type="line"/>
      <point x="202.8" y="386.6" type="line"/>
      <point x="264.2" y="769.2" type="line"/>
      <point x="253.60000000000002" y="769.2" type="line"/>
      <point x="91.8" y="680.6" type="line"/>
      <point x="97.4" y="665.8" type="line"/>
      <point x="243.4" y="742.6" type="line"/>
      <point x="185.8" y="386.6" type="line"/>
      <point x="45.4" y="386.6" type="line"/>
    </contour>
  </outline>
</glyph>
<glyph name="ordmasculine" format="2">
  <advance width="311.2"/>
  <unicode hex="00BA"/>
  <outline>
    <contour>
      <point x="43.8" y="291.2" type="line"/>
      <point x="266.4" y="291.2" type="line"/>
      <point x="268.8" y="308.0" type="line"/>
      <point x="46.2" y="308.0" type="line"/>
    </contour>
    <component base="o.superior" xOffset="14.0"/>
  </outline>
</glyph>
<glyph name="AE" format="2">
  <advance width="797.4000000000001"/>
  <unicode hex="00C6"/>
  <anchor x="364.7776" y="0.0" name="bottom"/>
  <anchor x="476.4" y="700.0" name="top"/>
  <outline>
    <contour>
      <point x="338.6" y="0.0" type="line"/>
      <point x="723.2" y="0.0" type="line"/>
      <point x="726.2" y="19.0" type="line"/>
      <point x="360.6" y="19.0" type="line"/>
      <point x="410.8" y="339.2" type="line"/>
      <point x="729.6" y="339.2" type="line"/>
      <point x="732.6" y="358.2" type="line"/>
      <point x="413.8" y="358.2" type="line"/>
      <point x="465.0" y="681.0" type="line"/>
      <point x="814.4000000000001" y="681.0" type="line"/>
      <point x="818.0" y="700.0" type="line"/>
      <point x="438.20000000000005" y="700.0" type="line"/>
      <point x="-37.2" y="0.0" type="line"/>
      <point x="-13.8" y="0.0" type="line"/>
      <point x="217.4" y="339.2" type="line"/>
      <point x="391.8" y="339.2" type="line"/>
    </contour>
    <contour>
      <point x="230.2" y="358.2" type="line"/>
      <point x="445.4" y="679.2" type="line"/>
      <point x="394.8" y="358.2" type="line"/>
    </contour>
  </outline>
</glyph>
<glyph name="multiply" format="2">
  <advance width="397.2"/>
  <unicode hex="00D7"/>
  <outline>
    <contour>
      <point x="42.8" y="77.0" type="line"/>
      <point x="198.0" y="268.8" type="line"/>
      <point x="290.4" y="79.4" type="line"/>
      <point x="306.4" y="90.4" type="line"/>
      <point x="211.0" y="287.6" type="line"/>
      <point x="373.6" y="488.4" type="line"/>
      <point x="359.6" y="499.8" type="line"/>
      <point x="202.4" y="306.8" type="line"/>
      <point x="108.0" y="499.8" type="line"/>
      <point x="92.0" y="488.8" type="line"/>
      <point x="188.8" y="288.6" type="line"/>
      <point x="28.8" y="88.4" type="line"/>
    </contour>
  </outline>
</glyph>
<glyph name="Thorn" format="2">
  <advance width="538"/>
  <unicode hex="00DE"/>
  <outline>
    <contour>
      <point x="37" y="0" type="line"/>
      <point x="56" y="0" type="line"/>
      <point x="85" y="180" type="line"/>
      <point x="146" y="178"/>
      <point x="191" y="178"/>
      <point x="254" y="178" type="curve" smooth="yes"/>
      <point x="422" y="178"/>
      <point x="521" y="258"/>
      <point x="521" y="440" type="curve" smooth="yes"/>
      <point x="521" y="546"/>
      <point x="455" y="613"/>
      <point x="303" y="613" type="curve" smooth="yes"/>
      <point x="272" y="613"/>
      <point x="232" y="612"/>
      <point x="151" y="607" type="curve"/>
      <point x="166" y="700" type="line"/>
      <point x="147" y="700" type="line"/>
    </contour>
    <contour>
      <point x="252" y="196" type="curve" smooth="yes"/>
      <point x="183" y="196"/>
      <point x="147" y="197"/>
      <point x="88" y="200" type="curve"/>
      <point x="149" y="588" type="line"/>
      <point x="231" y="593"/>
      <point x="268" y="594"/>
      <point x="300" y="594" type="curve" smooth="yes"/>
      <point x="443" y="594"/>
      <point x="502" y="537"/>
      <point x="502" y="435" type="curve" smooth="yes"/>
      <point x="502" y="272"/>
      <point x="418" y="196"/>
    </contour>
  </outline>
</glyph>
<glyph name="ae" format="2">
  <advance width="781"/>
  <unicode hex="00E6"/>
  <anchor x="355" y="0" name="bottom"/>
  <anchor x="426" y="530" name="top"/>
  <outline>
    <contour>
      <point x="183" y="-10" type="curve" smooth="yes"/>
      <point x="242" y="-10"/>
      <point x="298" y="12"/>
      <point x="335" y="37" type="curve"/>
      <point x="328" y="-5" type="line"/>
      <point x="346" y="-5" type="line"/>
      <point x="369" y="138" type="line"/>
      <point x="381" y="43"/>
      <point x="440" y="-10"/>
      <point x="539" y="-10" type="curve" smooth="yes"/>
      <point x="598" y="-10"/>
      <point x="670" y="5"/>
      <point x="719" y="27" type="curve"/>
      <point x="712" y="43" type="line"/>
      <point x="657" y="21"/>
      <point x="593" y="8"/>
      <point x="541" y="8" type="curve" smooth="yes"/>
      <point x="440" y="8"/>
      <point x="383" y="72"/>
      <point x="383" y="182" type="curve" smooth="yes"/>
      <point x="383" y="381"/>
      <point x="483" y="522"/>
      <point x="631" y="522" type="curve" smooth="yes"/>
      <point x="711" y="522"/>
      <point x="751" y="491"/>
      <point x="751" y="438" type="curve" smooth="yes"/>
      <point x="751" y="363"/>
      <point x="672" y="303"/>
      <point x="542" y="281" type="curve" smooth="yes"/>
      <point x="487" y="270"/>
      <point x="428" y="268"/>
      <point x="378" y="271" type="curve"/>
      <point x="376" y="253" type="line"/>
      <point x="423" y="249"/>
      <point x="485" y="251"/>
      <point x="539" y="262" type="curve" smooth="yes"/>
      <point x="684" y="286"/>
      <point x="769" y="351"/>
      <point x="769" y="440" type="curve" smooth="yes"/>
      <point x="769" y="503"/>
      <point x="719" y="540"/>
      <point x="633" y="540" type="curve" smooth="yes"/>
      <point x="535" y="540"/>
      <point x="452" y="485"/>
      <point x="408" y="386" type="curve"/>
      <point x="431" y="536" type="line"/>
      <point x="413" y="536" type="line"/>
      <point x="409" y="509" type="line"/>
      <point x="376" y="529"/>
      <point x="334" y="540"/>
      <point x="295" y="540" type="curve" smooth="yes"/>
      <point x="149" y="540"/>
      <point x="32" y="394"/>
      <point x="32" y="166" type="curve" smooth="yes"/>
      <point x="32" y="52"/>
      <point x="87" y="-10"/>
    </contour>
    <contour>
      <point x="185" y="8" type="curve" smooth="yes"/>
      <point x="101" y="8"/>
      <point x="51" y="61"/>
      <point x="51" y="167" type="curve" smooth="yes"/>
      <point x="51" y="387"/>
      <point x="166" y="523"/>
      <point x="293" y="523" type="curve" smooth="yes"/>
      <point x="334" y="523"/>
      <point x="373" y="513"/>
      <point x="406" y="489" type="curve"/>
      <point x="338" y="59" type="line"/>
      <point x="296" y="29"/>
      <point x="237" y="8"/>
    </contour>
  </outline>
</glyph>
<glyph name="eth" format="2">
  <advance width="507"/>
  <unicode hex="00F0"/>
  <outline>
    <contour>
      <point x="468" y="451" type="curve"/>
      <point x="472" y="470" type="line"/>
      <point x="433" y="511"/>
      <point x="373" y="534"/>
      <point x="306" y="534" type="curve" smooth="yes"/>
      <point x="153" y="534"/>
      <point x="41" y="382"/>
      <point x="41" y="175" type="curve" smooth="yes"/>
      <point x="41" y="59"/>
      <point x="102" y="-10"/>
      <point x="206" y="-10" type="curve" smooth="yes"/>
      <point x="340" y="-10"/>
      <point x="422" y="88"/>
      <point x="458" y="292" type="curve" smooth="yes"/>
      <point x="471" y="362"/>
      <point x="476" y="413"/>
      <point x="476" y="464" type="curve" smooth="yes"/>
      <point x="476" y="619"/>
      <point x="386" y="710"/>
      <point x="233" y="710" type="curve" smooth="yes"/>
      <point x="195" y="710"/>
      <point x="159" y="706"/>
      <point x="112" y="697" type="curve"/>
      <point x="115" y="679" type="line"/>
      <point x="166" y="689"/>
      <point x="194" y="692"/>
      <point x="232" y="692" type="curve" smooth="yes"/>
      <point x="376" y="692"/>
      <point x="456" y="609"/>
      <point x="456" y="462" type="curve" smooth="yes"/>
      <point x="456" y="405"/>
      <point x="451" y="351"/>
      <point x="439" y="292" type="curve" smooth="yes"/>
      <point x="402" y="99"/>
      <point x="328" y="8"/>
      <point x="207" y="8" type="curve" smooth="yes"/>
      <point x="113" y="8"/>
      <point x="60" y="67"/>
      <point x="60" y="174" type="curve" smooth="yes"/>
      <point x="60" y="372"/>
      <point x="164" y="517"/>
      <point x="305" y="517" type="curve" smooth="yes"/>
      <point x="371" y="517"/>
      <point x="426" y="495"/>
    </contour>
    <contour>
      <point x="201" y="579" type="line"/>
      <point x="384" y="654" type="line"/>
      <point x="381" y="654" type="line"/>
      <point x="535" y="718" type="line"/>
      <point x="493" y="718" type="line"/>
      <point x="370" y="667" type="line"/>
      <point x="372" y="667" type="line"/>
      <point x="159" y="579" type="line"/>
    </contour>
  </outline>
</glyph>
<glyph name="divide" format="2">
  <advance width="409.2"/>
  <unicode hex="00F7"/>
  <outline>
    <contour>
      <point x="158.6" y="81.6" type="curve" smooth="yes"/>
      <point x="157.6" y="73.2"/>
      <point x="159.8" y="71.6"/>
      <point x="170.4" y="71.6" type="curve" smooth="yes"/>
      <point x="187.2" y="71.6"/>
      <point x="187.6" y="72.6"/>
      <point x="190.6" y="95.6" type="curve" smooth="yes"/>
      <point x="191.6" y="104.6"/>
      <point x="188.2" y="105.6"/>
      <point x="178.2" y="105.6" type="curve" smooth="yes"/>
      <point x="162.6" y="105.6"/>
      <point x="161.6" y="104.6"/>
    </contour>
    <contour>
      <point x="223.0" y="482.4" type="curve" smooth="yes"/>
      <point x="222.0" y="474.0"/>
      <point x="224.2" y="472.4"/>
      <point x="234.8" y="472.4" type="curve" smooth="yes"/>
      <point x="251.6" y="472.4"/>
      <point x="252.0" y="473.4"/>
      <point x="255.0" y="496.4" type="curve" smooth="yes"/>
      <point x="256.0" y="505.4"/>
      <point x="252.6" y="506.4"/>
      <point x="242.6" y="506.4" type="curve" smooth="yes"/>
      <point x="227.0" y="506.4"/>
      <point x="226.0" y="505.4"/>
    </contour>
    <contour>
      <point x="49.6" y="279.0" type="line"/>
      <point x="361.2" y="279.0" type="line"/>
      <point x="364.6" y="299.0" type="line"/>
      <point x="53.0" y="299.0" type="line"/>
    </contour>
  </outline>
</glyph>
<glyph name="oslash" format="2">
  <advance width="470"/>
  <unicode hex="00F8"/>
  <anchor x="273" y="530" name="top"/>
  <outline>
    <contour>
      <point x="450" y="540" type="line"/>
      <point x="397" y="475" type="line"/>
      <point x="396" y="475" type="line"/>
      <point x="68" y="71" type="line"/>
      <point x="67" y="71" type="line"/>
      <point x="1" y="-10" type="line"/>
      <point x="24" y="-10" type="line"/>
      <point x="77" y="55" type="line"/>
      <point x="78" y="55" type="line"/>
      <point x="406" y="459" type="line"/>
      <point x="407" y="459" type="line"/>
      <point x="473" y="540" type="line"/>
    </contour>
    <contour>
      <point x="199" y="-10" type="curve" smooth="yes"/>
      <point x="345" y="-10"/>
      <point x="433" y="156"/>
      <point x="433" y="362" type="curve" smooth="yes"/>
      <point x="433" y="478"/>
      <point x="374" y="540"/>
      <point x="275" y="540" type="curve" smooth="yes"/>
      <point x="132" y="540"/>
      <point x="41" y="368"/>
      <point x="41" y="166" type="curve" smooth="yes"/>
      <point x="41" y="48"/>
      <point x="97" y="-10"/>
    </contour>
    <contour>
      <point x="201" y="8" type="curve" smooth="yes"/>
      <point x="107" y="8"/>
      <point x="60" y="58"/>
      <point x="60" y="170" type="curve" smooth="yes"/>
      <point x="60" y="356"/>
      <point x="144" y="522"/>
      <point x="274" y="522" type="curve" smooth="yes"/>
      <point x="364" y="522"/>
      <point x="414" y="467"/>
      <point x="414" y="357" type="curve" smooth="yes"/>
      <point x="414" y="166"/>
      <point x="334" y="8"/>
    </contour>
  </outline>
</glyph>
<glyph name="thorn" format="2">
  <advance width="470.0"/>
  <unicode hex="00FE"/>
  <outline>
    <contour>
      <point x="1.8000000000000007" y="-210.0" type="line"/>
      <point x="20.200000000000003" y="-210.0" type="line"/>
      <point x="54.4" y="4.6000000000000005" type="line"/>
      <point x="84.4" y="-3.1999999999999993"/>
      <point x="119.8" y="-10.0"/>
      <point x="163.60000000000002" y="-10.0" type="curve" smooth="yes"/>
      <point x="326.0" y="-10.0"/>
      <point x="436.4" y="164.0"/>
      <point x="436.4" y="366.2" type="curve" smooth="yes"/>
      <point x="436.4" y="482.4"/>
      <point x="387.8" y="540.0"/>
      <point x="297.20000000000005" y="540.0" type="curve" smooth="yes"/>
      <point x="234.2" y="540.0"/>
      <point x="183.8" y="514.2"/>
      <point x="129.0" y="479.0" type="curve"/>
      <point x="170.8" y="740.0" type="line"/>
      <point x="151.8" y="740.0" type="line"/>
    </contour>
    <contour>
      <point x="162.8" y="8.4" type="curve" smooth="yes"/>
      <point x="119.4" y="8.4"/>
      <point x="84.0" y="16.4"/>
      <point x="57.4" y="24.4" type="curve"/>
      <point x="125.6" y="456.0" type="line"/>
      <point x="183.0" y="497.6"/>
      <point x="240.60000000000002" y="521.6"/>
      <point x="293.20000000000005" y="521.6" type="curve" smooth="yes"/>
      <point x="374.0" y="521.6"/>
      <point x="417.4" y="468.0"/>
      <point x="417.4" y="362.8" type="curve" smooth="yes"/>
      <point x="417.4" y="174.0"/>
      <point x="313.0" y="8.4"/>
    </contour>
  </outline>
</glyph>
<glyph name="Dcroat" format="2">
  <advance width="603.8"/>
  <unicode hex="0110"/>
  <outline>
    <contour>
      <point x="23.2" y="352.6" type="line"/>
      <point x="255.0" y="352.6" type="line"/>
      <point x="258.0" y="370.0" type="line"/>
      <point x="27.0" y="370.0" type="line"/>
    </contour>
    <component base="D" xOffset="4.199999999999999"/>
  </outline>
</glyph>
<glyph name="dcroat" format="2">
  <advance width="471.8"/>
  <unicode hex="0111"/>
  <outline>
    <contour>
      <point x="273.8" y="619.8" type="line"/>
      <point x="534.0" y="619.8" type="line"/>
      <point x="537.0" y="636.0" type="line"/>
      <point x="276.8" y="636.0" type="line"/>
    </contour>
    <component base="d"/>
  </outline>
</glyph>
<glyph name="Hbar" format="2">
  <advance width="623.8"/>
  <unicode hex="0126"/>
  <outline>
    <contour>
      <point x="54.8" y="501.2" type="line"/>
      <point x="641.0" y="501.2" type="line"/>
      <point x="643.4000000000001" y="518.2" type="line"/>
      <point x="57.2" y="518.2" type="line"/>
    </contour>
    <component base="H" xOffset="1.0"/>
  </outline>
</glyph>
<glyph name="hbar" format="2">
  <advance width="488.0"/>
  <unicode hex="0127"/>
  <outline>
    <contour>
      <point x="54.6" y="619.8" type="line"/>
      <point x="305.4" y="619.8" type="line"/>
      <point x="308.4" y="636.0" type="line"/>
      <point x="57.6" y="636.0" type="line"/>
    </contour>
    <component base="h"/>
  </outline>
</glyph>
<glyph name="Idotaccent" format="2">
  <advance width="182.0"/>
  <unicode hex="0130"/>
  <outline>
    <contour>
      <point x="183.2" y="853.0" type="curve" smooth="yes"/>
      <point x="169.6" y="853.0"/>
      <point x="167.6" y="851.8"/>
      <point x="165.4" y="827.0" type="curve" smooth="yes"/>
      <point x="164.8" y="819.4"/>
      <point x="170.2" y="819.0"/>
      <point x="175.8" y="819.0" type="curve" smooth="yes"/>
      <point x="191.4" y="819.0"/>
      <point x="191.8" y="820.2"/>
      <point x="194.4" y="845.4" type="curve" smooth="yes"/>
      <point x="195.0" y="852.6"/>
      <point x="190.8" y="853.0"/>
    </contour>
    <component base="I"/>
  </outline>
</glyph>
<glyph name="dotlessi" format="2">
  <advance width="174.6"/>
  <unicode hex="0131"/>
  <anchor x="42.8" y="0.0" name="bottom"/>
  <anchor x="52.8" y="0.0" name="ogonek"/>
  <anchor x="127.2" y="530.0" name="top"/>
  <outline>
    <contour>
      <point x="52.8" y="0.0" type="line"/>
      <point x="136.8" y="530.0" type="line"/>
      <point x="117.8" y="530.0" type="line"/>
      <point x="34.400000000000006" y="0.0" type="line"/>
    </contour>
  </outline>
</glyph>
<glyph name="Ldot" format="2">
  <advance width="439.4"/>
  <unicode hex="013F"/>
  <outline>
    <contour>
      <point x="312.4" y="359.0" type="curve" smooth="yes"/>
      <point x="310.8" y="347.0"/>
      <point x="313.0" y="344.8"/>
      <point x="324.20000000000005" y="344.8" type="curve" smooth="yes"/>
      <point x="338.6" y="344.8"/>
      <point x="339.6" y="345.8"/>
      <point x="342.0" y="364.6" type="curve" smooth="yes"/>
      <point x="343.6" y="376.0"/>
      <point x="342.0" y="378.8"/>
      <point x="330.8" y="378.8" type="curve" smooth="yes"/>
      <point x="316.4" y="378.8"/>
      <point x="314.8" y="377.8"/>
    </contour>
    <component base="L"/>
  </outline>
</glyph>
<glyph name="ldot" format="2">
  <advance width="232.60000000000002"/>
  <unicode hex="0140"/>
  <outline>
    <contour>
      <point x="204.2" y="354.2" type="curve" smooth="yes"/>
      <point x="202.6" y="342.2"/>
      <point x="204.8" y="340.0"/>
      <point x="216.0" y="340.0" type="curve" smooth="yes"/>
      <point x="230.4" y="340.0"/>
      <point x="231.4" y="341.0"/>
      <point x="233.8" y="359.8" type="curve" smooth="yes"/>
      <point x="235.4" y="371.2"/>
      <point x="233.8" y="374.0"/>
      <point x="222.60000000000002" y="374.0" type="curve" smooth="yes"/>
      <point x="208.2" y="374.0"/>
      <point x="206.6" y="373.0"/>
    </contour>
    <component base="l"/>
  </outline>
</glyph>
<glyph name="Lslash" format="2">
  <advance width="443.0"/>
  <unicode hex="0141"/>
  <outline>
    <contour>
      <point x="39.6" y="0.0" type="line"/>
      <point x="388.6" y="0.0" type="line"/>
      <point x="391.6" y="19.0" type="line"/>
      <point x="61.6" y="19.0" type="line"/>
      <point x="100.2" y="262.2" type="line"/>
      <point x="328.8" y="413.6" type="line"/>
      <point x="332.8" y="438.0" type="line"/>
      <point x="104.2" y="286.6" type="line"/>
      <point x="169.6" y="700.0" type="line"/>
      <point x="150.6" y="700.0" type="line"/>
      <point x="82.6" y="269.8" type="line"/>
      <point x="18.200000000000003" y="225.0" type="line"/>
      <point x="13.600000000000001" y="200.0" type="line"/>
      <point x="78.0" y="244.8" type="line"/>
    </contour>
  </outline>
</glyph>
<glyph name="lslash" format="2">
  <advance width="207.4"/>
  <unicode hex="0142"/>
  <outline>
    <contour>
      <point x="7.800000000000001" y="176.4" type="line"/>
      <point x="205.60000000000002" y="381.0" type="line"/>
      <point x="209.60000000000002" y="409.0" type="line"/>
      <point x="11.8" y="204.4" type="line"/>
    </contour>
    <component base="l"/>
  </outline>
</glyph>
<glyph name="eng" format="2">
  <advance width="485.6"/>
  <unicode hex="014B"/>
  <outline>
    <contour>
      <point x="351.6" y="-73.4" type="curve" smooth="yes"/>
      <point x="402.6" y="254.2"/>
      <point x="431.8" y="426.8"/>
      <point x="431.8" y="442.8" type="curve" smooth="yes"/>
      <point x="431.8" y="502.4"/>
      <point x="394.8" y="540.0"/>
      <point x="321.0" y="540.0" type="curve" smooth="yes"/>
      <point x="252.0" y="540.0"/>
      <point x="193.60000000000002" y="514.8"/>
      <point x="129.0" y="482.2" type="curve"/>
      <point x="136.8" y="530.0" type="line"/>
      <point x="117.8" y="530.0" type="line"/>
      <point x="34.2" y="0.0" type="line"/>
      <point x="52.6" y="0.0" type="line"/>
      <point x="126.0" y="462.0" type="line"/>
      <point x="192.4" y="497.0"/>
      <point x="249.60000000000002" y="522.2"/>
      <point x="315.0" y="522.2" type="curve" smooth="yes"/>
      <point x="383.4" y="522.2"/>
      <point x="412.0" y="490.8"/>
      <point x="412.0" y="437.8" type="curve" smooth="yes"/>
      <point x="412.0" y="420.2"/>
      <point x="384.0" y="253.79999999999998"/>
      <point x="333.6" y="-68.4" type="curve" smooth="yes"/>
      <point x="320.20000000000005" y="-152.8"/>
      <point x="295.4" y="-205.4"/>
      <point x="236.20000000000002" y="-205.4" type="curve" smooth="yes"/>
      <point x="224.20000000000002" y="-205.4"/>
      <point x="211.20000000000002" y="-204.0"/>
      <point x="194.8" y="-198.4" type="curve"/>
      <point x="189.8" y="-215.4" type="line"/>
      <point x="203.4" y="-220.6"/>
      <point x="225.60000000000002" y="-222.4"/>
      <point x="237.8" y="-222.4" type="curve" smooth="yes"/>
      <point x="304.0" y="-222.4"/>
      <point x="336.6" y="-169.6"/>
    </contour>
  </outline>
</glyph>
<glyph name="OE" format="2">
  <advance width="915.0"/>
  <unicode hex="0152"/>
  <outline>
    <contour>
      <point x="840.8" y="0.0" type="line"/>
      <point x="843.8" y="19.0" type="line"/>
      <point x="478.6" y="19.0" type="line"/>
      <point x="532.8" y="362.0" type="line"/>
      <point x="861.8" y="362.0" type="line"/>
      <point x="864.8" y="381.0" type="line"/>
      <point x="535.8" y="381.0" type="line"/>
      <point x="583.0" y="681.0" type="line"/>
      <point x="932.0" y="681.0" type="line"/>
      <point x="935.6" y="700.0" type="line"/>
      <point x="583.0" y="700.0" type="line"/>
      <point x="524.6" y="704.6"/>
      <point x="458.6" y="710.0"/>
      <point x="409.20000000000005" y="710.0" type="curve" smooth="yes"/>
      <point x="192.4" y="710.0"/>
      <point x="53.2" y="530.2"/>
      <point x="53.2" y="221.2" type="curve" smooth="yes"/>
      <point x="53.2" y="56.400000000000006"/>
      <point x="135.8" y="-10.0"/>
      <point x="310.8" y="-10.0" type="curve" smooth="yes"/>
      <point x="359.4" y="-10.0"/>
      <point x="411.8" y="-6.4"/>
      <point x="473.8" y="0.0" type="curve"/>
    </contour>
    <contour>
      <point x="459.0" y="16.4" type="line"/>
      <point x="405.20000000000005" y="10.6"/>
      <point x="363.6" y="8.4"/>
      <point x="315.0" y="8.4" type="curve" smooth="yes"/>
      <point x="143.0" y="8.4"/>
      <point x="72.6" y="78.0"/>
      <point x="72.6" y="226.6" type="curve" smooth="yes"/>
      <point x="72.6" y="510.0"/>
      <point x="206.2" y="692.2"/>
      <point x="411.8" y="692.2" type="curve" smooth="yes"/>
      <point x="440.0" y="692.2"/>
      <point x="537.2" y="687.6"/>
      <point x="564.6" y="684.4" type="curve"/>
    </contour>
  </outline>
</glyph>
<glyph name="oe" format="2">
  <advance width="811"/>
  <unicode hex="0153"/>
  <outline>
    <contour>
      <point x="204" y="-10" type="curve" smooth="yes"/>
      <point x="287" y="-10"/>
      <point x="356" y="55"/>
      <point x="395" y="170" type="curve"/>
      <point x="399" y="53"/>
      <point x="459" y="-10"/>
      <point x="569" y="-10" type="curve" smooth="yes"/>
      <point x="628" y="-10"/>
      <point x="700" y="5"/>
      <point x="749" y="27" type="curve"/>
      <point x="742" y="43" type="line"/>
      <point x="687" y="21"/>
      <point x="623" y="8"/>
      <point x="571" y="8" type="curve" smooth="yes"/>
      <point x="471" y="8"/>
      <point x="413" y="71"/>
      <point x="413" y="181" type="curve" smooth="yes"/>
      <point x="413" y="381"/>
      <point x="516" y="522"/>
      <point x="661" y="522" type="curve" smooth="yes"/>
      <point x="739" y="522"/>
      <point x="781" y="492"/>
      <point x="781" y="437" type="curve" smooth="yes"/>
      <point x="781" y="363"/>
      <point x="701" y="303"/>
      <point x="572" y="280" type="curve" smooth="yes"/>
      <point x="522" y="271"/>
      <point x="463" y="268"/>
      <point x="413" y="271" type="curve"/>
      <point x="410" y="252" type="line"/>
      <point x="466" y="250"/>
      <point x="526" y="253"/>
      <point x="569" y="261" type="curve" smooth="yes"/>
      <point x="714" y="286"/>
      <point x="799" y="352"/>
      <point x="799" y="440" type="curve" smooth="yes"/>
      <point x="799" y="503"/>
      <point x="749" y="540"/>
      <point x="663" y="540" type="curve" smooth="yes"/>
      <point x="558" y="540"/>
      <point x="472" y="476"/>
      <point x="428" y="366" type="curve"/>
      <point x="427" y="479"/>
      <point x="368" y="540"/>
      <point x="260" y="540" type="curve" smooth="yes"/>
      <point x="139" y="540"/>
      <point x="36" y="368"/>
      <point x="36" y="166" type="curve" smooth="yes"/>
      <point x="36" y="48"/>
      <point x="92" y="-10"/>
    </contour>
    <contour>
      <point x="206" y="8" type="curve" smooth="yes"/>
      <point x="102" y="8"/>
      <point x="55" y="58"/>
      <point x="55" y="170" type="curve" smooth="yes"/>
      <point x="55" y="356"/>
      <point x="151" y="522"/>
      <point x="259" y="522" type="curve" smooth="yes"/>
      <point x="359" y="522"/>
      <point x="409" y="467"/>
      <point x="409" y="357" type="curve" smooth="yes"/>
      <point x="409" y="166"/>
      <point x="317" y="8"/>
    </contour>
  </outline>
</glyph>
<glyph name="uni0162" format="2">
  <advance width="440.4"/>
  <unicode hex="0162"/>
  <anchor x="176.2" y="0.0" name="_bottom"/>
  <anchor x="136.60000000000002" y="-220.0" name="bottom"/>
  <outline>
    <contour>
      <point x="65.60000000000001" y="-198.0" type="line"/>
      <point x="88.80000000000001" y="-214.0"/>
      <point x="111.60000000000001" y="-220.0"/>
      <point x="140.2" y="-220.0" type="curve" smooth="yes"/>
      <point x="199.20000000000002" y="-220.0"/>
      <point x="229.0" y="-166.4"/>
      <point x="229.0" y="-107.0" type="curve" smooth="yes"/>
      <point x="229.0" y="-63.0"/>
      <point x="210.4" y="-24.4"/>
      <point x="183.0" y="2.0" type="curve"/>
      <point x="166.60000000000002" y="0.0" type="line"/>
      <point x="195.6" y="-32.8"/>
      <point x="210.20000000000002" y="-66.6"/>
      <point x="210.20000000000002" y="-107.2" type="curve" smooth="yes"/>
      <point x="210.20000000000002" y="-166.6"/>
      <point x="182.8" y="-202.6"/>
      <point x="139.0" y="-202.6" type="curve" smooth="yes"/>
      <point x="114.60000000000001" y="-202.6"/>
      <point x="95.0" y="-195.2"/>
      <point x="74.0" y="-182.2" type="curve"/>
    </contour>
    <component base="T"/>
  </outline>
</glyph>
<glyph name="Tbar" format="2">
  <advance width="442.8"/>
  <unicode hex="0166"/>
  <outline>
    <contour>
      <point x="500.6" y="681.0" type="line"/>
      <point x="503.6" y="700.0" type="line"/>
      <point x="73.2" y="700.0" type="line"/>
      <point x="70.2" y="681.0" type="line"/>
      <point x="275.8" y="681.0" type="line"/>
      <point x="229.2" y="390.0" type="line"/>
      <point x="81.4" y="390.0" type="line"/>
      <point x="78.4" y="372.6" type="line"/>
      <point x="226.8" y="372.6" type="line"/>
      <point x="167.8" y="0.0" type="line"/>
      <point x="186.8" y="0.0" type="line"/>
      <point x="245.8" y="372.6" type="line"/>
      <point x="398.6" y="372.6" type="line"/>
      <point x="401.6" y="390.0" type="line"/>
      <point x="248.8" y="390.0" type="line"/>
      <point x="294.8" y="681.0" type="line"/>
    </contour>
  </outline>
</glyph>
<glyph name="tbar" format="2">
  <advance width="320.20000000000005"/>
  <unicode hex="0167"/>
  <outline>
    <contour>
      <point x="29.8" y="314.6" type="line"/>
      <point x="288.4" y="314.6" type="line"/>
      <point x="291.4" y="332.6" type="line"/>
      <point x="32.8" y="332.6" type="line"/>
    </contour>
    <contour>
      <point x="272.6" y="28.0" type="line"/>
      <point x="240.60000000000002" y="17.0"/>
      <point x="205.8" y="9.0"/>
      <point x="173.4" y="9.0" type="curve" smooth="yes"/>
      <point x="110.2" y="9.0"/>
      <point x="87.4" y="39.4"/>
      <point x="87.4" y="91.4" type="curve" smooth="yes"/>
      <point x="87.4" y="104.6"/>
      <point x="89.0" y="118.8"/>
      <point x="91.4" y="134.8" type="curve" smooth="yes"/>
      <point x="151.0" y="511.8" type="line"/>
      <point x="345.4" y="511.8" type="line"/>
      <point x="348.4" y="530.0" type="line"/>
      <point x="154.0" y="530.0" type="line"/>
      <point x="175.4" y="665.0" type="line"/>
      <point x="162.6" y="665.0" type="line"/>
      <point x="135.0" y="530.0" type="line"/>
      <point x="40.0" y="524.0" type="line"/>
      <point x="37.6" y="511.8" type="line"/>
      <point x="132.0" y="511.8" type="line"/>
      <point x="72.4" y="134.8" type="line" smooth="yes"/>
      <point x="69.4" y="117.4"/>
      <point x="68.0" y="99.0"/>
      <point x="68.0" y="86.2" type="curve" smooth="yes"/>
      <point x="68.0" y="22.6"/>
      <point x="100.2" y="-10.0"/>
      <point x="168.8" y="-10.0" type="curve" smooth="yes"/>
      <point x="197.60000000000002" y="-10.0"/>
      <point x="236.8" y="-4.4"/>
      <point x="278.0" y="10.600000000000001" type="curve"/>
    </contour>
  </outline>
</glyph>
<glyph name="uogonek" format="2">
  <advance width="475.20000000000005"/>
  <unicode hex="0173"/>
  <outline>
    <contour>
      <point x="369.0" y="-220.0" type="curve" smooth="yes"/>
      <point x="386.6" y="-220.0"/>
      <point x="402.20000000000005" y="-215.8"/>
      <point x="413.6" y="-209.6" type="curve"/>
      <point x="409.4" y="-195.0" type="line"/>
      <point x="398.20000000000005" y="-199.4"/>
      <point x="387.0" y="-202.6"/>
      <point x="372.20000000000005" y="-202.6" type="curve" smooth="yes"/>
      <point x="347.4" y="-202.6"/>
      <point x="329.4" y="-188.4"/>
      <point x="329.4" y="-156.8" type="curve" smooth="yes"/>
      <point x="329.4" y="-110.0"/>
      <point x="366.0" y="-52.4"/>
      <point x="435.4" y="0.0" type="curve"/>
      <point x="431.20000000000005" y="15.2" type="line"/>
      <point x="418.4" y="10.2"/>
      <point x="404.4" y="7.2"/>
      <point x="397.4" y="7.2" type="curve" smooth="yes"/>
      <point x="372.0" y="7.2"/>
      <point x="361.20000000000005" y="20.8"/>
      <point x="361.20000000000005" y="50.6" type="curve" smooth="yes"/>
      <point x="361.20000000000005" y="62.8"/>
      <point x="363.4" y="87.4"/>
      <point x="434.0" y="530.0" type="curve"/>
      <point x="414.6" y="530.0" type="line"/>
      <point x="343.20000000000005" y="66.0" type="line"/>
      <point x="277.0" y="28.200000000000003"/>
      <point x="220.0" y="7.8"/>
      <point x="159.8" y="7.8" type="curve" smooth="yes"/>
      <point x="99.2" y="7.8"/>
      <point x="69.4" y="38.4"/>
      <point x="69.4" y="86.6" type="curve" smooth="yes"/>
      <point x="69.4" y="100.6"/>
      <point x="71.0" y="118.4"/>
      <point x="135.6" y="530.0" type="curve"/>
      <point x="116.6" y="530.0" type="line"/>
      <point x="64.0" y="196.4"/>
      <point x="51.0" y="114.4"/>
      <point x="51.0" y="84.4" type="curve" smooth="yes"/>
      <point x="51.0" y="26.6"/>
      <point x="87.80000000000001" y="-10.0"/>
      <point x="157.0" y="-10.0" type="curve" smooth="yes"/>
      <point x="223.60000000000002" y="-10.0"/>
      <point x="276.8" y="10.4"/>
      <point x="343.4" y="47.6" type="curve"/>
      <point x="345.20000000000005" y="9.0"/>
      <point x="362.4" y="-10.0"/>
      <point x="394.6" y="-10.0" type="curve" smooth="yes"/>
      <point x="400.20000000000005" y="-10.0"/>
      <point x="406.0" y="-6.6"/>
      <point x="409.6" y="-3.1999999999999993" type="curve"/>
      <point x="351.0" y="-52.2"/>
      <point x="311.0" y="-104.6"/>
      <point x="311.0" y="-159.8" type="curve" smooth="yes"/>
      <point x="311.0" y="-200.6"/>
      <point x="337.20000000000005" y="-220.0"/>
    </contour>
  </outline>
</glyph>
<glyph name="longs" format="2">
  <advance width="210.8"/>
  <unicode hex="017F"/>
  <outline>
    <contour>
      <point x="-54.599999999999994" y="-220.0" type="curve" smooth="yes"/>
      <point x="17.6" y="-220.0"/>
      <point x="50.6" y="-163.0"/>
      <point x="71.2" y="-31.799999999999997" type="curve" smooth="yes"/>
      <point x="152.4" y="484.0" type="line" smooth="yes"/>
      <point x="179.6" y="657.6"/>
      <point x="228.0" y="731.0"/>
      <point x="320.0" y="731.0" type="curve" smooth="yes"/>
      <point x="361.4" y="731.0"/>
      <point x="390.0" y="723.6"/>
      <point x="426.4" y="713.0" type="curve"/>
      <point x="433.0" y="731.0" type="line"/>
      <point x="392.6" y="744.4"/>
      <point x="359.8" y="750.0"/>
      <point x="325.0" y="750.0" type="curve" smooth="yes"/>
      <point x="218.8" y="750.0"/>
      <point x="163.8" y="674.6"/>
      <point x="133.0" y="484.0" type="curve"/>
      <point x="47.4" y="478.4" type="line"/>
      <point x="45.4" y="465.0" type="line"/>
      <point x="130.0" y="465.0" type="line"/>
      <point x="51.6" y="-33.6" type="line" smooth="yes"/>
      <point x="33.4" y="-148.0"/>
      <point x="9.0" y="-204.2"/>
      <point x="-56.2" y="-204.2" type="curve" smooth="yes"/>
      <point x="-71.2" y="-204.2"/>
      <point x="-83.8" y="-201.8"/>
      <point x="-101.0" y="-196.0" type="curve"/>
      <point x="-105.8" y="-211.8" type="line"/>
      <point x="-89.0" y="-217.6"/>
      <point x="-72.8" y="-220.0"/>
    </contour>
  </outline>
</glyph>
<glyph name="florin" format="2">
  <advance width="563.6"/>
  <unicode hex="0192"/>
  <outline>
    <contour>
      <point x="214.4" y="366.0" type="line"/>
      <point x="460.6" y="366.0" type="line"/>
      <point x="463.6" y="384.8" type="line"/>
      <point x="217.4" y="384.8" type="line"/>
      <point x="224.60000000000002" y="426.8" type="line" smooth="yes"/>
      <point x="252.60000000000002" y="604.4"/>
      <point x="325.6" y="692.0"/>
      <point x="434.4" y="692.0" type="curve" smooth="yes"/>
      <point x="476.8" y="692.0"/>
      <point x="514.4" y="684.4"/>
      <point x="538.8" y="677.6" type="curve"/>
      <point x="546.0" y="695.0" type="line"/>
      <point x="520.4" y="702.4"/>
      <point x="481.0" y="710.0"/>
      <point x="440.6" y="710.0" type="curve" smooth="yes"/>
      <point x="315.2" y="710.0"/>
      <point x="238.8" y="628.0"/>
      <point x="207.0" y="427.6" type="curve" smooth="yes"/>
      <point x="199.8" y="384.8" type="line"/>
      <point x="104.80000000000001" y="384.8" type="line"/>
      <point x="101.80000000000001" y="366.0" type="line"/>
      <point x="196.8" y="366.0" type="line"/>
      <point x="106.4" y="-210.0" type="line"/>
      <point x="124.0" y="-210.0" type="line"/>
    </contour>
  </outline>
</glyph>
<glyph name="uni0237" format="2">
  <advance width="182.2"/>
  <unicode hex="0237"/>
  <anchor x="-61.599999999999994" y="-210.0" name="bottom"/>
  <anchor x="134.8" y="530.0" name="top"/>
  <outline>
    <contour>
      <point x="144.4" y="530.0" type="line"/>
      <point x="125.4" y="530.0" type="line"/>
      <point x="31.400000000000002" y="-66.0" type="line" smooth="yes"/>
      <point x="18.0" y="-150.4"/>
      <point x="-6.799999999999997" y="-203.0"/>
      <point x="-66.0" y="-203.0" type="curve" smooth="yes"/>
      <point x="-81.0" y="-203.0"/>
      <point x="-96.4" y="-201.0"/>
      <point x="-116.4" y="-193.6" type="curve"/>
      <point x="-120.8" y="-210.6" type="line"/>
      <point x="-104.8" y="-217.6"/>
      <point x="-80.2" y="-220.0"/>
      <point x="-64.4" y="-220.0" type="curve" smooth="yes"/>
      <point x="1.8000000000000007" y="-220.0"/>
      <point x="34.400000000000006" y="-167.2"/>
      <point x="49.400000000000006" y="-71.0" type="curve" smooth="yes"/>
    </contour>
  </outline>
</glyph>
<glyph name="uni0259" format="2">
  <advance width="463"/>
  <unicode hex="0259"/>
  <outline>
    <contour>
      <point x="409" y="264" type="curve"/>
      <point x="411" y="282" type="line"/>
      <point x="351" y="285"/>
      <point x="288" y="281"/>
      <point x="244" y="272" type="curve" smooth="yes"/>
      <point x="98" y="247"/>
      <point x="14" y="181"/>
      <point x="14" y="91" type="curve" smooth="yes"/>
      <point x="14" y="27"/>
      <point x="59" y="-10"/>
      <point x="138" y="-10" type="curve" smooth="yes"/>
      <point x="306" y="-10"/>
      <point x="423" y="142"/>
      <point x="423" y="358" type="curve" smooth="yes"/>
      <point x="423" y="479"/>
      <point x="366" y="540"/>
      <point x="254" y="540" type="curve" smooth="yes"/>
      <point x="187" y="540"/>
      <point x="127" y="528"/>
      <point x="73" y="504" type="curve"/>
      <point x="80" y="487" type="line"/>
      <point x="134" y="511"/>
      <point x="190" y="523"/>
      <point x="250" y="523" type="curve" smooth="yes"/>
      <point x="352" y="523"/>
      <point x="405" y="467"/>
      <point x="405" y="358" type="curve" smooth="yes"/>
      <point x="405" y="153"/>
      <point x="295" y="8"/>
      <point x="140" y="8" type="curve" smooth="yes"/>
      <point x="70" y="8"/>
      <point x="33" y="38"/>
      <point x="33" y="94" type="curve" smooth="yes"/>
      <point x="33" y="171"/>
      <point x="111" y="231"/>
      <point x="242" y="254" type="curve" smooth="yes"/>
      <point x="287" y="264"/>
      <point x="348" y="267"/>
    </contour>
  </outline>
</glyph>
<glyph name="gravecomb" format="2">
  <unicode hex="0300"/>
  <anchor x="-202.8" y="530.0" name="_top"/>
  <anchor x="-233.0" y="718.0" name="top"/>
  <outline>
    <contour>
      <point x="-195.4" y="596.0" type="line"/>
      <point x="-176.60000000000002" y="596.0" type="line"/>
      <point x="-275.20000000000005" y="790.0" type="line"/>
      <point x="-297.6" y="790.0" type="line"/>
    </contour>
  </outline>
</glyph>
<glyph name="acutecomb" format="2">
  <unicode hex="0301"/>
  <anchor x="-202.8" y="530.0" name="_top"/>
  <anchor x="-111.4" y="718.0" name="top"/>
  <outline>
    <contour>
      <point x="-209.0" y="596.0" type="line"/>
      <point x="-189.4" y="596.0" type="line"/>
      <point x="-22.799999999999997" y="790.0" type="line"/>
      <point x="-47.8" y="790.0" type="line"/>
    </contour>
  </outline>
</glyph>
<glyph name="uni0302" format="2">
  <unicode hex="0302"/>
  <anchor x="-202.8" y="530.0" name="_top"/>
  <anchor x="-170.2" y="731.0" name="top"/>
  <anchor x="-64.0" y="667.2" name="top_viet"/>
  <outline>
    <contour>
      <point x="-321.6" y="596.0" type="line"/>
      <point x="-302.0" y="596.0" type="line"/>
      <point x="-163.0" y="770.2" type="line"/>
      <point x="-79.4" y="596.0" type="line"/>
      <point x="-61.2" y="596.0" type="line"/>
      <point x="-148.60000000000002" y="790.0" type="line"/>
      <point x="-172.8" y="790.0" type="line"/>
    </contour>
  </outline>
</glyph>
<glyph name="tildecomb" format="2">
  <unicode hex="0303"/>
  <anchor x="-202.8" y="530.0" name="_top"/>
  <anchor x="-185.60000000000002" y="646.4" name="top"/>
  <outline>
    <contour>
      <point x="-321.20000000000005" y="607.2" type="curve"/>
      <point x="-304.6" y="607.2" type="line"/>
      <point x="-304.6" y="610.6"/>
      <point x="-307.4" y="583.8"/>
      <point x="-303.4" y="624.8" type="curve" smooth="yes"/>
      <point x="-301.0" y="672.6"/>
      <point x="-277.4" y="705.4"/>
      <point x="-247.8" y="705.4" type="curve" smooth="yes"/>
      <point x="-193.6" y="705.4"/>
      <point x="-186.2" y="607.2"/>
      <point x="-119.60000000000001" y="607.2" type="curve" smooth="yes"/>
      <point x="-76.60000000000001" y="607.2"/>
      <point x="-45.8" y="652.4"/>
      <point x="-43.0" y="711.4" type="curve" smooth="yes"/>
      <point x="-41.400000000000006" y="723.8"/>
      <point x="-41.8" y="722.4"/>
      <point x="-41.8" y="726.0" type="curve"/>
      <point x="-58.400000000000006" y="726.0" type="line"/>
      <point x="-58.400000000000006" y="721.8"/>
      <point x="-58.0" y="722.6"/>
      <point x="-59.60000000000001" y="709.6" type="curve" smooth="yes"/>
      <point x="-61.60000000000001" y="676.4"/>
      <point x="-81.2" y="625.2"/>
      <point x="-116.60000000000001" y="625.2" type="curve" smooth="yes"/>
      <point x="-174.8" y="625.2"/>
      <point x="-179.0" y="721.8"/>
      <point x="-244.8" y="721.8" type="curve" smooth="yes"/>
      <point x="-287.8" y="721.8"/>
      <point x="-317.20000000000005" y="683.0"/>
      <point x="-320.0" y="626.6" type="curve" smooth="yes"/>
      <point x="-324.0" y="585.0"/>
      <point x="-321.20000000000005" y="611.2"/>
    </contour>
  </outline>
</glyph>
<glyph name="uni0304" format="2">
  <unicode hex="0304"/>
  <anchor x="-202.8" y="530.0" name="_top"/>
  <anchor x="-174.8" y="704.2" name="top"/>
  <outline>
    <contour>
      <point x="-293.8" y="685.0" type="line"/>
      <point x="-61.8" y="685.0" type="line"/>
      <point x="-58.8" y="704.2" type="line"/>
      <point x="-290.8" y="704.2" type="line"/>
    </contour>
  </outline>
</glyph>
<glyph name="uni0306" format="2">
  <unicode hex="0306"/>
  <anchor x="-202.8" y="530.0" name="_top"/>
  <anchor x="-175.2" y="708.4" name="top"/>
  <outline>
    <contour>
      <point x="-191.2" y="609.2" type="curve" smooth="yes"/>
      <point x="-106.0" y="609.2"/>
      <point x="-55.2" y="644.2"/>
      <point x="-37.800000000000004" y="745.0" type="curve"/>
      <point x="-54.6" y="745.8" type="line"/>
      <point x="-70.60000000000001" y="661.8"/>
      <point x="-114.4" y="626.6"/>
      <point x="-188.2" y="626.6" type="curve" smooth="yes"/>
      <point x="-252.20000000000002" y="626.6"/>
      <point x="-284.8" y="648.0"/>
      <point x="-287.20000000000005" y="709.8" type="curve" smooth="yes"/>
      <point x="-287.20000000000005" y="723.0"/>
      <point x="-286.6" y="734.2"/>
      <point x="-284.4" y="745.8" type="curve"/>
      <point x="-300.6" y="745.0" type="line"/>
      <point x="-302.8" y="735.6"/>
      <point x="-304.0" y="721.4"/>
      <point x="-304.0" y="708.8" type="curve" smooth="yes"/>
      <point x="-304.0" y="636.2"/>
      <point x="-267.4" y="609.2"/>
    </contour>
  </outline>
</glyph>
<glyph name="uni0307" format="2">
  <unicode hex="0307"/>
  <anchor x="-202.8" y="530.0" name="_top"/>
  <anchor x="-184.4" y="644.0" name="top"/>
  <outline>
    <contour>
      <point x="-179.4" y="676.0" type="curve" smooth="yes"/>
      <point x="-166.8" y="676.0"/>
      <point x="-162.0" y="686.2"/>
      <point x="-162.0" y="699.4" type="curve" smooth="yes"/>
      <point x="-162.0" y="707.4"/>
      <point x="-164.8" y="712.0"/>
      <point x="-174.8" y="712.0" type="curve" smooth="yes"/>
      <point x="-187.2" y="712.0"/>
      <point x="-192.0" y="701.2"/>
      <point x="-192.0" y="687.4" type="curve" smooth="yes"/>
      <point x="-192.0" y="680.0"/>
      <point x="-188.60000000000002" y="676.0"/>
    </contour>
  </outline>
</glyph>
<glyph name="uni0308" format="2">
  <unicode hex="0308"/>
  <anchor x="-202.8" y="530.0" name="_top"/>
  <anchor x="-185.2" y="644.0" name="top"/>
  <outline>
    <contour>
      <point x="-90.60000000000001" y="676.0" type="curve" smooth="yes"/>
      <point x="-80.0" y="676.0"/>
      <point x="-74.80000000000001" y="685.4"/>
      <point x="-74.80000000000001" y="700.0" type="curve" smooth="yes"/>
      <point x="-74.80000000000001" y="707.4"/>
      <point x="-77.2" y="712.0"/>
      <point x="-85.60000000000001" y="712.0" type="curve" smooth="yes"/>
      <point x="-97.0" y="712.0"/>
      <point x="-101.80000000000001" y="701.0"/>
      <point x="-101.80000000000001" y="686.4" type="curve" smooth="yes"/>
      <point x="-101.80000000000001" y="680.0"/>
      <point x="-99.0" y="676.0"/>
    </contour>
    <contour>
      <point x="-269.8" y="676.0" type="curve" smooth="yes"/>
      <point x="-259.20000000000005" y="676.0"/>
      <point x="-254.0" y="685.4"/>
      <point x="-254.0" y="700.0" type="curve" smooth="yes"/>
      <point x="-254.0" y="707.4"/>
      <point x="-256.4" y="712.0"/>
      <point x="-264.8" y="712.0" type="curve" smooth="yes"/>
      <point x="-276.8" y="712.0"/>
      <point x="-281.0" y="699.2"/>
      <point x="-281.0" y="686.4" type="curve" smooth="yes"/>
      <point x="-281.0" y="680.0"/>
      <point x="-278.20000000000005" y="676.0"/>
    </contour>
  </outline>
</glyph>
<glyph name="hookabovecomb" format="2">
  <unicode hex="0309"/>
  <anchor x="-202.8" y="530.0" name="_top"/>
  <anchor x="-160.0" y="794.0" name="top"/>
  <outline>
    <contour>
      <point x="-193.4" y="605.6" type="line"/>
      <point x="-127.80000000000001" y="643.8"/>
      <point x="-99.4" y="682.6"/>
      <point x="-99.4" y="729.2" type="curve" smooth="yes"/>
      <point x="-99.4" y="770.6"/>
      <point x="-125.60000000000001" y="794.0"/>
      <point x="-166.8" y="794.0" type="curve" smooth="yes"/>
      <point x="-194.4" y="794.0"/>
      <point x="-221.0" y="783.8"/>
      <point x="-244.20000000000002" y="758.6" type="curve"/>
      <point x="-232.6" y="747.4" type="line"/>
      <point x="-211.6" y="769.2"/>
      <point x="-191.4" y="777.0"/>
      <point x="-168.0" y="777.0" type="curve" smooth="yes"/>
      <point x="-137.8" y="777.0"/>
      <point x="-117.80000000000001" y="758.0"/>
      <point x="-117.80000000000001" y="728.0" type="curve" smooth="yes"/>
      <point x="-117.80000000000001" y="688.8"/>
      <point x="-142.8" y="651.6"/>
      <point x="-201.60000000000002" y="617.6" type="curve"/>
    </contour>
  </outline>
</glyph>
<glyph name="uni030A" format="2">
  <unicode hex="030A"/>
  <anchor x="-202.8" y="530.0" name="_top"/>
  <anchor x="-169.4" y="741.4" name="top"/>
  <outline>
    <contour>
      <point x="-188.60000000000002" y="617.8" type="curve" smooth="yes"/>
      <point x="-138.0" y="617.8"/>
      <point x="-103.4" y="652.6"/>
      <point x="-103.4" y="712.4" type="curve" smooth="yes"/>
      <point x="-103.4" y="752.8"/>
      <point x="-125.60000000000001" y="773.8"/>
      <point x="-164.4" y="773.8" type="curve" smooth="yes"/>
      <point x="-215.6" y="773.8"/>
      <point x="-249.6" y="738.4"/>
      <point x="-249.6" y="677.4" type="curve" smooth="yes"/>
      <point x="-249.6" y="638.2"/>
      <point x="-227.4" y="617.8"/>
    </contour>
    <contour>
      <point x="-185.60000000000002" y="634.8" type="curve" smooth="yes"/>
      <point x="-215.8" y="634.8"/>
      <point x="-231.20000000000002" y="649.4"/>
      <point x="-231.20000000000002" y="676.2" type="curve" smooth="yes"/>
      <point x="-231.20000000000002" y="726.0"/>
      <point x="-206.8" y="756.8"/>
      <point x="-167.4" y="756.8" type="curve" smooth="yes"/>
      <point x="-137.2" y="756.8"/>
      <point x="-121.80000000000001" y="741.6"/>
      <point x="-121.80000000000001" y="714.2" type="curve" smooth="yes"/>
      <point x="-121.80000000000001" y="665.0"/>
      <point x="-146.8" y="634.8"/>
    </contour>
  </outline>
</glyph>
<glyph name="uni030B" format="2">
  <unicode hex="030B"/>
  <anchor x="-202.8" y="530.0" name="_top"/>
  <anchor x="-107.4" y="790.0" name="top"/>
  <outline>
    <contour>
      <point x="-151.8" y="596.0" type="line"/>
      <point x="-132.2" y="596.0" type="line"/>
      <point x="32.599999999999994" y="790.0" type="line"/>
      <point x="8.199999999999996" y="790.0" type="line"/>
    </contour>
    <contour>
      <point x="-278.0" y="596.0" type="line"/>
      <point x="-258.4" y="596.0" type="line"/>
      <point x="-93.60000000000001" y="790.0" type="line"/>
      <point x="-118.0" y="790.0" type="line"/>
    </contour>
  </outline>
</glyph>
<glyph name="uni030F" format="2">
  <unicode hex="030F"/>
  <anchor x="-202.8" y="530.0" name="_top"/>
  <anchor x="-227.6" y="790.0" name="top"/>
  <outline>
    <contour>
      <point x="-262.20000000000005" y="596.0" type="line"/>
      <point x="-243.4" y="596.0" type="line"/>
      <point x="-328.0" y="790.0" type="line"/>
      <point x="-350.4" y="790.0" type="line"/>
    </contour>
    <contour>
      <point x="-145.4" y="596.0" type="line"/>
      <point x="-126.60000000000001" y="596.0" type="line"/>
      <point x="-211.20000000000002" y="790.0" type="line"/>
      <point x="-233.60000000000002" y="790.0" type="line"/>
    </contour>
  </outline>
</glyph>
<glyph name="uni0312" format="2">
  <unicode hex="0312"/>
  <anchor x="-202.8" y="530.0" name="_top"/>
  <outline>
    <contour>
      <point x="-182.60000000000002" y="595.0" type="line"/>
      <point x="-191.0" y="607.8"/>
      <point x="-195.0" y="622.8"/>
      <point x="-195.0" y="638.6" type="curve" smooth="yes"/>
      <point x="-195.0" y="688.8"/>
      <point x="-173.8" y="740.8"/>
      <point x="-132.0" y="790.0" type="curve"/>
      <point x="-150.8" y="790.0" type="line"/>
      <point x="-192.0" y="741.8"/>
      <point x="-212.8" y="687.0"/>
      <point x="-212.8" y="636.6" type="curve" smooth="yes"/>
      <point x="-212.8" y="620.4"/>
      <point x="-209.20000000000002" y="605.2"/>
      <point x="-202.4" y="595.0" type="curve"/>
    </contour>
  </outline>
</glyph>
<glyph name="uni031B" format="2">
  <unicode hex="031B"/>
  <anchor x="-131.60000000000002" y="530.0" name="_topright"/>
  <anchor x="29.799999999999997" y="688.2" name="topright"/>
  <outline>
    <contour>
      <point x="-135.8" y="513.0" type="line"/>
      <point x="-115.60000000000001" y="513.0" type="line" smooth="yes"/>
      <point x="-7.0" y="513.0"/>
      <point x="16.4" y="600.4"/>
      <point x="-13.600000000000001" y="689.2" type="curve"/>
      <point x="-32.6" y="685.0" type="line"/>
      <point x="-3.200000000000003" y="602.8"/>
      <point x="-26.6" y="530.0"/>
      <point x="-114.80000000000001" y="530.0" type="curve" smooth="yes"/>
      <point x="-140.8" y="530.0" type="line"/>
    </contour>
  </outline>
</glyph>
<glyph name="uni0326" format="2">
  <unicode hex="0326"/>
  <anchor x="-269.2" y="0.0" name="_bottom"/>
  <anchor x="-327.0" y="-220.0" name="bottom"/>
  <outline>
    <contour>
      <point x="-291.6" y="-73.0" type="line"/>
      <point x="-288.8" y="-82.2"/>
      <point x="-288.2" y="-93.2"/>
      <point x="-289.4" y="-106.2" type="curve" smooth="yes"/>
      <point x="-293.0" y="-140.0"/>
      <point x="-308.2" y="-178.0"/>
      <point x="-337.2" y="-220.0" type="curve"/>
      <point x="-317.4" y="-220.0" type="line"/>
      <point x="-291.2" y="-182.6"/>
      <point x="-275.2" y="-146.4"/>
      <point x="-271.0" y="-105.0" type="curve" smooth="yes"/>
      <point x="-269.8" y="-94.2"/>
      <point x="-269.6" y="-84.4"/>
      <point x="-271.2" y="-73.0" type="curve"/>
    </contour>
  </outline>
</glyph>
<glyph name="uni0327" format="2">
  <unicode hex="0327"/>
  <anchor x="-269.2" y="0.0" name="_bottom"/>
  <anchor x="-308.8" y="-220.0" name="bottom"/>
  <outline>
    <contour>
      <point x="-379.8" y="-198.0" type="line"/>
      <point x="-356.6" y="-214.4"/>
      <point x="-333.4" y="-220.0"/>
      <point x="-305.2" y="-220.0" type="curve" smooth="yes"/>
      <point x="-247.0" y="-220.0"/>
      <point x="-216.4" y="-167.2"/>
      <point x="-216.4" y="-107.0" type="curve" smooth="yes"/>
      <point x="-216.4" y="-63.4"/>
      <point x="-233.4" y="-24.4"/>
      <point x="-261.8" y="0.0" type="curve"/>
      <point x="-285.0" y="0.0" type="line"/>
      <point x="-249.8" y="-32.8"/>
      <point x="-235.2" y="-66.6"/>
      <point x="-235.2" y="-107.2" type="curve" smooth="yes"/>
      <point x="-235.2" y="-166.6"/>
      <point x="-262.6" y="-202.6"/>
      <point x="-306.4" y="-202.6" type="curve" smooth="yes"/>
      <point x="-329.2" y="-202.6"/>
      <point x="-348.4" y="-196.4"/>
      <point x="-371.4" y="-182.2" type="curve"/>
    </contour>
  </outline>
</glyph>
<glyph name="uni0328" format="2">
  <unicode hex="0328"/>
  <anchor x="-231.0" y="0.0" name="_ogonek"/>
  <outline>
    <contour>
      <point x="-248.0" y="3.6" type="line"/>
      <point x="-320.0" y="-55.8"/>
      <point x="-355.4" y="-108.0"/>
      <point x="-355.4" y="-159.8" type="curve" smooth="yes"/>
      <point x="-355.4" y="-201.2"/>
      <point x="-328.6" y="-220.0"/>
      <point x="-297.4" y="-220.0" type="curve" smooth="yes"/>
      <point x="-279.8" y="-220.0"/>
      <point x="-264.2" y="-215.8"/>
      <point x="-252.8" y="-209.6" type="curve"/>
      <point x="-257.0" y="-195.0" type="line"/>
      <point x="-270.0" y="-200.0"/>
      <point x="-280.6" y="-202.6"/>
      <point x="-294.2" y="-202.6" type="curve" smooth="yes"/>
      <point x="-319.0" y="-202.6"/>
      <point x="-337.0" y="-187.8"/>
      <point x="-337.0" y="-156.8" type="curve" smooth="yes"/>
      <point x="-337.0" y="-109.4"/>
      <point x="-299.8" y="-51.8"/>
      <point x="-231.0" y="0.0" type="curve"/>
    </contour>
  </outline>
</glyph>
<glyph name="uni0335" format="2">
  <unicode hex="0335"/>
  <anchor x="-78.6" y="350.0" name="_center"/>
  <outline>
    <contour>
      <point x="-192.6" y="340.0" type="line"/>
      <point x="31.0" y="340.0" type="line"/>
      <point x="35.0" y="360.0" type="line"/>
      <point x="-188.6" y="360.0" type="line"/>
    </contour>
  </outline>
</glyph>
<glyph name="pi" format="2">
  <advance width="552.4"/>
  <unicode hex="03C0"/>
  <outline>
    <contour>
      <point x="410.20000000000005" y="-10.0" type="curve" smooth="yes"/>
      <point x="420.8" y="-10.0"/>
      <point x="432.4" y="-8.0"/>
      <point x="446.4" y="-1.4" type="curve"/>
      <point x="444.0" y="15.2" type="line"/>
      <point x="432.8" y="10.6"/>
      <point x="422.4" y="8.6"/>
      <point x="413.6" y="8.6" type="curve" smooth="yes"/>
      <point x="389.4" y="8.6"/>
      <point x="380.8" y="21.2"/>
      <point x="380.8" y="39.8" type="curve" smooth="yes"/>
      <point x="380.8" y="64.0"/>
      <point x="390.20000000000005" y="111.4"/>
      <point x="452.8" y="512.0" type="curve"/>
      <point x="521.8" y="512.0" type="line"/>
      <point x="524.2" y="530.0" type="line"/>
      <point x="261.0" y="530.0" type="line" smooth="yes"/>
      <point x="210.0" y="530.0"/>
      <point x="149.2" y="525.6"/>
      <point x="101.2" y="494.2" type="curve"/>
      <point x="105.2" y="478.0" type="line"/>
      <point x="151.8" y="504.4"/>
      <point x="194.60000000000002" y="509.8"/>
      <point x="221.8" y="511.4" type="curve"/>
      <point x="173.8" y="362.6"/>
      <point x="113.2" y="132.0"/>
      <point x="61.6" y="0.0" type="curve"/>
      <point x="79.2" y="0.0" type="line"/>
      <point x="132.6" y="137.4"/>
      <point x="193.60000000000002" y="365.6"/>
      <point x="239.8" y="512.0" type="curve"/>
      <point x="434.8" y="512.0" type="line"/>
      <point x="374.6" y="121.0"/>
      <point x="362.8" y="57.0"/>
      <point x="362.8" y="35.8" type="curve" smooth="yes"/>
      <point x="362.8" y="10.8"/>
      <point x="375.0" y="-10.0"/>
    </contour>
  </outline>
</glyph>
<glyph name="endash" format="2">
  <advance width="368.4"/>
  <unicode hex="2013"/>
  <outline>
    <contour>
      <point x="14.200000000000001" y="255.0" type="line"/>
      <point x="347.8" y="255.0" type="line"/>
      <point x="351.2" y="275.0" type="line"/>
      <point x="17.6" y="275.0" type="line"/>
    </contour>
  </outline>
</glyph>
<glyph name="emdash" format="2">
  <advance width="730.0"/>
  <unicode hex="2014"/>
  <outline>
    <contour>
      <point x="1.4000000000000004" y="255.0" type="line"/>
      <point x="722.2" y="255.0" type="line"/>
      <point x="725.6" y="275.0" type="line"/>
      <point x="4.800000000000001" y="275.0" type="line"/>
    </contour>
  </outline>
</glyph>
<glyph name="quoteleft" format="2">
  <advance width="143.2"/>
  <unicode hex="2018"/>
  <outline>
    <contour>
      <point x="68.8" y="430.0" type="curve"/>
      <point x="86.6" y="430.0" type="line"/>
      <point x="98.8" y="540.8"/>
      <point x="129.8" y="620.4"/>
      <point x="189.0" y="700.0" type="curve"/>
      <point x="170.4" y="700.0" type="line"/>
      <point x="113.0" y="627.4"/>
      <point x="78.8" y="534.8"/>
    </contour>
  </outline>
</glyph>
<glyph name="quoteright" format="2">
  <advance width="143.2"/>
  <unicode hex="2019"/>
  <outline>
    <contour>
      <point x="166.4" y="700.0" type="curve"/>
      <point x="148.6" y="700.0" type="line"/>
      <point x="136.4" y="589.2"/>
      <point x="105.4" y="509.6"/>
      <point x="46.2" y="430.0" type="curve"/>
      <point x="64.8" y="430.0" type="line"/>
      <point x="122.2" y="502.6"/>
      <point x="156.4" y="595.2"/>
    </contour>
  </outline>
</glyph>
<glyph name="dagger" format="2">
  <advance width="385.0"/>
  <unicode hex="2020"/>
  <outline>
    <contour>
      <point x="106.6" y="-210.0" type="line"/>
      <point x="124.6" y="-210.0" type="line"/>
      <point x="239.0" y="514.0" type="line"/>
      <point x="383.2" y="514.0" type="line"/>
      <point x="386.2" y="534.0" type="line"/>
      <point x="242.0" y="534.0" type="line"/>
      <point x="274.6" y="740.0" type="line"/>
      <point x="256.6" y="740.0" type="line"/>
      <point x="224.0" y="534.0" type="line"/>
      <point x="80.4" y="534.0" type="line"/>
      <point x="77.4" y="514.0" type="line"/>
      <point x="221.0" y="514.0" type="line"/>
    </contour>
  </outline>
</glyph>
<glyph name="daggerdbl" format="2">
  <advance width="385.0"/>
  <unicode hex="2021"/>
  <outline>
    <contour>
      <point x="302.4" y="0.0" type="line"/>
      <point x="305.4" y="20.0" type="line"/>
      <point x="161.2" y="20.0" type="line"/>
      <point x="239.2" y="510.0" type="line"/>
      <point x="383.4" y="510.0" type="line"/>
      <point x="386.4" y="530.0" type="line"/>
      <point x="242.2" y="530.0" type="line"/>
      <point x="275.2" y="740.0" type="line"/>
      <point x="257.2" y="740.0" type="line"/>
      <point x="224.2" y="530.0" type="line"/>
      <point x="80.6" y="530.0" type="line"/>
      <point x="77.6" y="510.0" type="line"/>
      <point x="221.2" y="510.0" type="line"/>
      <point x="143.2" y="20.0" type="line"/>
      <point x="-0.3999999999999986" y="20.0" type="line"/>
      <point x="-3.3999999999999986" y="0.0" type="line"/>
      <point x="140.2" y="0.0" type="line"/>
      <point x="107.2" y="-210.0" type="line"/>
      <point x="125.2" y="-210.0" type="line"/>
      <point x="158.2" y="0.0" type="line"/>
    </contour>
  </outline>
</glyph>
<glyph name="bullet" format="2">
  <advance width="256.0"/>
  <unicode hex="2022"/>
  <outline>
    <contour>
      <point x="116.8" y="225.2" type="curve" smooth="yes"/>
      <point x="167.4" y="225.2"/>
      <point x="218.4" y="274.0"/>
      <point x="218.4" y="330.4" type="curve" smooth="yes"/>
      <point x="218.4" y="373.4"/>
      <point x="188.0" y="406.8"/>
      <point x="145.4" y="406.8" type="curve" smooth="yes"/>
      <point x="92.8" y="406.8"/>
      <point x="44.4" y="357.0"/>
      <point x="44.4" y="299.6" type="curve" smooth="yes"/>
      <point x="44.4" y="257.6"/>
      <point x="74.6" y="225.2"/>
    </contour>
  </outline>
</glyph>
<glyph name="minute" format="2">
  <advance width="160.0"/>
  <unicode hex="2032"/>
  <outline>
    <contour>
      <point x="68.0" y="427.8" type="line"/>
      <point x="80.0" y="427.8" type="line"/>
      <point x="181.6" y="700.0" type="line"/>
      <point x="162.0" y="700.0" type="line"/>
    </contour>
  </outline>
</glyph>
<glyph name="guilsinglleft" format="2">
  <advance width="228.4"/>
  <unicode hex="2039"/>
  <outline>
    <contour>
      <point x="147.4" y="40.4" type="line"/>
      <point x="162.4" y="49.4" type="line"/>
      <point x="48.8" y="270.0" type="line"/>
      <point x="232.60000000000002" y="491.4" type="line"/>
      <point x="219.60000000000002" y="501.2" type="line"/>
      <point x="31.0" y="276.6" type="line"/>
      <point x="29.200000000000003" y="265.0" type="line"/>
    </contour>
  </outline>
</glyph>
<glyph name="guilsinglright" format="2">
  <advance width="228.4"/>
  <unicode hex="203A"/>
  <outline>
    <contour>
      <point x="-5.799999999999999" y="50.2" type="line"/>
      <point x="7.2" y="40.4" type="line"/>
      <point x="195.8" y="265.0" type="line"/>
      <point x="197.60000000000002" y="276.6" type="line"/>
      <point x="79.4" y="501.2" type="line"/>
      <point x="64.4" y="492.2" type="line"/>
      <point x="178.60000000000002" y="271.6" type="line"/>
    </contour>
  </outline>
</glyph>
<glyph name="fraction" format="2">
  <advance width="110.4"/>
  <unicode hex="2044"/>
  <outline>
    <contour>
      <point x="-156.6" y="-11.0" type="line"/>
      <point x="311.2" y="737.0" type="line"/>
      <point x="295.8" y="745.6" type="line"/>
      <point x="-171.6" y="-2.4" type="line"/>
    </contour>
  </outline>
</glyph>
<glyph name="uni2052" format="2">
  <advance width="563.6"/>
  <unicode hex="2052"/>
  <outline>
    <contour>
      <point x="11.600000000000001" y="8.0" type="line"/>
      <point x="25.6" y="-2.6" type="line"/>
      <point x="575.6" y="692.0" type="line"/>
      <point x="561.6" y="702.6" type="line"/>
    </contour>
    <component base="period" xOffset="123.8" yOffset="666.0"/>
    <component base="period" xOffset="406.0"/>
  </outline>
</glyph>
<glyph name="uni2070" format="2">
  <advance width="367.6"/>
  <unicode hex="2070"/>
  <outline>
    <contour>
      <point x="82.4" y="499.2" type="curve" smooth="yes"/>
      <point x="82.4" y="409.0"/>
      <point x="128.2" y="364.0"/>
      <point x="209.4" y="364.0" type="curve" smooth="yes"/>
      <point x="311.2" y="364.0"/>
      <point x="378.4" y="487.2"/>
      <point x="378.4" y="642.8" type="curve" smooth="yes"/>
      <point x="378.4" y="733.0"/>
      <point x="332.6" y="776.8"/>
      <point x="251.4" y="776.8" type="curve" smooth="yes"/>
      <point x="149.6" y="776.8"/>
      <point x="82.4" y="654.8"/>
    </contour>
    <contour>
      <point x="249.0" y="759.4" type="curve" smooth="yes"/>
      <point x="322.4" y="759.4"/>
      <point x="361.0" y="720.8"/>
      <point x="361.0" y="638.6" type="curve" smooth="yes"/>
      <point x="361.0" y="497.8"/>
      <point x="298.8" y="381.4"/>
      <point x="211.8" y="381.4" type="curve" smooth="yes"/>
      <point x="138.4" y="381.4"/>
      <point x="99.8" y="420.0"/>
      <point x="99.8" y="502.2" type="curve" smooth="yes"/>
      <point x="99.8" y="643.8"/>
      <point x="162.0" y="759.4"/>
    </contour>
  </outline>
</glyph>
<glyph name="uni2075" format="2">
  <advance width="350.20000000000005"/>
  <unicode hex="2075"/>
  <outline>
    <contour>
      <point x="61.8" y="406.2" type="line"/>
      <point x="90.6" y="379.6"/>
      <point x="131.2" y="364.0"/>
      <point x="184.60000000000002" y="364.0" type="curve" smooth="yes"/>
      <point x="293.4" y="364.0"/>
      <point x="341.6" y="428.2"/>
      <point x="341.6" y="512.0" type="curve" smooth="yes"/>
      <point x="341.6" y="568.0"/>
      <point x="309.4" y="597.0"/>
      <point x="233.8" y="597.0" type="curve" smooth="yes"/>
      <point x="130.4" y="597.0" type="line"/>
      <point x="169.2" y="752.8" type="line"/>
      <point x="358.6" y="752.8" type="line"/>
      <point x="360.6" y="769.2" type="line"/>
      <point x="157.0" y="769.2" type="line"/>
      <point x="110.6" y="589.0" type="line"/>
      <point x="117.0" y="581.0" type="line"/>
      <point x="229.60000000000002" y="581.0" type="line" smooth="yes"/>
      <point x="297.6" y="581.0"/>
      <point x="324.20000000000005" y="559.4"/>
      <point x="324.20000000000005" y="509.2" type="curve" smooth="yes"/>
      <point x="324.20000000000005" y="435.4"/>
      <point x="274.4" y="380.6"/>
      <point x="187.0" y="380.6" type="curve" smooth="yes"/>
      <point x="137.8" y="380.6"/>
      <point x="100.8" y="397.2"/>
      <point x="75.2" y="416.4" type="curve"/>
    </contour>
  </outline>
</glyph>
<glyph name="uni2077" format="2">
  <advance width="292.4"/>
  <unicode hex="2077"/>
  <outline>
    <contour>
      <point x="120.80000000000001" y="370.0" type="curve"/>
      <point x="138.4" y="370.0" type="line"/>
      <point x="150.2" y="440.2"/>
      <point x="174.2" y="500.2"/>
      <point x="247.60000000000002" y="610.0" type="curve" smooth="yes"/>
      <point x="343.6" y="754.4" type="line"/>
      <point x="345.6" y="769.2" type="line"/>
      <point x="92.2" y="769.2" type="line"/>
      <point x="90.2" y="752.8" type="line"/>
      <point x="323.4" y="752.8" type="line"/>
      <point x="235.2" y="622.8" type="line" smooth="yes"/>
      <point x="163.6" y="517.6"/>
      <point x="132.6" y="449.6"/>
    </contour>
  </outline>
</glyph>
<glyph name="uni2078" format="2">
  <advance width="336"/>
  <unicode hex="2078"/>
  <outline>
    <contour>
      <point x="195" y="364" type="curve" smooth="yes"/>
      <point x="281" y="364"/>
      <point x="338" y="404"/>
      <point x="338" y="480" type="curve" smooth="yes"/>
      <point x="338" y="619"/>
      <point x="125" y="553"/>
      <point x="125" y="673" type="curve" smooth="yes"/>
      <point x="125" y="727"/>
      <point x="177" y="757"/>
      <point x="235" y="757" type="curve" smooth="yes"/>
      <point x="311" y="757"/>
      <point x="342" y="721"/>
      <point x="342" y="678" type="curve" smooth="yes"/>
      <point x="342" y="620"/>
      <point x="309" y="599"/>
      <point x="256" y="571" type="curve"/>
      <point x="267" y="564" type="line"/>
      <point x="321" y="590"/>
      <point x="358" y="617"/>
      <point x="358" y="678" type="curve" smooth="yes"/>
      <point x="358" y="727"/>
      <point x="325" y="772"/>
      <point x="237" y="772" type="curve" smooth="yes"/>
      <point x="168" y="772"/>
      <point x="109" y="737"/>
      <point x="109" y="673" type="curve" smooth="yes"/>
      <point x="109" y="537"/>
      <point x="322" y="610"/>
      <point x="322" y="477" type="curve" smooth="yes"/>
      <point x="322" y="413"/>
      <point x="275" y="379"/>
      <point x="195" y="379" type="curve" smooth="yes"/>
      <point x="122" y="379"/>
      <point x="78" y="423"/>
      <point x="78" y="475" type="curve" smooth="yes"/>
      <point x="78" y="531"/>
      <point x="122" y="566"/>
      <point x="184" y="590" type="curve"/>
      <point x="170" y="597" type="line"/>
      <point x="109" y="571"/>
      <point x="62" y="532"/>
      <point x="62" y="471" type="curve" smooth="yes"/>
      <point x="62" y="413"/>
      <point x="109" y="364"/>
    </contour>
  </outline>
</glyph>
<glyph name="uni207A" format="2">
  <advance width="243.8"/>
  <unicode hex="207A"/>
  <outline>
    <contour>
      <point x="135.4" y="406.8" type="line"/>
      <point x="152.2" y="406.8" type="line"/>
      <point x="169.8" y="524.2" type="line"/>
      <point x="253.2" y="524.2" type="line"/>
      <point x="255.2" y="541.6" type="line"/>
      <point x="172.2" y="541.6" type="line"/>
      <point x="191.2" y="658.6" type="line"/>
      <point x="173.4" y="658.6" type="line"/>
      <point x="155.4" y="541.6" type="line"/>
      <point x="72.4" y="541.6" type="line"/>
      <point x="70.4" y="524.2" type="line"/>
      <point x="152.4" y="524.2" type="line"/>
    </contour>
  </outline>
</glyph>
<glyph name="uni207B" format="2">
  <advance width="242.60000000000002"/>
  <unicode hex="207B"/>
  <outline>
    <contour>
      <point x="69.4" y="524.2" type="line"/>
      <point x="252.6" y="524.2" type="line"/>
      <point x="254.6" y="541.6" type="line"/>
      <point x="71.8" y="541.6" type="line"/>
    </contour>
  </outline>
</glyph>
<glyph name="uni207C" format="2">
  <advance width="283.0"/>
  <unicode hex="207C"/>
  <outline>
    <contour>
      <point x="266.6" y="484.2" type="line"/>
      <point x="82.80000000000001" y="484.2" type="line"/>
      <point x="80.80000000000001" y="466.8" type="line"/>
      <point x="263.6" y="466.8" type="line"/>
    </contour>
    <contour>
      <point x="284.0" y="600.6" type="line"/>
      <point x="100.80000000000001" y="600.6" type="line"/>
      <point x="98.80000000000001" y="583.2" type="line"/>
      <point x="281.0" y="583.2" type="line"/>
    </contour>
  </outline>
</glyph>
<glyph name="uni207D" format="2">
  <advance width="172.4"/>
  <unicode hex="207D"/>
  <outline>
    <contour>
      <point x="85.0" y="430.8" type="curve" smooth="yes"/>
      <point x="85.0" y="353.0"/>
      <point x="105.8" y="294.0"/>
      <point x="154.2" y="279.8" type="curve"/>
      <point x="156.2" y="298.6" type="line"/>
      <point x="120.6" y="311.2"/>
      <point x="101.4" y="359.8"/>
      <point x="101.4" y="429.4" type="curve" smooth="yes"/>
      <point x="101.4" y="562.6"/>
      <point x="161.4" y="792.0"/>
      <point x="239.6" y="819.2" type="curve"/>
      <point x="241.6" y="838.6" type="line"/>
      <point x="134.0" y="807.6"/>
      <point x="85.0" y="560.8"/>
    </contour>
  </outline>
</glyph>
<glyph name="uni207E" format="2">
  <advance width="173.0"/>
  <unicode hex="207E"/>
  <outline>
    <contour>
      <point x="178.0" y="687.2" type="curve" smooth="yes"/>
      <point x="178.0" y="767.0"/>
      <point x="156.8" y="825.6"/>
      <point x="108.6" y="838.6" type="curve"/>
      <point x="106.6" y="819.4" type="line"/>
      <point x="143.6" y="806.4"/>
      <point x="161.6" y="756.8"/>
      <point x="161.6" y="688.6" type="curve" smooth="yes"/>
      <point x="161.6" y="561.2"/>
      <point x="106.0" y="339.6"/>
      <point x="23.6" y="300.4" type="curve"/>
      <point x="21.6" y="279.8" type="line"/>
      <point x="119.2" y="311.6"/>
      <point x="178.0" y="545.6"/>
    </contour>
  </outline>
</glyph>
<glyph name="n.superior" format="2">
  <advance width="307.4"/>
  <unicode hex="207F"/>
  <outline>
    <contour>
      <point x="286.2" y="364.0" type="curve" smooth="yes"/>
      <point x="293.2" y="364.0"/>
      <point x="301.4" y="365.0"/>
      <point x="311.8" y="370.0" type="curve"/>
      <point x="309.8" y="385.2" type="line"/>
      <point x="299.8" y="381.8"/>
      <point x="292.4" y="380.4"/>
      <point x="287.6" y="380.4" type="curve" smooth="yes"/>
      <point x="275.8" y="380.4"/>
      <point x="269.2" y="386.8"/>
      <point x="269.2" y="399.0" type="curve" smooth="yes"/>
      <point x="269.2" y="422.2"/>
      <point x="300.8" y="591.0"/>
      <point x="300.8" y="614.6" type="curve" smooth="yes"/>
      <point x="300.8" y="652.4"/>
      <point x="280.8" y="677.4"/>
      <point x="235.0" y="677.4" type="curve" smooth="yes"/>
      <point x="196.4" y="677.4"/>
      <point x="166.4" y="664.0"/>
      <point x="130.0" y="646.4" type="curve"/>
      <point x="133.2" y="671.2" type="line"/>
      <point x="116.6" y="671.2" type="line"/>
      <point x="69.2" y="370.0" type="line"/>
      <point x="86.2" y="370.0" type="line"/>
      <point x="127.4" y="628.0" type="line"/>
      <point x="166.2" y="647.8"/>
      <point x="197.0" y="661.6"/>
      <point x="231.2" y="661.6" type="curve" smooth="yes"/>
      <point x="270.6" y="661.6"/>
      <point x="283.4" y="640.6"/>
      <point x="283.4" y="612.8" type="curve" smooth="yes"/>
      <point x="283.4" y="587.2"/>
      <point x="252.8" y="422.2"/>
      <point x="252.8" y="397.4" type="curve" smooth="yes"/>
      <point x="252.8" y="375.8"/>
      <point x="267.2" y="364.0"/>
    </contour>
  </outline>
</glyph>
<glyph name="colonmonetary" format="2">
  <advance width="563.6"/>
  <unicode hex="20A1"/>
  <outline>
    <contour>
      <point x="331.20000000000005" y="-10.0" type="curve" smooth="yes"/>
      <point x="399.8" y="-10.0"/>
      <point x="457.0" y="-1.3999999999999995"/>
      <point x="500.40000000000003" y="15.2" type="curve"/>
      <point x="495.0" y="32.2" type="line"/>
      <point x="452.0" y="17.0"/>
      <point x="396.4" y="9.0"/>
      <point x="332.20000000000005" y="9.0" type="curve" smooth="yes"/>
      <point x="180.2" y="9.0"/>
      <point x="94.2" y="80.4"/>
      <point x="94.2" y="223.8" type="curve" smooth="yes"/>
      <point x="94.2" y="493.0"/>
      <point x="220.2" y="691.0"/>
      <point x="415.0" y="691.0" type="curve" smooth="yes"/>
      <point x="473.4" y="691.0"/>
      <point x="520.2" y="684.0"/>
      <point x="578.2" y="667.6" type="curve"/>
      <point x="584.8" y="685.6" type="line"/>
      <point x="529.2" y="703.0"/>
      <point x="480.0" y="710.0"/>
      <point x="417.6" y="710.0" type="curve" smooth="yes"/>
      <point x="207.2" y="710.0"/>
      <point x="75.2" y="512.0"/>
      <point x="75.2" y="224.0" type="curve" smooth="yes"/>
      <point x="75.2" y="66.8"/>
      <point x="165.4" y="-10.0"/>
    </contour>
    <contour>
      <point x="391.8" y="701.8" type="line"/>
      <point x="410.6" y="697.4" type="line"/>
      <point x="436.0" y="805.0" type="line"/>
      <point x="417.20000000000005" y="805.0" type="line"/>
    </contour>
    <contour>
      <point x="475.4" y="701.4" type="line"/>
      <point x="494.20000000000005" y="697.4" type="line"/>
      <point x="519.6" y="805.0" type="line"/>
      <point x="500.8" y="805.0" type="line"/>
    </contour>
    <contour>
      <point x="216.8" y="-105.0" type="line"/>
      <point x="235.6" y="-105.0" type="line"/>
      <point x="262.0" y="7.4" type="line"/>
      <point x="243.20000000000002" y="6.8" type="line"/>
    </contour>
    <contour>
      <point x="300.4" y="-105.0" type="line"/>
      <point x="319.20000000000005" y="-105.0" type="line"/>
      <point x="343.8" y="-0.20000000000000018" type="line"/>
      <point x="325.0" y="-0.8000000000000003" type="line"/>
    </contour>
  </outline>
</glyph>
<glyph name="franc" format="2">
  <advance width="563.6"/>
  <unicode hex="20A3"/>
  <outline>
    <contour>
      <point x="80.6" y="0.0" type="line"/>
      <point x="99.6" y="0.0" type="line"/>
      <point x="207.6" y="680.4" type="line"/>
      <point x="585.6" y="680.4" type="line"/>
      <point x="588.6" y="700.0" type="line"/>
      <point x="191.6" y="700.0" type="line"/>
    </contour>
    <contour>
      <point x="31.0" y="218.4" type="line"/>
      <point x="410.6" y="218.4" type="line"/>
      <point x="413.6" y="237.8" type="line"/>
      <point x="34.0" y="237.8" type="line"/>
    </contour>
    <contour>
      <point x="57.0" y="381.2" type="line"/>
      <point x="436.6" y="381.2" type="line"/>
      <point x="439.6" y="400.6" type="line"/>
      <point x="60.0" y="400.6" type="line"/>
    </contour>
  </outline>
</glyph>
<glyph name="lira" format="2">
  <advance width="563.6"/>
  <unicode hex="20A4"/>
  <outline>
    <contour>
      <point x="57.6" y="0.0" type="line"/>
      <point x="458.0" y="0.0" type="line"/>
      <point x="461.0" y="20.0" type="line"/>
      <point x="86.2" y="20.0" type="line"/>
      <point x="173.2" y="103.8"/>
      <point x="217.0" y="173.6"/>
      <point x="217.0" y="278.8" type="curve" smooth="yes"/>
      <point x="217.0" y="345.2"/>
      <point x="184.4" y="399.6"/>
      <point x="184.4" y="466.0" type="curve" smooth="yes"/>
      <point x="184.4" y="624.2"/>
      <point x="284.2" y="690.8"/>
      <point x="383.0" y="690.8" type="curve" smooth="yes"/>
      <point x="433.20000000000005" y="690.8"/>
      <point x="492.4" y="683.8"/>
      <point x="542.0" y="665.4" type="curve"/>
      <point x="550.8" y="683.0" type="line"/>
      <point x="502.8" y="702.6"/>
      <point x="434.20000000000005" y="710.0"/>
      <point x="389.6" y="710.0" type="curve" smooth="yes"/>
      <point x="267.2" y="710.0"/>
      <point x="166.0" y="633.4"/>
      <point x="166.0" y="469.2" type="curve" smooth="yes"/>
      <point x="166.0" y="387.6"/>
      <point x="198.0" y="347.8"/>
      <point x="198.0" y="274.4" type="curve" smooth="yes"/>
      <point x="198.0" y="167.2"/>
      <point x="138.60000000000002" y="99.2"/>
      <point x="58.800000000000004" y="20.0" type="curve"/>
    </contour>
    <contour>
      <point x="73.6" y="285.4" type="line"/>
      <point x="438.4" y="285.4" type="line"/>
      <point x="441.4" y="304.0" type="line"/>
      <point x="76.6" y="304.0" type="line"/>
    </contour>
    <contour>
      <point x="92.4" y="405.0" type="line"/>
      <point x="457.20000000000005" y="405.0" type="line"/>
      <point x="460.20000000000005" y="423.6" type="line"/>
      <point x="95.4" y="423.6" type="line"/>
    </contour>
  </outline>
</glyph>
<glyph name="uni20A6" format="2">
  <advance width="563.6"/>
  <unicode hex="20A6"/>
  <outline>
    <contour>
      <point x="47.2" y="0.0" type="line"/>
      <point x="66.6" y="0.0" type="line"/>
      <point x="172.2" y="673.6" type="line"/>
      <point x="404.8" y="0.0" type="line"/>
      <point x="428.8" y="0.0" type="line"/>
      <point x="539.8" y="700.0" type="line"/>
      <point x="520.4000000000001" y="700.0" type="line"/>
      <point x="415.6" y="29.8" type="line"/>
      <point x="183.0" y="704.0" type="line"/>
      <point x="158.4" y="704.0" type="line"/>
    </contour>
    <contour>
      <point x="32.400000000000006" y="342.6" type="line"/>
      <point x="108.0" y="342.6" type="line"/>
      <point x="111.0" y="362.0" type="line"/>
      <point x="35.400000000000006" y="362.0" type="line"/>
    </contour>
    <contour>
      <point x="476.8" y="342.6" type="line"/>
      <point x="552.4000000000001" y="342.6" type="line"/>
      <point x="555.4000000000001" y="362.0" type="line"/>
      <point x="479.8" y="362.0" type="line"/>
    </contour>
  </outline>
</glyph>
<glyph name="uni20A9" format="2">
  <advance width="564"/>
  <unicode hex="20A9"/>
  <outline>
    <contour>
      <point x="98" y="0" type="line"/>
      <point x="118" y="0" type="line"/>
      <point x="340" y="646" type="line"/>
      <point x="360" y="0" type="line"/>
      <point x="380" y="0" type="line"/>
      <point x="611" y="699" type="line"/>
      <point x="592" y="702" type="line"/>
      <point x="379" y="54" type="line"/>
      <point x="358" y="685" type="line"/>
      <point x="335" y="685" type="line"/>
      <point x="116" y="54" type="line"/>
      <point x="107" y="702" type="line"/>
      <point x="87" y="698" type="line"/>
    </contour>
    <contour>
      <point x="17" y="337" type="line"/>
      <point x="100" y="337" type="line"/>
      <point x="101" y="356" type="line"/>
      <point x="20" y="356" type="line"/>
    </contour>
    <contour>
      <point x="484" y="337" type="line"/>
      <point x="567" y="337" type="line"/>
      <point x="570" y="356" type="line"/>
      <point x="491" y="356" type="line"/>
    </contour>
  </outline>
</glyph>
<glyph name="dong" format="2">
  <advance width="563.6"/>
  <unicode hex="20AB"/>
  <outline>
    <contour>
      <point x="53.8" y="0.0" type="line"/>
      <point x="460.2" y="0.0" type="line"/>
      <point x="464.2" y="19.4" type="line"/>
      <point x="57.8" y="19.4" type="line"/>
    </contour>
    <contour>
      <point x="312.6" y="623.2" type="line"/>
      <point x="565.0" y="623.2" type="line"/>
      <point x="568.0" y="641.8" type="line"/>
      <point x="315.6" y="641.8" type="line"/>
    </contour>
    <contour>
      <point x="456.8" y="76.0" type="curve" smooth="yes"/>
      <point x="467.40000000000003" y="76.0"/>
      <point x="477.40000000000003" y="78.0"/>
      <point x="491.2" y="83.0" type="curve"/>
      <point x="486.8" y="98.8" type="line"/>
      <point x="478.40000000000003" y="95.4"/>
      <point x="468.2" y="92.8"/>
      <point x="457.6" y="92.8" type="curve" smooth="yes"/>
      <point x="438.0" y="92.8"/>
      <point x="427.4" y="106.8"/>
      <point x="427.4" y="132.0" type="curve" smooth="yes"/>
      <point x="427.4" y="142.2"/>
      <point x="464.2" y="375.20000000000005"/>
      <point x="522.4" y="740.0" type="curve"/>
      <point x="503.4" y="740.0" type="line"/>
      <point x="469.20000000000005" y="523.6" type="line"/>
      <point x="438.0" y="531.4"/>
      <point x="400.6" y="538.8"/>
      <point x="350.8" y="538.8" type="curve" smooth="yes"/>
      <point x="209.2" y="538.8"/>
      <point x="89.60000000000001" y="424.4"/>
      <point x="89.60000000000001" y="230.8" type="curve" smooth="yes"/>
      <point x="89.60000000000001" y="112.8"/>
      <point x="159.4" y="76.0"/>
      <point x="257.4" y="76.0" type="curve" smooth="yes"/>
      <point x="312.8" y="76.0"/>
      <point x="375.20000000000005" y="98.0"/>
      <point x="410.0" y="124.4" type="curve"/>
      <point x="410.6" y="94.0"/>
      <point x="428.8" y="76.0"/>
    </contour>
    <contour>
      <point x="258.6" y="95.0" type="curve" smooth="yes"/>
      <point x="172.4" y="95.0"/>
      <point x="108.4" y="126.2"/>
      <point x="108.4" y="230.4" type="curve" smooth="yes"/>
      <point x="108.4" y="406.2"/>
      <point x="210.0" y="521.4"/>
      <point x="349.8" y="521.4" type="curve" smooth="yes"/>
      <point x="401.20000000000005" y="521.4"/>
      <point x="436.8" y="513.2"/>
      <point x="466.20000000000005" y="505.8" type="curve"/>
      <point x="409.20000000000005" y="141.4" type="line"/>
      <point x="369.4" y="113.4"/>
      <point x="314.6" y="95.0"/>
    </contour>
  </outline>
</glyph>
<glyph name="Euro" format="2">
  <advance width="563.6"/>
  <unicode hex="20AC"/>
  <outline>
    <contour>
      <point x="126.0" y="215.0" type="curve" smooth="yes"/>
      <point x="126.0" y="49.2"/>
      <point x="204.60000000000002" y="-10.0"/>
      <point x="360.4" y="-10.0" type="curve" smooth="yes"/>
      <point x="397.20000000000005" y="-10.0"/>
      <point x="434.2" y="-6.0"/>
      <point x="471.0" y="5.4" type="curve"/>
      <point x="468.8" y="23.4" type="line"/>
      <point x="434.0" y="12.6"/>
      <point x="400.4" y="9.4"/>
      <point x="362.20000000000005" y="9.4" type="curve" smooth="yes"/>
      <point x="217.60000000000002" y="9.4"/>
      <point x="145.0" y="62.2"/>
      <point x="145.0" y="217.8" type="curve" smooth="yes"/>
      <point x="145.0" y="473.4"/>
      <point x="251.4" y="690.0"/>
      <point x="452.8" y="690.0" type="curve" smooth="yes"/>
      <point x="497.6" y="690.0"/>
      <point x="530.0" y="685.4"/>
      <point x="562.0" y="674.2" type="curve"/>
      <point x="568.6" y="693.8" type="line"/>
      <point x="535.0" y="705.6"/>
      <point x="499.4" y="710.0"/>
      <point x="454.4" y="710.0" type="curve" smooth="yes"/>
      <point x="236.8" y="710.0"/>
      <point x="126.0" y="479.8"/>
    </contour>
    <contour>
      <point x="430.4" y="426.0" type="line"/>
      <point x="434.0" y="445.4" type="line"/>
      <point x="85.6" y="445.4" type="line"/>
      <point x="82.0" y="426.0" type="line"/>
    </contour>
    <contour>
      <point x="403.4" y="255.2" type="line"/>
      <point x="407.0" y="274.6" type="line"/>
      <point x="58.6" y="274.6" type="line"/>
      <point x="55.0" y="255.2" type="line"/>
    </contour>
  </outline>
</glyph>
<glyph name="uni20AD" format="2">
  <advance width="564"/>
  <unicode hex="20AD"/>
  <outline>
    <contour>
      <point x="493" y="-9" type="curve" smooth="yes"/>
      <point x="497" y="-9"/>
      <point x="502" y="-9"/>
      <point x="507" y="-7" type="curve"/>
      <point x="504" y="11" type="line"/>
      <point x="502" y="11"/>
      <point x="498" y="10"/>
      <point x="493" y="10" type="curve" smooth="yes"/>
      <point x="454" y="10"/>
      <point x="422" y="26"/>
      <point x="348" y="117" type="curve" smooth="yes"/>
      <point x="161" y="345" type="line"/>
      <point x="528" y="345" type="line"/>
      <point x="531" y="364" type="line"/>
      <point x="177" y="364" type="line"/>
      <point x="330" y="440"/>
      <point x="477" y="560"/>
      <point x="589" y="696" type="curve"/>
      <point x="573" y="704" type="line"/>
      <point x="455" y="559"/>
      <point x="299" y="444"/>
      <point x="141" y="365" type="curve"/>
      <point x="193" y="700" type="line"/>
      <point x="174" y="700" type="line"/>
      <point x="121" y="364" type="line"/>
      <point x="36" y="364" type="line"/>
      <point x="33" y="345" type="line"/>
      <point x="118" y="345" type="line"/>
      <point x="63" y="0" type="line"/>
      <point x="82" y="0" type="line"/>
      <point x="137" y="346" type="line"/>
      <point x="335" y="106" type="line" smooth="yes"/>
      <point x="408" y="16"/>
      <point x="440" y="-9"/>
    </contour>
  </outline>
</glyph>
<glyph name="uni20B2" format="2">
  <advance width="563.6"/>
  <unicode hex="20B2"/>
  <outline>
    <contour>
      <point x="301.20000000000005" y="-10.0" type="curve" smooth="yes"/>
      <point x="369.20000000000005" y="-10.0"/>
      <point x="429.6" y="3.4000000000000004"/>
      <point x="468.40000000000003" y="19.0" type="curve"/>
      <point x="517.2" y="327.0" type="line"/>
      <point x="309.20000000000005" y="327.0" type="line"/>
      <point x="306.20000000000005" y="308.0" type="line"/>
      <point x="495.2" y="308.0" type="line"/>
      <point x="451.40000000000003" y="33.2" type="line"/>
      <point x="415.6" y="18.4"/>
      <point x="363.6" y="9.0"/>
      <point x="304.6" y="9.0" type="curve" smooth="yes"/>
      <point x="173.0" y="9.0"/>
      <point x="76.6" y="75.6"/>
      <point x="76.6" y="224.2" type="curve" smooth="yes"/>
      <point x="76.6" y="495.4"/>
      <point x="205.8" y="691.0"/>
      <point x="395.8" y="691.0" type="curve" smooth="yes"/>
      <point x="452.6" y="691.0"/>
      <point x="495.4" y="684.0"/>
      <point x="552.6" y="667.2" type="curve"/>
      <point x="559.2" y="684.8" type="line"/>
      <point x="514.6" y="700.2"/>
      <point x="457.6" y="710.0"/>
      <point x="399.20000000000005" y="710.0" type="curve" smooth="yes"/>
      <point x="192.2" y="710.0"/>
      <point x="57.6" y="514.8"/>
      <point x="57.6" y="221.6" type="curve" smooth="yes"/>
      <point x="57.6" y="62.8"/>
      <point x="158.2" y="-10.0"/>
    </contour>
    <contour>
      <point x="388.20000000000005" y="703.0" type="line"/>
      <point x="405.4" y="697.4" type="line"/>
      <point x="422.8" y="805.0" type="line"/>
      <point x="404.8" y="805.0" type="line"/>
    </contour>
    <contour>
      <point x="294.0" y="2.6" type="line"/>
      <point x="275.6" y="0.0" type="line"/>
      <point x="259.0" y="-105.0" type="line"/>
      <point x="277.0" y="-105.0" type="line"/>
    </contour>
  </outline>
</glyph>
<glyph name="uni20B5" format="2">
  <advance width="563.6"/>
  <unicode hex="20B5"/>
  <outline>
    <contour>
      <point x="330.8" y="-10.0" type="curve" smooth="yes"/>
      <point x="399.8" y="-10.0"/>
      <point x="457.0" y="-1.3999999999999995"/>
      <point x="500.40000000000003" y="15.2" type="curve"/>
      <point x="495.0" y="32.2" type="line"/>
      <point x="452.0" y="17.0"/>
      <point x="396.4" y="9.0"/>
      <point x="332.6" y="9.0" type="curve" smooth="yes"/>
      <point x="180.2" y="9.0"/>
      <point x="94.2" y="80.4"/>
      <point x="94.2" y="224.2" type="curve" smooth="yes"/>
      <point x="94.2" y="493.0"/>
      <point x="220.2" y="691.0"/>
      <point x="414.6" y="691.0" type="curve" smooth="yes"/>
      <point x="473.4" y="691.0"/>
      <point x="520.2" y="684.0"/>
      <point x="578.2" y="667.6" type="curve"/>
      <point x="584.8" y="685.6" type="line"/>
      <point x="529.2" y="703.0"/>
      <point x="480.0" y="710.0"/>
      <point x="418.0" y="710.0" type="curve" smooth="yes"/>
      <point x="207.2" y="710.0"/>
      <point x="75.2" y="512.0"/>
      <point x="75.2" y="223.6" type="curve" smooth="yes"/>
      <point x="75.2" y="66.8"/>
      <point x="165.4" y="-10.0"/>
    </contour>
    <contour>
      <point x="414.8" y="703.0" type="line"/>
      <point x="432.0" y="697.4" type="line"/>
      <point x="449.4" y="805.0" type="line"/>
      <point x="431.4" y="805.0" type="line"/>
    </contour>
    <contour>
      <point x="323.0" y="2.6" type="line"/>
      <point x="304.6" y="0.0" type="line"/>
      <point x="288.0" y="-105.0" type="line"/>
      <point x="306.0" y="-105.0" type="line"/>
    </contour>
  </outline>
</glyph>
<glyph name="uni20B9" format="2">
  <advance width="563.6"/>
  <unicode hex="20B9"/>
  <outline>
    <contour>
      <point x="441.2" y="0.0" type="line"/>
      <point x="473.2" y="0.0" type="line"/>
      <point x="97.4" y="341.6" type="line"/>
      <point x="97.4" y="341.6" type="line"/>
      <point x="309.20000000000005" y="341.6" type="line" smooth="yes"/>
      <point x="431.40000000000003" y="341.6"/>
      <point x="497.40000000000003" y="418.2"/>
      <point x="497.40000000000003" y="536.8" type="curve" smooth="yes"/>
      <point x="497.40000000000003" y="612.8"/>
      <point x="465.0" y="666.0"/>
      <point x="419.0" y="680.6" type="curve"/>
      <point x="589.6" y="680.6" type="line"/>
      <point x="592.6" y="700.0" type="line"/>
      <point x="121.6" y="700.0" type="line"/>
      <point x="118.6" y="680.6" type="line"/>
      <point x="337.20000000000005" y="680.6" type="line" smooth="yes"/>
      <point x="432.20000000000005" y="680.6"/>
      <point x="478.40000000000003" y="625.8"/>
      <point x="478.40000000000003" y="536.4" type="curve" smooth="yes"/>
      <point x="478.40000000000003" y="423.2"/>
      <point x="419.0" y="361.0"/>
      <point x="307.8" y="361.0" type="curve" smooth="yes"/>
      <point x="68.2" y="361.0" type="line"/>
      <point x="65.2" y="341.6" type="line"/>
    </contour>
    <contour>
      <point x="92.80000000000001" y="515.6" type="line"/>
      <point x="563.8" y="515.6" type="line"/>
      <point x="566.8" y="535.0" type="line"/>
      <point x="95.80000000000001" y="535.0" type="line"/>
    </contour>
  </outline>
</glyph>
<glyph name="uni20BA" format="2">
  <advance width="563.6"/>
  <unicode hex="20BA"/>
  <outline>
    <contour>
      <point x="73.6" y="0.0" type="line"/>
      <point x="220.20000000000002" y="0.0" type="line" smooth="yes"/>
      <point x="374.6" y="0.0"/>
      <point x="481.8" y="104.8"/>
      <point x="510.40000000000003" y="317.4" type="curve"/>
      <point x="490.40000000000003" y="317.4" type="line"/>
      <point x="464.0" y="119.6"/>
      <point x="366.0" y="19.6"/>
      <point x="224.8" y="19.6" type="curve" smooth="yes"/>
      <point x="95.6" y="19.6" type="line"/>
      <point x="203.6" y="700.0" type="line"/>
      <point x="184.6" y="700.0" type="line"/>
    </contour>
    <contour>
      <point x="51.6" y="337.0" type="line"/>
      <point x="337.0" y="516.6" type="line"/>
      <point x="340.6" y="541.0" type="line"/>
      <point x="55.2" y="361.4" type="line"/>
    </contour>
    <contour>
      <point x="31.0" y="207.4" type="line"/>
      <point x="316.4" y="387.0" type="line"/>
      <point x="320.0" y="411.4" type="line"/>
      <point x="34.6" y="231.8" type="line"/>
    </contour>
  </outline>
</glyph>
<glyph name="uni20BC" format="2">
  <advance width="564"/>
  <unicode hex="20BC"/>
  <outline>
    <contour>
      <point x="-6" y="0" type="curve"/>
      <point x="13" y="0" type="line"/>
      <point x="64" y="326"/>
      <point x="127" y="631"/>
      <point x="329" y="631" type="curve" smooth="yes"/>
      <point x="436" y="631"/>
      <point x="510" y="580"/>
      <point x="510" y="393" type="curve" smooth="yes"/>
      <point x="510" y="313"/>
      <point x="487" y="122"/>
      <point x="465" y="0" type="curve"/>
      <point x="483" y="0" type="line"/>
      <point x="506" y="130"/>
      <point x="527" y="311"/>
      <point x="527" y="391" type="curve" smooth="yes"/>
      <point x="527" y="593"/>
      <point x="446" y="648"/>
      <point x="330" y="648" type="curve" smooth="yes"/>
      <point x="110" y="648"/>
      <point x="46" y="327"/>
    </contour>
    <contour>
      <point x="241" y="83" type="line"/>
      <point x="259" y="83" type="line"/>
      <point x="359" y="710" type="line"/>
      <point x="341" y="710" type="line"/>
    </contour>
  </outline>
</glyph>
<glyph name="uni2113" format="2">
  <advance width="352.20000000000005"/>
  <unicode hex="2113"/>
  <outline>
    <contour>
      <point x="170.0" y="-10.0" type="curve" smooth="yes"/>
      <point x="209.0" y="-10.0"/>
      <point x="240.8" y="0.6000000000000001"/>
      <point x="283.8" y="32.0" type="curve"/>
      <point x="275.0" y="46.2" type="line"/>
      <point x="234.60000000000002" y="16.4"/>
      <point x="203.8" y="8.2"/>
      <point x="170.8" y="8.2" type="curve" smooth="yes"/>
      <point x="113.6" y="8.2"/>
      <point x="84.4" y="54.4"/>
      <point x="80.4" y="172.8" type="curve"/>
      <point x="232.4" y="226.8"/>
      <point x="331.2" y="426.4"/>
      <point x="331.2" y="597.8" type="curve" smooth="yes"/>
      <point x="331.2" y="664.6"/>
      <point x="307.2" y="710.0"/>
      <point x="255.4" y="710.0" type="curve" smooth="yes"/>
      <point x="148.6" y="710.0"/>
      <point x="58.2" y="470.8"/>
      <point x="62.0" y="186.4" type="curve"/>
      <point x="42.0" y="180.6"/>
      <point x="22.400000000000002" y="177.4"/>
      <point x="3.6000000000000014" y="176.2" type="curve"/>
      <point x="2.4000000000000004" y="158.0" type="line"/>
      <point x="23.6" y="159.2"/>
      <point x="42.8" y="162.8"/>
      <point x="62.6" y="168.0" type="curve"/>
      <point x="63.800000000000004" y="47.0"/>
      <point x="99.80000000000001" y="-10.0"/>
    </contour>
    <contour>
      <point x="79.4" y="192.0" type="curve"/>
      <point x="78.6" y="453.0"/>
      <point x="164.4" y="691.2"/>
      <point x="254.8" y="691.2" type="curve" smooth="yes"/>
      <point x="291.8" y="691.2"/>
      <point x="312.4" y="654.2"/>
      <point x="312.4" y="599.0" type="curve" smooth="yes"/>
      <point x="312.4" y="439.4"/>
      <point x="222.8" y="250.6"/>
    </contour>
  </outline>
</glyph>
<glyph name="uni2117" format="2">
  <advance width="617"/>
  <unicode hex="2117"/>
  <outline>
    <contour>
      <point x="283" y="9" type="curve" smooth="yes"/>
      <point x="150" y="9"/>
      <point x="80" y="97"/>
      <point x="80" y="257" type="curve" smooth="yes"/>
      <point x="80" y="479"/>
      <point x="162" y="691"/>
      <point x="358" y="691" type="curve" smooth="yes"/>
      <point x="491" y="691"/>
      <point x="561" y="603"/>
      <point x="561" y="443" type="curve" smooth="yes"/>
      <point x="561" y="221"/>
      <point x="479" y="9"/>
    </contour>
    <contour>
      <point x="281" y="-10" type="curve" smooth="yes"/>
      <point x="488" y="-10"/>
      <point x="580" y="205"/>
      <point x="580" y="446" type="curve" smooth="yes"/>
      <point x="580" y="612"/>
      <point x="505" y="710"/>
      <point x="360" y="710" type="curve" smooth="yes"/>
      <point x="153" y="710"/>
      <point x="61" y="495"/>
      <point x="61" y="254" type="curve" smooth="yes"/>
      <point x="61" y="88"/>
      <point x="136" y="-10"/>
    </contour>
    <contour>
      <point x="212" y="180" type="line"/>
      <point x="230" y="180" type="line"/>
      <point x="250" y="307" type="line"/>
      <point x="280" y="305"/>
      <point x="293" y="305"/>
      <point x="317" y="305" type="curve" smooth="yes"/>
      <point x="393" y="305"/>
      <point x="441" y="344"/>
      <point x="441" y="419" type="curve" smooth="yes"/>
      <point x="441" y="479"/>
      <point x="406" y="510"/>
      <point x="346" y="510" type="curve" smooth="yes"/>
      <point x="321" y="510"/>
      <point x="304" y="508"/>
      <point x="263" y="504" type="curve"/>
    </contour>
    <contour>
      <point x="318" y="323" type="curve" smooth="yes"/>
      <point x="292" y="323"/>
      <point x="280" y="323"/>
      <point x="253" y="325" type="curve"/>
      <point x="278" y="487" type="line"/>
      <point x="315" y="490"/>
      <point x="320" y="491"/>
      <point x="345" y="491" type="curve" smooth="yes"/>
      <point x="398" y="491"/>
      <point x="424" y="466"/>
      <point x="424" y="420" type="curve" smooth="yes"/>
      <point x="424" y="351"/>
      <point x="382" y="323"/>
    </contour>
  </outline>
</glyph>
<glyph name="trademark" format="2">
  <advance width="547"/>
  <unicode hex="2122"/>
  <outline>
    <contour>
      <point x="263" y="681" type="line"/>
      <point x="266" y="700" type="line"/>
      <point x="75" y="700" type="line"/>
      <point x="72" y="681" type="line"/>
      <point x="158" y="681" type="line"/>
      <point x="111" y="381" type="line"/>
      <point x="129" y="381" type="line"/>
      <point x="176" y="681" type="line"/>
    </contour>
    <contour>
      <point x="257" y="381" type="line"/>
      <point x="274" y="381" type="line"/>
      <point x="318" y="672" type="line"/>
      <point x="398" y="503" type="line"/>
      <point x="408" y="503" type="line"/>
      <point x="542" y="672" type="line"/>
      <point x="495" y="381" type="line"/>
      <point x="513" y="381" type="line"/>
      <point x="563" y="700" type="line"/>
      <point x="545" y="700" type="line"/>
      <point x="406" y="523" type="line"/>
      <point x="322" y="700" type="line"/>
      <point x="307" y="700" type="line"/>
    </contour>
  </outline>
</glyph>
<glyph name="uni2126" format="2">
  <advance width="657.8"/>
  <unicode hex="2126"/>
  <outline>
    <contour>
      <point x="354.6" y="7.800000000000001" type="curve"/>
      <point x="352.6" y="-6.0" type="line"/>
      <point x="542.0" y="-6.0" type="line"/>
      <point x="545.0" y="12.8" type="line"/>
      <point x="408.4" y="12.8" type="line"/>
      <point x="525.0" y="55.0"/>
      <point x="619.8" y="293.6"/>
      <point x="619.8" y="488.8" type="curve" smooth="yes"/>
      <point x="619.8" y="629.6"/>
      <point x="539.2" y="710.0"/>
      <point x="397.6" y="710.0" type="curve" smooth="yes"/>
      <point x="202.2" y="710.0"/>
      <point x="65.4" y="490.0"/>
      <point x="65.4" y="203.8" type="curve" smooth="yes"/>
      <point x="65.4" y="109.8"/>
      <point x="106.0" y="31.6"/>
      <point x="173.2" y="12.8" type="curve"/>
      <point x="30.200000000000003" y="12.8" type="line"/>
      <point x="27.200000000000003" y="-6.0" type="line"/>
      <point x="219.2" y="-6.0" type="line"/>
      <point x="221.2" y="7.800000000000001" type="line"/>
      <point x="133.6" y="27.200000000000003"/>
      <point x="83.4" y="103.6"/>
      <point x="83.4" y="211.6" type="curve" smooth="yes"/>
      <point x="83.4" y="470.6"/>
      <point x="214.60000000000002" y="691.2"/>
      <point x="394.0" y="691.2" type="curve" smooth="yes"/>
      <point x="527.6" y="691.2"/>
      <point x="600.4000000000001" y="619.0"/>
      <point x="600.4000000000001" y="485.2" type="curve" smooth="yes"/>
      <point x="600.4000000000001" y="276.4"/>
      <point x="490.8" y="40.8"/>
    </contour>
  </outline>
</glyph>
<glyph name="estimated" format="2">
  <advance width="827.8"/>
  <unicode hex="212E"/>
  <outline>
    <contour>
      <point x="177.0" y="114.0" type="curve"/>
      <point x="177.0" y="339.0" type="line"/>
      <point x="782.0" y="339.0" type="line"/>
      <point x="782.0" y="343.0"/>
      <point x="782.0" y="346.0"/>
      <point x="782.0" y="350.0" type="curve" smooth="yes"/>
      <point x="782.0" y="548.0"/>
      <point x="620.0" y="710.0"/>
      <point x="422.0" y="710.0" type="curve" smooth="yes"/>
      <point x="223.0" y="710.0"/>
      <point x="62.0" y="548.0"/>
      <point x="62.0" y="350.0" type="curve" smooth="yes"/>
      <point x="62.0" y="151.0"/>
      <point x="223.0" y="-10.0"/>
      <point x="422.0" y="-10.0" type="curve" smooth="yes"/>
      <point x="575.0" y="-10.0"/>
      <point x="700.0" y="84.0"/>
      <point x="754.0" y="212.0" type="curve"/>
      <point x="732.0" y="212.0" type="line"/>
      <point x="680.0" y="95.0"/>
      <point x="564.0" y="10.0"/>
      <point x="422.0" y="10.0" type="curve" smooth="yes"/>
      <point x="325.0" y="10.0"/>
      <point x="239.0" y="50.0"/>
    </contour>
    <contour>
      <point x="177.0" y="359.0" type="line"/>
      <point x="177.0" y="585.0" type="line"/>
      <point x="239.0" y="649.0"/>
      <point x="325.0" y="690.0"/>
      <point x="422.0" y="690.0" type="curve" smooth="yes"/>
      <point x="524.0" y="690.0"/>
      <point x="615.0" y="644.0"/>
      <point x="678.0" y="573.0" type="curve"/>
      <point x="678.0" y="359.0" type="line"/>
    </contour>
  </outline>
</glyph>
<glyph name="arrowup" format="2">
  <advance width="440.0"/>
  <unicode hex="2191"/>
  <outline>
    <contour>
      <point x="230.0" y="61.0" type="line"/>
      <point x="230.0" y="494.0" type="line"/>
      <point x="412.2" y="302.2" type="line"/>
      <point x="426.0" y="315.4" type="line"/>
      <point x="220.0" y="532.4" type="line"/>
      <point x="14.0" y="315.4" type="line"/>
      <point x="27.8" y="302.2" type="line"/>
      <point x="210.0" y="494.0" type="line"/>
      <point x="210.0" y="61.0" type="line"/>
    </contour>
  </outline>
</glyph>
<glyph name="arrowright" format="2">
  <advance width="520.0"/>
  <unicode hex="2192"/>
  <outline>
    <contour>
      <point x="22.2" y="279.0" type="line"/>
      <point x="455.8" y="279.0" type="line"/>
      <point x="263.4" y="96.8" type="line"/>
      <point x="276.6" y="83.0" type="line"/>
      <point x="493.6" y="289.0" type="line"/>
      <point x="276.6" y="495.0" type="line"/>
      <point x="263.4" y="481.2" type="line"/>
      <point x="455.8" y="299.0" type="line"/>
      <point x="22.2" y="299.0" type="line"/>
    </contour>
  </outline>
</glyph>
<glyph name="uni2196" format="2">
  <advance width="442.8"/>
  <unicode hex="2196"/>
  <outline>
    <contour>
      <point x="362.6" y="408.0" type="line"/>
      <point x="363.2" y="427.2" type="line"/>
      <point x="63.2" y="427.6" type="line"/>
      <point x="63.2" y="127.6" type="line"/>
      <point x="82.8" y="128.2" type="line"/>
      <point x="82.8" y="394.0" type="line"/>
      <point x="373.0" y="103.4" type="line"/>
      <point x="387.4" y="117.8" type="line"/>
      <point x="96.8" y="408.0" type="line"/>
    </contour>
  </outline>
</glyph>
